<svg width="180" height="180" viewBox="0 0 180 180" fill="none" xmlns="http://www.w3.org/2000/svg">
<path d="M89.9765 85.0832C103.286 85.0832 113.985 74.3228 113.985 61.0983C114 47.8351 103.286 37.1055 89.9765 37.1055C76.7595 37.1055 66.0303 47.8351 66.0303 61.0983C66.0303 74.3386 76.7599 85.0832 89.9765 85.0832Z" fill="#FCCE5E"/>
<path d="M109.234 88.9922H70.7806C63.9056 88.9922 58.2744 95.2956 58.2744 103.028V141.651C58.2744 142.076 58.4907 142.454 58.514 142.895H121.477C121.524 142.455 121.702 142.076 121.702 141.651V103.028C121.725 95.2956 116.093 88.9922 109.234 88.9922Z" fill="black"/>
<path d="M154.554 96.5313C165.237 96.5313 173.804 87.9339 173.804 77.3124C173.804 66.691 165.237 58.0781 154.554 58.0781C143.948 58.0781 135.366 66.691 135.366 77.3124C135.343 87.9264 143.949 96.5313 154.554 96.5313Z" fill="#FCCE5E"/>
<path d="M169.996 99.668H139.183C133.652 99.668 129.133 104.72 129.133 110.938V141.883C129.133 142.216 129.295 142.532 129.318 142.895H179.822C179.845 142.532 180 142.216 180 141.883V110.938C180.023 104.72 175.512 99.668 169.996 99.668Z" fill="black"/>
<path d="M25.43 96.5313C36.0976 96.5313 44.6722 87.9339 44.6722 77.3124C44.6722 66.691 36.0976 58.0781 25.43 58.0781C14.8164 58.0781 6.23438 66.691 6.23438 77.3124C6.23438 87.9339 14.8164 96.5313 25.43 96.5313Z" fill="#FCCE5E"/>
<path d="M40.8632 99.668H10.0188C4.50355 99.668 0 104.72 0 110.938V141.883C0 142.216 0.162222 142.532 0.19302 142.895H50.6969C50.7201 142.532 50.867 142.216 50.867 141.883V110.938C50.8824 104.72 46.3709 99.668 40.8632 99.668Z" fill="black"/>
</svg>
