<svg width="180" height="180" viewBox="0 0 180 180" fill="none" xmlns="http://www.w3.org/2000/svg">
<g clip-path="url(#clip0_1901_6373)">
<path d="M177.158 162C177.158 170.371 170.371 177.158 162 177.158H17.9998C9.62836 177.158 2.8418 170.371 2.8418 162C2.8418 153.628 9.62836 146.842 17.9998 146.842H162C170.371 146.842 177.158 153.628 177.158 162Z" fill="#A5A5A5"/>
<path d="M165.79 55.8943V139.263C165.79 147.634 159.003 154.421 150.632 154.421H29.3689C20.9975 154.421 14.2109 147.634 14.2109 139.263V55.8943C14.2109 47.5229 20.9975 40.7363 29.3689 40.7363H150.632C159.003 40.7367 165.79 47.5232 165.79 55.8943Z" fill="#CCCAC4"/>
<path d="M150.631 146.842H29.368C25.1823 146.842 21.7891 143.449 21.7891 139.263V55.8944C21.7891 51.7087 25.182 48.3154 29.368 48.3154H150.631C154.817 48.3154 158.21 51.7084 158.21 55.8944V139.263C158.21 143.449 154.817 146.842 150.631 146.842Z" fill="#F2EFE2"/>
<path d="M141.158 72H38.8423C35.7032 72 33.1582 69.455 33.1582 66.3159C33.1582 63.1768 35.7032 60.6318 38.8423 60.6318H141.158C144.297 60.6318 146.842 63.1768 146.842 66.3159C146.842 69.455 144.297 72 141.158 72ZM86.2107 86.2105C86.2107 83.0714 83.6658 80.5264 80.5267 80.5264H38.8423C35.7032 80.5264 33.1582 83.0714 33.1582 86.2105C33.1582 89.3496 35.7032 91.8945 38.8423 91.8945H80.5263C83.6658 91.8945 86.2107 89.3496 86.2107 86.2105ZM146.842 86.2105C146.842 83.0714 144.297 80.5264 141.158 80.5264H99.4738C96.3347 80.5264 93.7897 83.0714 93.7897 86.2105C93.7897 89.3496 96.3347 91.8945 99.4738 91.8945H141.158C144.297 91.8945 146.842 89.3496 146.842 86.2105Z" fill="#BFBBA3"/>
<path d="M141.158 133.579H38.8423C35.7032 133.579 33.1582 131.034 33.1582 127.895V105.158C33.1582 102.019 35.7032 99.4736 38.8423 99.4736H141.158C144.297 99.4736 146.842 102.019 146.842 105.158V127.895C146.842 131.034 144.297 133.579 141.158 133.579Z" fill="#FCCE5E"/>
<path d="M50.4008 130.252L49.6069 131.046L49.6361 131.075L43.134 137.577C42.6674 138.044 42.0346 138.306 41.3747 138.306C40.7149 138.306 40.0821 138.044 39.6155 137.577L33.1141 131.075L33.1433 131.046L32.3494 130.252C30.0762 127.979 30.0762 124.294 32.3494 122.02C34.6226 119.747 38.3081 119.747 40.5813 122.02L41.3751 122.814L42.1689 122.02C44.4421 119.747 48.1276 119.747 50.4008 122.02C52.674 124.294 52.674 127.979 50.4008 130.252Z" fill="#FC8059"/>
<path d="M130.926 102.379L123.347 112.484C121.831 114.505 118.8 114.505 117.284 112.484L109.705 102.379C109.213 101.723 108.947 100.925 108.947 100.105V10.4208C108.947 6.23508 112.34 2.8418 116.526 2.8418H124.105C128.291 2.8418 131.684 6.23473 131.684 10.4208V100.105C131.684 100.925 131.418 101.723 130.926 102.379Z" fill="#D6A154"/>
<path d="M128.842 105.158L123.348 112.484C121.832 114.505 118.8 114.505 117.285 112.484L111.79 105.158H128.842Z" fill="#B26932"/>
<path d="M108.947 89.9998V10.4208C108.947 6.23508 112.34 2.8418 116.526 2.8418H124.105C128.291 2.8418 131.684 6.23473 131.684 10.4208V89.9998H108.947Z" fill="#FCCE5E"/>
<path d="M120.316 89.9998V2.8418H124.106C128.292 2.8418 131.685 6.23473 131.685 10.4208V89.9998H120.316Z" fill="#FCCE5E"/>
<path d="M131.684 10.4208V17.9998H108.947V10.4208C108.947 6.23508 112.34 2.8418 116.526 2.8418H124.105C128.291 2.8418 131.684 6.23508 131.684 10.4208Z" fill="#FC8059"/>
<path d="M167.719 144.927C168.312 143.146 168.632 141.241 168.632 139.263V55.8946C168.632 45.9696 160.557 37.8946 150.632 37.8946H134.526V10.421C134.526 4.67508 129.851 0 124.105 0H116.526C110.78 0 106.105 4.67508 106.105 10.421V37.8946H29.3685C19.4435 37.8946 11.3685 45.9696 11.3685 55.8946V139.263C11.3685 141.241 11.6891 143.145 12.2811 144.927C5.07305 147.328 0 154.114 0 162C0 171.925 8.07504 180 18 180H162C171.925 180 180 171.925 180 162C180 154.114 174.927 147.328 167.719 144.927ZM111.789 10.421C111.789 7.80891 113.914 5.68406 116.526 5.68406H124.105C126.718 5.68406 128.842 7.80891 128.842 10.421V15.158H111.79V10.421H111.789ZM128.842 20.842V87.158H123.158V20.842H128.842ZM111.789 20.842H117.474V87.158H111.789V20.842ZM111.789 92.842H128.842V100.105C128.842 100.309 128.775 100.511 128.653 100.674L121.074 110.779C120.826 111.109 120.493 111.158 120.316 111.158C120.138 111.158 119.805 111.109 119.558 110.779L111.979 100.674C111.857 100.511 111.789 100.309 111.789 100.105V92.842H111.789ZM17.0525 55.8946C17.0525 49.1034 22.5773 43.5786 29.3685 43.5786H106.105V100.105C106.105 101.53 106.576 102.942 107.432 104.084L115.011 114.189C116.275 115.875 118.209 116.841 120.316 116.841C122.424 116.841 124.357 115.875 125.622 114.189L133.201 104.084C134.056 102.944 134.527 101.531 134.527 100.105V43.579H150.633C157.424 43.579 162.949 49.1038 162.949 55.8949V139.263C162.949 146.055 157.424 151.579 150.633 151.579H29.3685C22.5773 151.579 17.0525 146.055 17.0525 139.263V55.8946ZM162 174.316H18C11.2089 174.316 5.68406 168.791 5.68406 162C5.68406 156.285 9.57621 151.413 14.9745 150.06C18.2612 154.431 23.49 157.263 29.3685 157.263H150.632C156.51 157.263 161.739 154.431 165.026 150.06C170.424 151.413 174.316 156.285 174.316 162C174.316 168.791 168.791 174.316 162 174.316ZM60.6315 165.789C60.6315 167.36 59.3596 168.632 57.7895 168.632H27.4736C25.9035 168.632 24.6315 167.36 24.6315 165.789C24.6315 164.219 25.9035 162.947 27.4736 162.947H57.7895C59.3596 162.947 60.6315 164.219 60.6315 165.789ZM155.368 165.789C155.368 167.36 154.097 168.632 152.526 168.632H95.6841C94.114 168.632 92.842 167.36 92.842 165.789C92.842 164.219 94.114 162.947 95.6841 162.947H152.526C154.096 162.947 155.368 164.219 155.368 165.789ZM85.642 165.789C85.642 167.36 84.3701 168.632 82.8 168.632H82.421C80.8509 168.632 79.579 167.36 79.579 165.789C79.579 164.219 80.8509 162.947 82.421 162.947H82.8C84.3701 162.947 85.642 164.219 85.642 165.789ZM73.8946 165.789C73.8946 167.36 72.6226 168.632 71.0525 168.632H70.6736C69.1035 168.632 67.8315 167.36 67.8315 165.789C67.8315 164.219 69.1035 162.947 70.6736 162.947H71.0525C72.6226 162.947 73.8946 164.219 73.8946 165.789Z" fill="#4C4C4C"/>
</g>
<defs>
<clipPath id="clip0_1901_6373">
<rect width="180" height="180" fill="white"/>
</clipPath>
</defs>
</svg>
