<svg width="180" height="180" viewBox="0 0 180 180" fill="none" xmlns="http://www.w3.org/2000/svg">
<path d="M104.239 50.7998H104.071C102.518 50.7998 101.343 52.0592 101.343 53.6123C101.343 55.1654 102.686 56.4248 104.239 56.4248C105.792 56.4248 107.052 55.1654 107.052 53.6123C107.052 52.0592 105.792 50.7998 104.239 50.7998Z" fill="#FCCE5E"/>
<path d="M127.065 50.7998H126.908C125.355 50.7998 124.174 52.0592 124.174 53.6123C124.174 55.1654 125.511 56.4248 127.065 56.4248C128.618 56.4248 129.877 55.1654 129.877 53.6123C129.877 52.0592 128.618 50.7998 127.065 50.7998Z" fill="#FCCE5E"/>
<path d="M149.901 50.7998H149.734C148.181 50.7998 147.005 52.0592 147.005 53.6123C147.005 55.1654 148.348 56.4248 149.901 56.4248C151.455 56.4248 152.714 55.1654 152.714 53.6123C152.714 52.0592 151.455 50.7998 149.901 50.7998Z" fill="#FCCE5E"/>
<path d="M127.112 129.17C112.63 121.003 108.293 121.67 97.2507 127.913C91.5847 131.679 84.7621 129.382 72.9049 119.726C70.5772 117.829 68.2384 115.714 65.9614 113.448C63.6858 111.163 61.5725 108.825 59.6771 106.495C50.7384 95.5267 48.3048 85.5168 51.2081 82.4998C59.7637 73.3001 57.822 65.7458 50.2702 52.3574C45.7218 43.7537 40.7271 35.1899 34.0792 33.2248C29.2588 31.809 22.1013 35.5181 19.97 36.9328C14.4878 40.5843 9.28162 47.0429 6.3825 53.7901C1.05 66.2033 2.46441 81.1639 5.56688 91.0267C10.6631 107.196 22.895 125.919 38.2897 141.113C53.4893 156.515 72.2127 168.744 88.375 173.826C93.4808 175.437 99.9533 176.595 106.736 176.595C113.046 176.595 119.626 175.593 125.615 173.02C132.361 170.116 138.816 164.91 142.458 159.434C143.875 157.31 147.598 150.154 146.166 145.313C144.212 138.677 135.648 133.681 127.112 129.17ZM124.416 134.106C129.625 136.86 139.322 141.986 140.77 146.907C141.067 147.909 140.706 149.736 140.04 151.635L101.989 131.697C109.145 127.734 112.043 127.128 124.416 134.106ZM32.4878 38.62C37.4165 40.0772 42.5431 49.7752 45.3337 55.0529C52.7061 68.1226 52.6827 72.2468 47.942 77.7157L27.4161 39.4756C28.9798 38.8973 30.5236 38.516 31.632 38.516C31.9591 38.5157 32.2474 38.5489 32.4878 38.62ZM123.393 167.852C112.375 172.588 98.5552 171.141 90.0642 168.461C74.7313 163.639 56.8677 151.933 42.2807 137.15C42.2711 137.14 42.263 137.132 42.2531 137.122C27.4765 122.541 15.7667 104.676 10.9326 89.3373C8.26153 80.8449 6.82097 67.0212 11.5519 56.0089C13.9259 50.4837 18.0552 45.2395 22.436 42.0926L44.7194 83.6102C43.4926 90.2848 47.3038 100.215 55.3158 110.048C57.3276 112.52 59.5688 115 61.9845 117.425C64.4016 119.833 66.8802 122.074 69.3521 124.087C78.0368 131.161 87.1561 137.098 95.696 134.751L137.52 156.666C134.406 161.157 129.044 165.42 123.393 167.852Z" fill="black"/>
<path d="M171.436 30.2938C158.581 5.79154 128.182 -3.68546 103.67 9.16007C79.1677 22.0197 69.6865 52.4214 82.5363 76.9292C83.4675 78.7048 84.5303 80.4586 85.7071 82.1641L78.11 95.1857C77.5798 96.0936 77.6003 97.2223 78.1648 98.1096C78.7265 98.9981 79.7387 99.4911 80.7863 99.4045L102.583 97.4776C110.204 101.716 118.586 103.841 126.981 103.841C134.961 103.841 142.952 101.919 150.305 98.0612C174.809 85.2033 184.289 54.803 171.436 30.2938ZM147.692 93.0806C134.059 100.233 117.957 99.8908 104.617 92.1659C104.189 91.9173 103.701 91.7868 103.208 91.7868C103.126 91.7868 103.044 91.791 102.961 91.7978L85.7099 93.3222L91.4845 83.425C92.0518 82.4513 91.9843 81.2332 91.3116 80.3295C89.8682 78.3892 88.5924 76.3662 87.5186 74.3173C76.108 52.5561 84.5247 25.5614 106.283 14.141C128.046 2.7276 155.038 11.1513 166.455 32.9071C177.867 54.6697 169.449 81.6629 147.692 93.0806Z" fill="#FCCE5E"/>
</svg>
