<svg width="180" height="180" viewBox="0 0 180 180" fill="none" xmlns="http://www.w3.org/2000/svg">
<path d="M30 172.5H150C151.989 172.5 153.897 171.71 155.303 170.303C156.71 168.897 157.5 166.989 157.5 165V45C157.5 43.011 156.709 41.1037 155.303 39.6975L125.303 9.6975C123.896 8.29088 121.989 7.50042 120 7.5H30C28.0109 7.5 26.1032 8.29018 24.6967 9.6967C23.2902 11.1032 22.5 13.0109 22.5 15V165C22.5 166.989 23.2902 168.897 24.6967 170.303C26.1032 171.71 28.0109 172.5 30 172.5ZM37.5 22.5H116.895L142.5 48.105V157.5H37.5V22.5ZM97.5 120V127.5C97.5 129.489 96.7098 131.397 95.3033 132.803C93.8968 134.21 91.9891 135 90 135C88.0109 135 86.1032 134.21 84.6967 132.803C83.2902 131.397 82.5 129.489 82.5 127.5V120C82.5 118.011 83.2902 116.103 84.6967 114.697C86.1032 113.29 88.0109 112.5 90 112.5C91.9891 112.5 93.8968 113.29 95.3033 114.697C96.7098 116.103 97.5 118.011 97.5 120ZM112.155 64.2825C113.092 69.4425 112.282 74.7677 109.852 79.415C107.421 84.0623 103.51 87.7661 98.7375 89.94C98.3158 90.2433 97.98 90.6508 97.7631 91.1228C97.5462 91.5948 97.4555 92.115 97.5 92.6325V97.5C97.5 99.4891 96.7098 101.397 95.3033 102.803C93.8968 104.21 91.9891 105 90 105C88.0109 105 86.1032 104.21 84.6967 102.803C83.2902 101.397 82.5 99.4891 82.5 97.5V92.6325C82.4238 89.1966 83.35 85.8128 85.1653 82.8947C86.9807 79.9765 89.6067 77.6502 92.7225 76.2C94.434 75.3623 95.8184 73.9792 96.6575 72.2683C97.4966 70.5575 97.7429 68.6162 97.3575 66.75C97.1234 65.1794 96.4282 63.7136 95.36 62.5386C94.2918 61.3636 92.8988 60.5323 91.3575 60.15C90.3383 59.9444 89.2857 59.9726 88.279 60.2324C87.2722 60.4922 86.3374 60.9769 85.545 61.65C84.5783 62.4844 83.8081 63.5223 83.2895 64.6892C82.7708 65.8561 82.5166 67.1233 82.545 68.4C82.545 70.3891 81.7548 72.2968 80.3483 73.7033C78.9418 75.1098 77.0341 75.9 75.045 75.9C73.0559 75.9 71.1482 75.1098 69.7417 73.7033C68.3352 72.2968 67.545 70.3891 67.545 68.4C67.5219 64.9202 68.2675 61.4783 69.7287 58.32C71.1898 55.1618 73.3304 52.3652 75.9975 50.13C78.4881 48.0589 81.4035 46.5607 84.5374 45.7416C87.6714 44.9225 90.947 44.8025 94.1325 45.39C98.6893 46.3586 102.848 48.6803 106.063 52.0512C109.279 55.422 111.402 59.6851 112.155 64.2825Z" fill="#FCCE5E"/>
</svg>
