<svg width="264" height="264" viewBox="0 0 264 264" fill="none" xmlns="http://www.w3.org/2000/svg">
<g clip-path="url(#clip0_1898_5230)">
<path d="M172.574 223.374C223.048 200.956 245.792 141.865 223.374 91.3914C200.956 40.9174 141.865 18.1735 91.3912 40.5914C40.9172 63.0093 18.1733 122.1 40.5912 172.574C63.0091 223.048 122.1 245.792 172.574 223.374Z" fill="#FF5419" fill-opacity="0.46"/>
<path d="M187.411 215.226C227.289 188.741 243.458 136.611 223.374 91.3912C220.739 85.4597 217.593 79.9165 214.019 74.7792L162.041 54.7729L150.144 120.647L127.095 111.776L81.3979 163.94L137.493 185.635L132.834 194.22L187.411 215.226Z" fill="#C92F00" fill-opacity="0.25"/>
<path d="M147.386 189.742L137.542 194.115C134.846 195.312 131.679 194.414 130.012 191.981L108.073 159.949C105.913 156.795 107.143 152.454 110.637 150.902L120.481 146.53C123.177 145.332 126.344 146.23 128.011 148.664L149.95 180.695C152.111 183.849 150.881 188.19 147.386 189.742Z" fill="#272525"/>
<path d="M197.473 138.623L138.632 146.173L117.313 98.1715L162.365 59.5786L197.473 138.623Z" fill="white"/>
<path d="M128.036 122.314L138.633 146.173L197.473 138.622L179.983 99.2423L128.036 122.314Z" fill="#D0D1D3"/>
<path d="M199.025 143.624C196.941 144.549 194.5 143.61 193.574 141.525L157.597 60.5236C156.672 58.439 157.611 55.9984 159.695 55.0726C161.78 54.1467 164.221 55.0861 165.146 57.1707L201.123 138.173C202.049 140.257 201.11 142.698 199.025 143.624Z" fill="#D0D1D3"/>
<path d="M175.65 101.167L193.576 141.525C194.501 143.61 196.942 144.549 199.027 143.624C201.111 142.698 202.05 140.257 201.125 138.173L183.199 97.8141L175.65 101.167Z" fill="#A6A8AA"/>
<path d="M89.9674 163.736L106.231 156.512L87.9176 115.279L71.6535 122.502C66.0204 125.004 63.4822 131.599 65.9841 137.232L75.2378 158.066C77.7399 163.7 84.3344 166.238 89.9674 163.736Z" fill="#FCCE5E"/>
<path d="M70.6738 147.792L75.2373 158.067C77.7392 163.7 84.3337 166.238 89.9668 163.736L106.231 156.512L97.1373 136.038L70.6738 147.792Z" fill="#FCCE5E"/>
<path d="M138.633 146.173L107.03 160.209C104.601 161.288 101.757 160.193 100.679 157.764L83.2658 118.559C82.187 116.13 83.2817 113.287 85.7103 112.208L117.313 98.1715L138.633 146.173Z" fill="#808183"/>
<path d="M92.0352 138.304L100.678 157.764C101.757 160.193 104.601 161.288 107.03 160.209L138.632 146.173L128.036 122.314L92.0352 138.304Z" fill="#59595B"/>
</g>
<defs>
<clipPath id="clip0_1898_5230">
<rect width="200" height="200" fill="white" transform="translate(0 81.1826) rotate(-23.9483)"/>
</clipPath>
</defs>
</svg>
