<svg width="338" height="312" viewBox="0 0 338 312" fill="none" xmlns="http://www.w3.org/2000/svg">
<path d="M51.643 96.2367L74.5349 155.461L67.3009 160.4L17.4465 126.789L16.7497 127.111L38.0383 172.371L29.5297 176.843L5.44598 118.7L25.9198 107.627L61.3024 144.029L61.9992 143.706L43.1344 100.708L51.643 96.2367ZM81.5587 95.1776C98.2214 94.299 108.49 98.0407 112.365 106.403C114.383 110.758 114.6 114.501 113.018 117.632C111.467 120.679 107.353 123.749 100.675 126.843C96.4357 128.808 92.8036 130.103 89.7784 130.728C89.9397 133.969 90.7064 137.07 92.0786 140.031C94.8532 139.169 97.8955 137.971 101.205 136.437C107.245 133.639 112.491 130.044 116.946 125.652L123.474 132.891C119.854 136.19 115.401 139.065 110.117 141.513C100.71 145.872 93.0059 147.361 87.0052 145.98C84.1657 142.287 81.8984 138.612 80.2033 134.953C76.8131 127.637 75.3561 120.306 75.8324 112.961C76.3667 105.589 78.2755 99.6614 81.5587 95.1776ZM89.6236 125.827C90.4054 125.536 92.3061 124.69 95.3257 123.291C98.4033 121.865 101.728 119.831 105.3 117.188C104.963 116.004 104.539 114.86 104.028 113.757C102.413 110.273 99.9082 107.378 96.5121 105.072C92.539 111.568 90.2429 118.487 89.6236 125.827ZM128.088 73.6184C144.751 72.7397 155.019 76.4814 158.894 84.8434C160.912 89.1986 161.13 92.9419 159.547 96.0732C157.996 99.1195 153.882 102.19 147.204 105.284C142.965 107.248 139.333 108.543 136.308 109.169C136.469 112.41 137.236 115.511 138.608 118.472C141.382 117.61 144.425 116.412 147.735 114.878C153.774 112.08 159.021 108.485 163.475 104.093L170.003 111.331C166.383 114.631 161.931 117.505 156.646 119.954C147.239 124.313 139.535 125.801 133.534 124.42C130.695 120.728 128.428 117.052 126.732 113.394C123.342 106.077 121.885 98.7465 122.362 91.4017C122.896 84.0299 124.805 78.1022 128.088 73.6184ZM136.153 104.268C136.935 103.976 138.835 103.131 141.855 101.732C144.933 100.306 148.257 98.2714 151.829 95.6288C151.492 94.4447 151.068 93.3011 150.557 92.1977C148.943 88.7136 146.437 85.8186 143.041 83.5126C139.068 90.009 136.772 96.9274 136.153 104.268ZM194.512 102.303C193.118 102.949 191.849 103.255 190.705 103.221C187.534 102.009 184.271 99.5358 180.918 95.7994C177.622 92.0361 174.737 87.4833 172.262 82.1409C169.06 75.2307 168.041 69.5308 169.205 65.0412C170.428 60.5247 174.378 56.7194 181.056 53.6251C185.179 51.7148 189.65 50.6308 194.468 50.3733L184.484 32.2514L201.792 20.74L225.357 86.2121L217.097 90.9916L209.023 76.5344L208.326 76.8573C208.698 89.3816 204.093 97.8635 194.512 102.303ZM186.875 57.2773C184.726 58.2729 183.085 59.5269 181.952 61.0395C183.077 65.5971 184.675 70.1116 186.746 74.583C191.051 83.8741 194.525 89.8475 197.166 92.5031C199.796 90.7202 201.858 87.3311 203.353 82.3359C204.118 79.7243 204.229 76.4633 203.687 72.5529C203.203 68.6156 201.938 64.4403 199.893 60.0271C199.49 59.156 198.799 57.8183 197.822 56.0139C194.24 55.1342 190.591 55.5553 186.875 57.2773ZM121.502 276.464L108.925 254.571L91.2321 264.568L98.5454 285.832L90.2386 290.739L58.4749 235.202L77.7292 224.693L88.9083 257.497L106.149 249.721L89.7388 220.927L108.993 210.419L129.809 271.557L121.502 276.464ZM142.006 208.242C158.669 207.363 168.938 211.105 172.812 219.467C174.83 223.822 175.048 227.566 173.466 230.697C171.915 233.743 167.8 236.813 161.122 239.908C156.883 241.872 153.251 243.167 150.226 243.793C150.387 247.033 151.154 250.134 152.526 253.096C155.301 252.233 158.343 251.035 161.653 249.502C167.692 246.703 172.939 243.108 177.394 238.717L183.922 245.955C180.301 249.255 175.849 252.129 170.565 254.577C161.158 258.936 153.454 260.425 147.453 259.044C144.613 255.351 142.346 251.676 140.651 248.018C137.261 240.701 135.804 233.37 136.28 226.025C136.814 218.654 138.723 212.726 142.006 208.242ZM150.071 238.892C150.853 238.6 152.754 237.755 155.773 236.355C158.851 234.929 162.176 232.895 165.748 230.252C165.411 229.068 164.987 227.925 164.476 226.821C162.861 223.337 160.356 220.442 156.96 218.136C152.987 224.633 150.691 231.551 150.071 238.892ZM200.791 239.62L168.177 180.88L185.486 169.368L209.051 234.841L200.791 239.62ZM240.792 164.163C241.895 163.651 243.05 163.328 244.257 163.192C247.504 164.72 250.937 167.715 254.556 172.175C258.205 176.55 261.469 181.844 264.348 188.057C267.2 194.213 268.015 199.549 266.793 204.065C265.628 208.555 261.707 212.347 255.029 215.441C250.267 217.647 245.31 218.745 240.156 218.735L246.602 238.814L238.865 243.351L207.994 183.803L225.302 172.292L230.489 188.51L231.099 188.228C231.108 182.158 231.934 177.014 233.577 172.796C235.193 168.52 237.598 165.643 240.792 164.163ZM249.13 211.615C251.278 210.619 252.919 209.365 254.052 207.852C252.852 202.977 251.336 198.566 249.507 194.617C247.65 190.61 245.767 187.003 243.858 183.797C241.949 180.59 240.467 178.456 239.41 177.394C238.375 178.508 237.618 179.388 237.141 180.032C236.637 180.618 235.997 181.902 235.223 183.884C234.421 185.807 234.002 187.87 233.965 190.074C233.902 196.028 235.337 203.616 238.27 212.838C241.851 213.717 245.471 213.31 249.13 211.615ZM310.338 161.776L292.936 128.786L287.872 118.542L297.54 114.062L302.082 124.549L315.999 159.152L310.338 161.776ZM323.14 181.871C320.005 183.324 316.47 182.317 314.855 178.833C313.241 175.349 314.677 171.827 317.813 170.374C320.862 168.961 324.477 170.142 326.092 173.627C327.706 177.111 326.189 180.459 323.14 181.871Z" fill="#FCCE5E"/>
</svg>
