<svg width="180" height="180" viewBox="0 0 180 180" fill="none" xmlns="http://www.w3.org/2000/svg">
<path d="M133.94 80.2889C133.94 98.5075 122.931 114.164 107.207 120.958V146.51H72.0965V120.958C56.3673 114.164 45.3643 98.5075 45.3643 80.2889C45.3643 55.827 65.19 36.0068 89.652 36.0068C114.108 36.0068 133.94 55.827 133.94 80.2889Z" fill="#FCCE5E"/>
<path d="M72.0957 157.019H107.207V172.236H72.0957V157.019Z" fill="#5FCEFF"/>
<path d="M107.207 150.444H72.0956C71.0523 150.444 70.0518 150.03 69.3141 149.292C68.5764 148.554 68.1619 147.554 68.1619 146.51V123.467C60.1288 119.472 53.3704 113.313 48.6476 105.685C43.9248 98.057 41.425 89.2619 41.4297 80.29C41.4297 53.7033 63.0616 32.0742 89.6511 32.0742C116.241 32.0742 137.873 53.7039 137.873 80.29C137.877 89.2617 135.377 98.0564 130.654 105.684C125.931 113.313 119.173 119.471 111.141 123.467V146.51C111.141 147.554 110.726 148.554 109.988 149.292C109.251 150.03 108.25 150.444 107.207 150.444ZM76.0293 142.577H103.273V120.958C103.273 120.19 103.498 119.439 103.919 118.797C104.341 118.156 104.942 117.652 105.647 117.347C112.883 114.225 119.046 109.051 123.375 102.465C127.704 95.8798 130.009 88.1705 130.006 80.2894C130.006 58.0411 111.903 39.941 89.6511 39.941C67.3999 39.941 49.2971 58.0411 49.2971 80.2894C49.2931 88.1706 51.598 95.8802 55.9269 102.466C60.2558 109.052 66.4192 114.225 73.6556 117.347C74.3606 117.652 74.961 118.156 75.3828 118.797C75.8046 119.439 76.0294 120.19 76.0293 120.958V142.577ZM107.207 176.17H72.0956C71.0523 176.17 70.0518 175.756 69.3141 175.018C68.5764 174.28 68.1619 173.28 68.1619 172.237V157.019C68.1619 155.976 68.5764 154.975 69.3141 154.237C70.0518 153.5 71.0523 153.085 72.0956 153.085H107.207C108.25 153.085 109.25 153.5 109.988 154.237C110.726 154.975 111.14 155.976 111.14 157.019V172.237C111.14 173.28 110.726 174.28 109.988 175.018C109.25 175.756 108.25 176.17 107.207 176.17ZM76.0293 168.303H103.273V160.953H76.0293V168.303Z" fill="#4F46A3"/>
<path d="M100.239 93.7929C95.0957 93.7929 92.863 89.0483 91.3857 85.9086C90.9221 84.9235 90.1915 83.3697 89.6498 82.7173C89.1081 83.3697 88.3753 84.9246 87.9111 85.9114C86.4337 89.0499 84.2005 93.7929 79.0586 93.7929C73.9156 93.7929 71.6829 89.0483 70.2056 85.9086C69.6919 84.8167 68.8496 83.0275 68.3017 82.5386C67.2727 82.496 66.3016 82.0516 65.5966 81.3009C64.8917 80.5501 64.5093 79.5529 64.5316 78.5234C64.5538 77.4938 64.9788 76.514 65.7155 75.7944C66.4521 75.0748 67.4416 74.6727 68.4714 74.6746C73.6144 74.6746 75.847 79.4192 77.3244 82.5588C77.7875 83.5433 78.518 85.0949 79.0586 85.7485C79.5998 85.0949 80.3298 83.5445 80.7928 82.5599C82.2713 79.4197 84.5051 74.6746 89.6515 74.6746C94.7945 74.6746 97.0271 79.4192 98.5045 82.5588C98.9676 83.5433 99.6975 85.0949 100.239 85.7485C100.78 85.0949 101.51 83.5433 101.973 82.5588C103.45 79.4192 105.683 74.6746 110.826 74.6746C111.856 74.6726 112.845 75.0745 113.582 75.7941C114.319 76.5137 114.744 77.4935 114.766 78.5231C114.789 79.5527 114.406 80.55 113.701 81.3008C112.996 82.0516 112.025 82.496 110.996 82.5386C110.447 83.0269 109.605 84.8162 109.092 85.9086C107.614 89.0483 105.382 93.7929 100.239 93.7929ZM89.6515 25.0713C88.6082 25.0713 87.6076 24.6569 86.8699 23.9191C86.1322 23.1814 85.7178 22.1809 85.7178 21.1376V9.62314C85.7178 8.57986 86.1322 7.57931 86.8699 6.8416C87.6076 6.10389 88.6082 5.68945 89.6515 5.68945C90.6948 5.68945 91.6953 6.10389 92.433 6.8416C93.1707 7.57931 93.5852 8.57986 93.5852 9.62314V21.1376C93.5852 22.1809 93.1707 23.1814 92.433 23.9191C91.6953 24.6569 90.6948 25.0713 89.6515 25.0713ZM40.6827 48.325C40.1658 48.3257 39.6539 48.2242 39.1764 48.0263C38.6989 47.8284 38.2653 47.538 37.9004 47.1719L29.7633 39.0292C29.038 38.2888 28.6342 37.292 28.6397 36.2556C28.6452 35.2191 29.0595 34.2267 29.7926 33.494C30.5258 32.7614 31.5184 32.3476 32.5549 32.3428C33.5913 32.3379 34.5878 32.7423 35.3278 33.468L43.4649 41.6108C44.0147 42.161 44.3891 42.8619 44.5407 43.6249C44.6922 44.3878 44.6142 45.1786 44.3164 45.8972C44.0186 46.6158 43.5145 47.23 42.8677 47.6622C42.2209 48.0943 41.4605 48.325 40.6827 48.325ZM60.246 30.4222C59.4677 30.4223 58.7068 30.1916 58.0596 29.7591C57.4124 29.3267 56.908 28.712 56.6102 27.9929L52.2101 17.3719C52.0123 16.8947 51.9105 16.3832 51.9104 15.8666C51.9104 15.35 52.0121 14.8385 52.2097 14.3612C52.4074 13.8839 52.6972 13.4502 53.0625 13.085C53.4278 12.7197 53.8615 12.4299 54.3387 12.2323C54.816 12.0345 55.3275 11.9327 55.8441 11.9327C56.3607 11.9326 56.8722 12.0343 57.3495 12.232C57.8268 12.4297 58.2605 12.7194 58.6257 13.0847C58.991 13.45 59.2807 13.8837 59.4784 14.361L63.8785 24.982C64.0763 25.4592 64.1781 25.9707 64.1782 26.4873C64.1782 27.0039 64.0765 27.5154 63.8788 27.9927C63.6811 28.47 63.3914 28.9037 63.0261 29.2689C62.6608 29.6342 62.2271 29.924 61.7498 30.1216C61.2732 30.3198 60.7622 30.422 60.246 30.4222ZM139.986 47.2011C139.208 47.2009 138.448 46.9702 137.801 46.5381C137.154 46.106 136.65 45.4919 136.353 44.7734C136.055 44.0549 135.977 43.2643 136.128 42.5014C136.28 41.7385 136.654 41.0377 137.204 40.4874L145.34 32.3447C145.705 31.9792 146.139 31.6893 146.616 31.4914C147.093 31.2935 147.605 31.1915 148.121 31.1913C148.638 31.1911 149.149 31.2927 149.627 31.4902C150.104 31.6877 150.538 31.9773 150.903 32.3424C151.268 32.7076 151.558 33.1412 151.756 33.6184C151.954 34.0956 152.056 34.6072 152.056 35.1238C152.056 35.6404 151.955 36.152 151.757 36.6293C151.56 37.1067 151.27 37.5404 150.905 37.9058L142.768 46.048C142.403 46.4141 141.97 46.7045 141.492 46.9024C141.015 47.1003 140.503 47.2018 139.986 47.2011ZM119.299 30.4222C118.651 30.4221 118.014 30.2623 117.444 29.957C116.873 29.6517 116.387 29.2104 116.028 28.6722C115.669 28.134 115.448 27.5155 115.385 26.8715C115.322 26.2275 115.419 25.5779 115.667 24.9803L120.073 14.3593C120.479 13.4052 121.246 12.65 122.206 12.2581C123.166 11.8662 124.242 11.8692 125.2 12.2666C126.157 12.6639 126.92 13.4234 127.32 14.3798C127.721 15.3362 127.728 16.4122 127.34 17.3736L122.933 27.9946C122.635 28.7132 122.131 29.3274 121.484 29.7595C120.837 30.1916 120.077 30.4222 119.299 30.4222Z" fill="#4F46A3"/>
<path d="M56.748 77.5988C56.1608 77.5992 55.5809 77.4681 55.0509 77.2153C54.521 76.9624 54.0543 76.5941 53.6852 76.1374C53.316 75.6807 53.0538 75.1472 52.9177 74.576C52.7816 74.0047 52.7751 73.4103 52.8986 72.8362C53.4547 70.257 54.2775 67.7425 55.3538 65.3335C55.7801 64.3815 56.5669 63.6376 57.5413 63.2652C58.5158 62.8928 59.5982 62.9225 60.5508 63.3476C61.5031 63.7736 62.2473 64.5603 62.6197 65.5349C62.9921 66.5094 62.9623 67.592 62.5367 68.5445C61.6832 70.4542 61.0308 72.4475 60.5901 74.4923C60.4008 75.371 59.9163 76.1585 59.2173 76.7236C58.5183 77.2888 57.6469 77.5976 56.748 77.5988Z" fill="white"/>
<path d="M66.0443 60.5746C65.266 60.5747 64.5052 60.3438 63.8581 59.9113C63.211 59.4788 62.7068 58.864 62.4092 58.1448C62.1116 57.4256 62.0341 56.6343 62.1864 55.8711C62.3387 55.1078 62.7141 54.4069 63.2649 53.857C70.4849 46.6493 80.0803 42.6797 90.2843 42.6797C90.8009 42.6797 91.3124 42.7814 91.7896 42.9791C92.2669 43.1768 92.7005 43.4666 93.0658 43.8318C93.4311 44.1971 93.7208 44.6308 93.9185 45.108C94.1162 45.5853 94.218 46.0968 94.218 46.6134C94.218 47.13 94.1162 47.6415 93.9185 48.1187C93.7208 48.596 93.4311 49.0296 93.0658 49.3949C92.7005 49.7602 92.2669 50.0499 91.7896 50.2476C91.3124 50.4453 90.8009 50.5471 90.2843 50.5471C82.1798 50.5471 74.5585 53.6996 68.8238 59.4248C68.4589 59.7899 68.0256 60.0794 67.5486 60.2767C67.0717 60.474 66.5605 60.5753 66.0443 60.5746Z" fill="white"/>
</svg>
