<svg width="180" height="180" viewBox="0 0 180 180" fill="none" xmlns="http://www.w3.org/2000/svg">
<path d="M95.625 11.25V22.6209C100.47 22.7686 105.964 23.6588 112.247 25.4883C119.08 27.4823 124.744 30.7786 129.232 35.3756C133.703 39.9839 135.955 44.7412 135.955 49.6519C135.955 54.0745 134.335 57.8306 131.082 60.9398C127.82 64.0491 124.013 65.603 119.673 65.603C115.768 65.603 112.483 64.4386 109.797 62.093C107.128 59.7642 105.798 56.8477 105.798 53.3419C105.798 51.1059 106.93 48.3314 109.204 45.0197C111.27 42.0919 112.296 40.005 112.296 38.7577C112.296 36.8845 110.786 35.1042 107.775 33.4237C105 31.8797 100.853 31.0837 95.6236 30.8419V78.0005C111.136 83.8898 122.074 89.4375 128.253 94.6223C136.495 101.651 140.625 109.803 140.625 119.07C140.625 128.891 136.593 137.319 128.524 144.345C120.712 151.156 109.699 155.424 95.625 157.269V168.75H84.375V157.5H83.0011C70.6191 157.5 60.2592 154.831 51.9103 149.475C43.5502 144.129 39.375 137.104 39.375 128.392C39.375 123.294 41.0062 119.223 44.2589 116.17C47.5059 113.127 51.5588 111.606 56.4047 111.606C61.0298 111.606 64.7986 112.859 67.7039 115.38C70.5994 117.901 72.0436 121.153 72.0436 125.131C72.0436 130.421 69.5827 134.551 64.6664 137.54C62.7708 138.655 61.6345 139.468 61.238 139.968C60.8414 140.469 60.6445 141.029 60.6445 141.643C60.6445 143.324 62.0564 144.813 64.8858 146.121C68.7909 147.988 74.8223 149.048 83.0025 149.296L84.375 149.238V100.74L83.0011 100.299C69.7514 95.2073 60.8302 90.9998 56.1937 87.6656C51.5573 84.3483 47.9264 80.228 45.2841 75.3117C42.6361 70.4011 41.3283 64.9898 41.3283 59.0794C41.3283 49.4986 45.1294 41.303 52.7709 34.4925C60.4125 27.682 70.4714 23.6869 83.0011 22.5H84.375V11.25H95.625ZM84.375 73.762V30.877L83.0011 30.8995C75.8377 31.5858 70.103 33.8161 65.797 37.5848C61.5009 41.3648 59.348 45.7088 59.348 50.6419C59.348 59.8106 67.2202 67.3467 83.0011 73.2459L84.375 73.762ZM95.625 148.513C102.826 147.513 108.814 145.26 113.335 141.498C118.131 137.493 120.554 133.061 120.554 128.205C120.554 123.788 118.873 119.8 115.511 116.214C112.302 112.802 105.595 108.897 95.625 104.535V148.513ZM106.875 0H95.625H84.375H73.125V11.25V12.6127C62.1225 14.8922 52.7892 19.4077 45.2855 26.093C35.1942 35.0902 30.0797 46.1869 30.0797 59.0794C30.0797 66.8686 31.8656 74.1248 35.3812 80.6513C38.8308 87.068 43.6317 92.5116 49.6477 96.8119C51.2353 97.9552 53.1352 99.135 55.3767 100.371C48.1205 100.596 41.6377 103.206 36.5625 107.962C31.0416 113.148 28.125 120.212 28.125 128.391C28.125 137.163 31.2019 149.588 45.8508 158.954C53.602 163.925 62.7483 167.023 73.125 168.204V168.75V180H84.375H95.625H106.875V168.75V166.679C118.724 163.965 128.468 159.318 135.917 152.824C146.503 143.608 151.875 132.248 151.875 119.07C151.875 106.402 146.382 95.3016 135.555 86.0667C131.896 82.9955 127.095 79.9313 121.058 76.822C127.732 76.4986 133.853 73.8394 138.845 69.0877C144.316 63.8522 147.205 57.1345 147.205 49.6533C147.205 41.7544 143.876 34.3111 137.306 27.5428C131.445 21.5381 124.085 17.2209 115.4 14.6883C112.483 13.8431 109.638 13.1512 106.875 12.6239V11.25V0ZM106.875 132.204V123.497C107.073 123.673 107.215 123.816 107.315 123.92C109.067 125.788 109.304 127.133 109.304 128.205C109.304 129.364 108.485 130.71 106.875 132.204Z" fill="#FCCE5E"/>
</svg>
