<svg width="180" height="180" viewBox="0 0 180 180" fill="none" xmlns="http://www.w3.org/2000/svg">
<g clip-path="url(#clip0_1901_6231)">
<path d="M142.5 26.25H37.5C33.375 26.25 30 29.625 30 33.75V56.25C30 60.375 33.375 63.75 37.5 63.75H142.5C146.625 63.75 150 60.375 150 56.25V33.75C150 29.625 146.625 26.25 142.5 26.25ZM142.5 71.25H37.5C33.375 71.25 30 74.625 30 78.75V101.25C30 105.375 33.375 108.75 37.5 108.75H131.625C136.5 103.875 150 105.375 150 101.25V78.75C150 74.625 146.625 71.25 142.5 71.25ZM129 116.25H37.5C33.375 116.25 30 119.625 30 123.75V146.25C30 150.375 33.375 153.75 37.5 153.75H142.5C146.625 153.75 150 150.375 150 146.25V137.25C150 125.625 140.625 116.25 129 116.25Z" fill="#D1C4E9"/>
<path d="M161.25 172.5L153.75 180H146.25L138.75 172.5V132.75H161.25V150L157.5 153.75L161.25 157.5V161.25L157.5 165L161.25 168.75V172.5Z" fill="#FCCE5E"/>
<path d="M178.125 106.875C177 103.5 174.375 100.875 170.625 100.125C165.75 99 158.25 97.5 150 97.5C141.75 97.5 134.25 99 129.375 99.75C125.625 100.5 123 103.125 121.875 106.5C121.125 110.25 120 114.75 120 120C120 125.25 121.125 129.75 121.875 133.125C123 136.5 125.625 139.125 129.375 139.875C134.25 141 141.375 142.125 150 142.125C158.625 142.125 165.75 140.625 170.625 139.875C174.375 139.125 177 136.5 178.125 133.125C179.25 129.75 180 125.25 180 120C180 114.75 178.875 110.25 178.125 106.875ZM160.875 116.25H139.5C137.25 116.25 135.375 114.375 135.375 112.125V106.875C135.375 105.75 142.125 104.625 150.375 104.625C158.625 104.625 165.375 105.75 165.375 106.875V112.125C165 114.375 163.125 116.25 160.875 116.25Z" fill="#FCCE5E"/>
<path d="M146.25 139.125H150V180H146.25V139.125Z" fill="#D68600" fill-opacity="0.3"/>
</g>
<defs>
<clipPath id="clip0_1901_6231">
<rect width="180" height="180" fill="white"/>
</clipPath>
</defs>
</svg>
