<svg width="180" height="180" viewBox="0 0 180 180" fill="none" xmlns="http://www.w3.org/2000/svg">
<path d="M154.8 74.3252H140.595V70.0556C140.595 67.6774 139.653 65.3958 137.976 63.7094C136.299 62.0231 134.023 61.069 131.645 61.0556C122.962 61.0304 107.503 61.034 91.8002 61.0556V52.9412L125.298 36.5252C125.603 36.3779 125.859 36.1477 126.039 35.8612C126.218 35.5747 126.314 35.2434 126.314 34.9052C126.314 34.5671 126.218 34.2358 126.039 33.9493C125.859 33.6628 125.603 33.4326 125.298 33.2852L90.7922 16.3652C90.5457 16.2444 90.2747 16.1816 90.0002 16.1816C89.7256 16.1816 89.4547 16.2444 89.2082 16.3652L54.7202 33.2888C54.4159 33.4362 54.1592 33.6664 53.9796 33.9529C53.8 34.2394 53.7048 34.5707 53.7048 34.9088C53.7048 35.247 53.8 35.5783 53.9796 35.8648C54.1592 36.1513 54.4159 36.3815 54.7202 36.5288L88.2182 52.9448V61.0556L48.3806 61.1096C46.0011 61.1211 43.723 62.0743 42.0445 63.7609C40.366 65.4475 39.4238 67.7302 39.4238 70.1096V74.3288H25.2002C22.8132 74.3288 20.5241 75.2771 18.8362 76.9649C17.1484 78.6527 16.2002 80.9419 16.2002 83.3288V96.674C16.2002 99.061 17.1484 101.35 18.8362 103.038C20.5241 104.726 22.8132 105.674 25.2002 105.674H57.2114C59.5983 105.674 61.8875 104.726 63.5754 103.038C65.2632 101.35 66.2114 99.061 66.2114 96.674V91.778C66.2546 91.778 66.2906 91.8032 66.3374 91.8032H88.2002V122.598C82.9008 123.061 77.9849 125.553 74.4774 129.553C70.97 133.552 69.1417 138.751 69.3739 144.066C69.606 149.381 71.8805 154.4 75.7233 158.079C79.5661 161.758 84.6805 163.811 90.0002 163.811C95.3199 163.811 100.434 161.758 104.277 158.079C108.12 154.4 110.394 149.381 110.627 144.066C110.859 138.751 109.03 133.552 105.523 129.553C102.016 125.553 97.0996 123.061 91.8002 122.598V91.7996H113.789V96.6704C113.789 97.8523 114.022 99.0227 114.474 100.115C114.926 101.207 115.589 102.199 116.425 103.034C117.261 103.87 118.253 104.533 119.345 104.985C120.437 105.438 121.607 105.67 122.789 105.67H154.8C157.187 105.67 159.476 104.722 161.164 103.034C162.852 101.347 163.8 99.0574 163.8 96.6704V83.3252C163.8 80.9383 162.852 78.6491 161.164 76.9613C159.476 75.2735 157.187 74.3252 154.8 74.3252ZM136.995 74.3252H122.789C120.402 74.3252 118.113 75.2735 116.425 76.9613C114.737 78.6491 113.789 80.9383 113.789 83.3252V88.1996H66.3374C66.2906 88.1996 66.2546 88.2212 66.2114 88.2248V83.3252C66.2114 80.9383 65.2632 78.6491 63.5754 76.9613C61.8875 75.2735 59.5983 74.3252 57.2114 74.3252H43.0058V70.106C43.0058 68.6801 43.5697 67.312 44.5747 66.3003C45.5796 65.2887 46.9439 64.7156 48.3698 64.7061C66.4094 64.6772 113.609 64.6088 131.634 64.6556C133.059 64.6661 134.423 65.2396 135.427 66.2512C136.431 67.2628 136.995 68.6303 136.995 70.0556V74.3252Z" fill="#231F20"/>
<path d="M89.9997 20.0049L120.413 34.9089L89.9997 49.8129L59.5869 34.9089L89.9997 20.0049Z" fill="#FCCE5E"/>
<path d="M107.046 143.15C107.046 146.522 106.046 149.818 104.173 152.621C102.3 155.424 99.6381 157.609 96.5233 158.899C93.4086 160.189 89.9812 160.527 86.6746 159.869C83.368 159.211 80.3307 157.588 77.9468 155.204C75.5628 152.82 73.9394 149.783 73.2816 146.476C72.6239 143.169 72.9615 139.742 74.2517 136.627C75.5418 133.513 77.7267 130.85 80.5299 128.977C83.3331 127.104 86.6287 126.104 90.0001 126.104C94.5192 126.11 98.8516 127.908 102.047 131.103C105.243 134.299 107.04 138.631 107.046 143.15Z" fill="#7CC05B"/>
<path d="M57.211 77.9258H25.1998C22.2175 77.9258 19.7998 80.3434 19.7998 83.3258V96.671C19.7998 99.6533 22.2175 102.071 25.1998 102.071H57.211C60.1933 102.071 62.611 99.6533 62.611 96.671V83.3258C62.611 80.3434 60.1933 77.9258 57.211 77.9258Z" fill="#00A1D3"/>
<path d="M154.8 77.9258H122.789C119.806 77.9258 117.389 80.3434 117.389 83.3258V96.671C117.389 99.6533 119.806 102.071 122.789 102.071H154.8C157.782 102.071 160.2 99.6533 160.2 96.671V83.3258C160.2 80.3434 157.782 77.9258 154.8 77.9258Z" fill="#FF8E5A"/>
<path d="M80.9348 33.1201C80.5788 33.1201 80.2307 33.2257 79.9347 33.4235C79.6387 33.6213 79.408 33.9024 79.2718 34.2313C79.1355 34.5602 79.0999 34.9221 79.1694 35.2713C79.2388 35.6204 79.4102 35.9412 79.662 36.1929C79.9137 36.4446 80.2344 36.6161 80.5836 36.6855C80.9328 36.755 81.2947 36.7193 81.6236 36.5831C81.9525 36.4469 82.2336 36.2162 82.4314 35.9201C82.6292 35.6241 82.7348 35.2761 82.7348 34.9201C82.7348 34.4427 82.5451 33.9849 82.2076 33.6473C81.87 33.3098 81.4122 33.1201 80.9348 33.1201Z" fill="#231F20"/>
<path d="M91.89 34.9201C91.89 34.5641 91.7845 34.2161 91.5867 33.9201C91.3889 33.6241 91.1078 33.3934 90.7789 33.2571C90.45 33.1209 90.088 33.0853 89.7389 33.1547C89.3897 33.2242 89.069 33.3956 88.8172 33.6473C88.5655 33.8991 88.3941 34.2198 88.3246 34.569C88.2552 34.9181 88.2908 35.28 88.4271 35.609C88.5633 35.9379 88.794 36.219 89.09 36.4168C89.386 36.6146 89.734 36.7201 90.09 36.7201C90.5674 36.7201 91.0253 36.5305 91.3628 36.1929C91.7004 35.8553 91.89 35.3975 91.89 34.9201Z" fill="#231F20"/>
<path d="M99.0646 36.7201C99.4207 36.7201 99.7687 36.6146 100.065 36.4168C100.361 36.219 100.591 35.9379 100.728 35.609C100.864 35.28 100.9 34.9181 100.83 34.569C100.761 34.2198 100.589 33.8991 100.337 33.6473C100.086 33.3956 99.765 33.2242 99.4158 33.1547C99.0666 33.0853 98.7047 33.1209 98.3758 33.2571C98.0469 33.3934 97.7658 33.6241 97.568 33.9201C97.3702 34.2161 97.2646 34.5641 97.2646 34.9201C97.2646 35.3975 97.4543 35.8553 97.7919 36.1929C98.1294 36.5305 98.5873 36.7201 99.0646 36.7201Z" fill="#231F20"/>
<path d="M80.9348 141.347C80.5788 141.347 80.2307 141.452 79.9347 141.65C79.6387 141.848 79.408 142.129 79.2718 142.458C79.1355 142.787 79.0999 143.149 79.1694 143.498C79.2388 143.847 79.4102 144.168 79.662 144.419C79.9137 144.671 80.2344 144.843 80.5836 144.912C80.9328 144.982 81.2947 144.946 81.6236 144.81C81.9525 144.673 82.2336 144.443 82.4314 144.147C82.6292 143.851 82.7348 143.503 82.7348 143.147C82.7348 142.669 82.5451 142.211 82.2076 141.874C81.87 141.536 81.4122 141.347 80.9348 141.347Z" fill="#231F20"/>
<path d="M88.2793 143.151C88.2793 143.507 88.3849 143.855 88.5827 144.151C88.7804 144.447 89.0616 144.677 89.3905 144.814C89.7194 144.95 90.0813 144.985 90.4305 144.916C90.7796 144.847 91.1004 144.675 91.3521 144.423C91.6038 144.172 91.7753 143.851 91.8447 143.502C91.9142 143.153 91.8785 142.791 91.7423 142.462C91.606 142.133 91.3753 141.852 91.0793 141.654C90.7833 141.456 90.4353 141.351 90.0793 141.351C89.6019 141.351 89.1441 141.54 88.8065 141.878C88.4689 142.215 88.2793 142.673 88.2793 143.151Z" fill="#231F20"/>
<path d="M99.0646 144.957C99.4207 144.957 99.7687 144.852 100.065 144.654C100.361 144.456 100.591 144.175 100.728 143.846C100.864 143.517 100.9 143.155 100.83 142.806C100.761 142.457 100.589 142.136 100.337 141.885C100.086 141.633 99.765 141.461 99.4158 141.392C99.0666 141.323 98.7047 141.358 98.3758 141.494C98.0469 141.631 97.7658 141.861 97.568 142.157C97.3702 142.453 97.2646 142.801 97.2646 143.157C97.2646 143.635 97.4543 144.093 97.7919 144.43C98.1294 144.768 98.5873 144.957 99.0646 144.957Z" fill="#231F20"/>
<path d="M129.733 91.8068C130.731 91.8068 131.54 90.9977 131.54 89.9996C131.54 89.0015 130.731 88.1924 129.733 88.1924C128.735 88.1924 127.926 89.0015 127.926 89.9996C127.926 90.9977 128.735 91.8068 129.733 91.8068Z" fill="#231F20"/>
<path d="M138.88 91.8068C139.879 91.8068 140.688 90.9977 140.688 89.9996C140.688 89.0015 139.879 88.1924 138.88 88.1924C137.882 88.1924 137.073 89.0015 137.073 89.9996C137.073 90.9977 137.882 91.8068 138.88 91.8068Z" fill="#231F20"/>
<path d="M147.859 91.8068C148.857 91.8068 149.666 90.9977 149.666 89.9996C149.666 89.0015 148.857 88.1924 147.859 88.1924C146.861 88.1924 146.052 89.0015 146.052 89.9996C146.052 90.9977 146.861 91.8068 147.859 91.8068Z" fill="#231F20"/>
<path d="M32.1412 91.8068C33.1393 91.8068 33.9484 90.9977 33.9484 89.9996C33.9484 89.0015 33.1393 88.1924 32.1412 88.1924C31.1431 88.1924 30.334 89.0015 30.334 89.9996C30.334 90.9977 31.1431 91.8068 32.1412 91.8068Z" fill="#231F20"/>
<path d="M41.2916 91.8068C42.2897 91.8068 43.0988 90.9977 43.0988 89.9996C43.0988 89.0015 42.2897 88.1924 41.2916 88.1924C40.2935 88.1924 39.4844 89.0015 39.4844 89.9996C39.4844 90.9977 40.2935 91.8068 41.2916 91.8068Z" fill="#231F20"/>
<path d="M50.2672 91.8068C51.2652 91.8068 52.0744 90.9977 52.0744 89.9996C52.0744 89.0015 51.2652 88.1924 50.2672 88.1924C49.2691 88.1924 48.46 89.0015 48.46 89.9996C48.46 90.9977 49.2691 91.8068 50.2672 91.8068Z" fill="#231F20"/>
</svg>
