<svg width="180" height="180" viewBox="0 0 180 180" fill="none" xmlns="http://www.w3.org/2000/svg">
<path d="M158.315 62.6252C158.319 62.6023 158.338 62.5883 158.34 62.5654C158.337 62.5883 158.319 62.6041 158.315 62.6252Z" fill="#FDF5F2"/>
<path d="M12.8582 32.1436V57.8586H12.8564V70.7152H12.8582V147.859H83.5732V135H25.7148V70.7152H154.287V95.7131H167.143V32.1436H12.8582ZM25.7148 57.8568V45.0002H154.287V57.8568H25.7148Z" fill="#0F1F3C"/>
<path d="M32.1436 102.856H70.7152V115.713H32.1436V102.856ZM144.645 102.856H131.235L139.548 94.5437L130.458 85.4541L106.626 109.285L130.456 133.115L139.546 124.026L131.233 115.713H144.644C149.961 115.713 154.287 120.039 154.287 125.356C154.287 130.674 149.963 135 144.645 135H96.4303V147.856H144.645C157.05 147.856 167.145 137.761 167.145 125.356C167.145 112.952 157.05 102.856 144.645 102.856Z" fill="#FCCE5E"/>
</svg>
