<svg width="180" height="180" viewBox="0 0 180 180" fill="none" xmlns="http://www.w3.org/2000/svg">
<g clip-path="url(#clip0_1901_6217)">
<path fill-rule="evenodd" clip-rule="evenodd" d="M81.169 47.4251H109.408C113.304 47.4251 116.47 44.3122 116.47 40.4898V12.6851C116.47 8.8522 113.304 5.73926 109.408 5.73926H81.169C77.2725 5.73926 74.1172 8.8522 74.1172 12.6851V40.4898C74.1172 44.3122 77.2725 47.4251 81.169 47.4251Z" fill="#434343"/>
<path fill-rule="evenodd" clip-rule="evenodd" d="M45.8785 122.634H17.6397C13.7432 122.634 10.5879 125.704 10.5879 129.474V156.834C10.5879 160.593 13.7432 163.674 17.6397 163.674H45.8785C49.7749 163.674 52.9408 160.603 52.9408 156.834V129.474C52.9408 125.704 49.7749 122.634 45.8785 122.634Z" fill="#FCCE5E"/>
<path fill-rule="evenodd" clip-rule="evenodd" d="M109.408 122.634H81.169C77.2725 122.634 74.1172 125.704 74.1172 129.474V156.834C74.1172 160.593 77.2725 163.674 81.169 163.674H109.408C113.304 163.674 116.47 160.603 116.47 156.834V129.474C116.47 125.704 113.304 122.634 109.408 122.634Z" fill="#FCCE5E"/>
<path fill-rule="evenodd" clip-rule="evenodd" d="M172.937 122.634H144.698C140.802 122.634 137.646 125.704 137.646 129.474V156.834C137.646 160.593 140.802 163.674 144.698 163.674H172.937C176.834 163.674 179.999 160.603 179.999 156.834V129.474C179.999 125.704 176.834 122.634 172.937 122.634Z" fill="#FCCE5E"/>
<path fill-rule="evenodd" clip-rule="evenodd" d="M41.8552 100.144H85.034V110.521H105.554V100.144H148.68V110.521H169.189V79.7406H105.554V58.4053H85.034V79.7406H21.6211V110.521H41.8552V100.144Z" fill="#434343"/>
</g>
<defs>
<clipPath id="clip0_1901_6217">
<rect width="180" height="180" fill="white"/>
</clipPath>
</defs>
</svg>
