<svg width="180" height="180" viewBox="0 0 180 180" fill="none" xmlns="http://www.w3.org/2000/svg">
<path d="M162.07 32.8047V169.914H21.4453V99.6016V32.8047H33.2297C33.2191 32.8117 33.2086 32.8188 33.198 32.8258H158.087C158.316 32.8258 158.544 32.8187 158.773 32.8047H162.07Z" fill="#F0F1F1"/>
<path d="M25.1262 103.645V36.8477H36.9105C36.9 36.8547 36.8895 36.8617 36.8789 36.8688H161.768C161.869 36.8688 161.969 36.8621 162.07 36.8596V32.8047H158.773C158.544 32.8187 158.316 32.8258 158.087 32.8258H33.198C33.2086 32.8188 33.2191 32.8117 33.2297 32.8047H21.4453V99.6016V169.914H25.1262V103.645Z" fill="#DEE0E0"/>
<path d="M140.977 141.789H126.914V152.336H140.977V141.789Z" fill="#FF7979"/>
<path d="M129.287 144.382H140.977V141.789H126.914V152.336H129.287V144.382Z" fill="#D65B5B"/>
<path d="M140.977 85.5391H126.914V141.789H140.977V85.5391Z" fill="#FCCE5E"/>
<path d="M129.419 88.4395H140.977V85.5391H126.914V141.789H129.419V88.4395Z" fill="#E8A664"/>
<path d="M133.945 64.4453L140.977 85.5391H126.914L133.945 64.4453Z" fill="#57606F"/>
<path d="M135.337 68.6201L133.945 64.4453L126.914 85.5391H129.697L135.337 68.6201Z" fill="#414A56"/>
<path d="M165.902 13.9148C167.885 15.9398 169.101 18.7312 169.101 21.8109C169.101 27.5801 164.601 32.4492 158.772 32.8043H33.2295C36.935 30.5332 39.3537 26.332 39.3537 21.6492C39.3537 17.1141 37.0861 13.0641 33.5213 10.6348H158.087C161.163 10.6348 163.919 11.8898 165.902 13.9148Z" fill="#FCCE5E"/>
<path d="M37.1159 14.2678H159.226C162.302 14.2678 165.059 15.5229 167.041 17.5479C167.821 18.3442 168.48 19.26 168.995 20.2641C168.662 17.8024 167.547 15.5946 165.902 13.9148C163.919 11.8898 161.163 10.6348 158.087 10.6348H33.5215C34.9506 11.6089 36.1663 12.8464 37.1159 14.2678Z" fill="#E5D0A8"/>
<path d="M40.4928 25.2825C40.4928 23.2234 40.0213 21.2666 39.1772 19.5137C39.2894 20.2108 39.3537 20.9231 39.3537 21.6498C39.3537 26.3326 36.935 30.5337 33.2295 32.8048H38.1682C39.6357 30.6673 40.4928 28.0616 40.4928 25.2825Z" fill="#E5D0A8"/>
<path d="M33.5215 10.6356C37.0863 13.0649 39.3539 17.1149 39.3539 21.65C39.3539 26.3328 36.9352 30.534 33.2297 32.8051H21.4453V99.602H10.8984V25.7738C10.8984 16.5418 17.9719 9.33829 27.2039 10.1504L33.5215 10.6356Z" fill="#FCCE5E"/>
<path d="M13.7109 28.3518C13.7109 19.1198 20.7844 11.9163 30.0164 12.7284L36.334 13.2136C36.335 13.2143 36.3364 13.2153 36.3375 13.2164C35.5307 12.2327 34.5853 11.3608 33.5215 10.6356L27.2039 10.1504C17.9719 9.33829 10.8984 16.5418 10.8984 25.7738V99.602H13.7109V28.3518Z" fill="#DDC792"/>
<path d="M116.367 46.8672H109.336V53.8984H116.367V46.8672Z" fill="black"/>
<path d="M102.305 46.8672H95.2734V53.8984H102.305V46.8672Z" fill="black"/>
<path d="M88.2422 46.8672H81.2109V53.8984H88.2422V46.8672Z" fill="black"/>
<path d="M74.1797 46.8672H67.1484V53.8984H74.1797V46.8672Z" fill="black"/>
<path d="M162.07 171.672H21.4453C20.4746 171.672 19.6875 170.885 19.6875 169.914V32.8047C19.6875 31.834 20.4746 31.0469 21.4453 31.0469H162.07C163.041 31.0469 163.828 31.834 163.828 32.8047V169.914C163.828 170.885 163.041 171.672 162.07 171.672ZM23.2031 168.156H160.312V34.5625H23.2031V168.156Z" fill="black"/>
<path d="M158.087 34.5832H33.1982C32.2276 34.5832 31.4404 33.7961 31.4404 32.8254C31.4404 31.8547 32.2276 31.0676 33.1982 31.0676H158.087C158.28 31.0676 158.472 31.0616 158.665 31.0496C163.532 30.7533 167.344 26.6952 167.344 21.8109C167.344 19.2885 166.386 16.9211 164.647 15.1446C162.909 13.3699 160.58 12.3926 158.087 12.3926H33.5217C32.551 12.3926 31.7639 11.6054 31.7639 10.6348C31.7639 9.6641 32.551 8.87695 33.5217 8.87695H158.087C161.533 8.87695 164.754 10.2294 167.159 12.6851C169.545 15.1225 170.86 18.3635 170.86 21.8109C170.86 28.55 165.597 34.1497 158.88 34.5589C158.617 34.5751 158.351 34.5832 158.087 34.5832Z" fill="black"/>
<path d="M21.4453 101.359H10.8984C9.92777 101.359 9.14062 100.573 9.14062 99.6016V25.7735C9.14062 20.6474 11.1821 15.8377 14.7417 12.5776C18.1389 9.46594 22.6188 7.98234 27.3579 8.39894L33.6561 8.88234C33.9627 8.9059 34.2573 9.00926 34.5115 9.18258C38.6441 11.9989 41.1117 16.6596 41.1117 21.6497C41.1117 22.6203 40.3246 23.4075 39.3539 23.4075C38.3832 23.4075 37.5961 22.6203 37.5961 21.6497C37.5961 17.9748 35.8495 14.532 32.9017 12.3505L27.0693 11.9026C23.3054 11.5711 19.7775 12.7327 17.1158 15.17C14.2819 17.7663 12.6562 21.6311 12.6562 25.7735V97.8438H21.4453C22.416 97.8438 23.2031 98.6306 23.2031 99.6016C23.2031 100.573 22.416 101.359 21.4453 101.359Z" fill="black"/>
<path d="M33.217 34.5658C32.6499 34.5658 32.0927 34.2976 31.7552 33.7955C31.2138 32.9898 31.4121 31.908 32.2179 31.3666C32.2382 31.3529 32.2906 31.3184 32.3114 31.3058C35.5711 29.3079 37.5964 25.6077 37.5964 21.6494C37.5964 20.6788 38.3836 19.8916 39.3542 19.8916C40.3249 19.8916 41.112 20.6788 41.112 21.6494C41.112 26.8188 38.4468 31.6647 34.1564 34.2983C33.866 34.479 33.5397 34.5658 33.217 34.5658Z" fill="black"/>
<path d="M112.852 69.7188H35.5078C34.5371 69.7188 33.75 68.9316 33.75 67.9609C33.75 66.9903 34.5371 66.2031 35.5078 66.2031H112.852C113.823 66.2031 114.609 66.9903 114.609 67.9609C114.609 68.9316 113.823 69.7188 112.852 69.7188Z" fill="black"/>
<path d="M112.852 83.7812H35.5078C34.5371 83.7812 33.75 82.9941 33.75 82.0234C33.75 81.0528 34.5371 80.2656 35.5078 80.2656H112.852C113.823 80.2656 114.609 81.0528 114.609 82.0234C114.609 82.9941 113.823 83.7812 112.852 83.7812Z" fill="black"/>
<path d="M112.852 97.8438H35.5078C34.5371 97.8438 33.75 97.057 33.75 96.0859C33.75 95.1149 34.5371 94.3281 35.5078 94.3281H112.852C113.823 94.3281 114.609 95.1149 114.609 96.0859C114.609 97.057 113.823 97.8438 112.852 97.8438Z" fill="black"/>
<path d="M112.852 111.906H35.5078C34.5371 111.906 33.75 111.119 33.75 110.148C33.75 109.177 34.5371 108.391 35.5078 108.391H112.852C113.823 108.391 114.609 109.177 114.609 110.148C114.609 111.119 113.823 111.906 112.852 111.906Z" fill="black"/>
<path d="M112.852 125.969H35.5078C34.5371 125.969 33.75 125.182 33.75 124.211C33.75 123.24 34.5371 122.453 35.5078 122.453H112.852C113.823 122.453 114.609 123.24 114.609 124.211C114.609 125.182 113.823 125.969 112.852 125.969Z" fill="black"/>
<path d="M112.852 140.031H35.5078C34.5371 140.031 33.75 139.244 33.75 138.273C33.75 137.302 34.5371 136.516 35.5078 136.516H112.852C113.823 136.516 114.609 137.302 114.609 138.273C114.609 139.244 113.823 140.031 112.852 140.031Z" fill="black"/>
<path d="M112.851 154.094H89.9365C88.9659 154.094 88.1787 153.307 88.1787 152.336C88.1787 151.365 88.9659 150.578 89.9365 150.578H112.851C113.822 150.578 114.609 151.365 114.609 152.336C114.609 153.307 113.822 154.094 112.851 154.094Z" fill="black"/>
<path d="M140.977 143.547C140.006 143.547 139.219 142.76 139.219 141.789V85.5391C139.219 84.5684 140.006 83.7812 140.977 83.7812C141.948 83.7812 142.734 84.5684 142.734 85.5391V141.789C142.734 142.76 141.948 143.547 140.977 143.547Z" fill="black"/>
<path d="M126.914 143.547C125.943 143.547 125.156 142.76 125.156 141.789V85.5391C125.156 84.5684 125.943 83.7812 126.914 83.7812C127.885 83.7812 128.672 84.5684 128.672 85.5391V141.789C128.672 142.76 127.885 143.547 126.914 143.547Z" fill="black"/>
<path d="M140.977 154.094H126.914C125.943 154.094 125.156 153.307 125.156 152.336V141.789C125.156 140.818 125.943 140.031 126.914 140.031H140.977C141.948 140.031 142.734 140.818 142.734 141.789V152.336C142.734 153.307 141.948 154.094 140.977 154.094ZM128.672 150.578H139.219V143.547H128.672V150.578Z" fill="black"/>
<path d="M140.977 87.2969H126.914C126.349 87.2969 125.819 87.0255 125.488 86.5667C125.158 86.1082 125.068 85.519 125.246 84.9832L132.278 63.8895C132.517 63.1716 133.189 62.6875 133.945 62.6875C134.702 62.6875 135.373 63.1716 135.613 63.8895L142.644 84.9832C142.823 85.519 142.733 86.1086 142.402 86.5667C142.072 87.0255 141.542 87.2969 140.977 87.2969ZM129.353 83.7812H138.538L133.945 70.0042L129.353 83.7812Z" fill="black"/>
<path d="M151.523 143.547H140.977C140.006 143.547 139.219 142.76 139.219 141.789C139.219 140.818 140.006 140.031 140.977 140.031H149.766V117.18C149.766 116.209 150.552 115.422 151.523 115.422C152.494 115.422 153.281 116.209 153.281 117.18V141.789C153.281 142.76 152.494 143.547 151.523 143.547Z" fill="black"/>
</svg>
