<svg width="60" height="60" viewBox="0 0 60 60" fill="none" xmlns="http://www.w3.org/2000/svg">
<g clip-path="url(#clip0_2565_2116)">
<path d="M30.0009 56.9887C29.6492 56.9886 29.3028 56.9033 28.9912 56.7401C-1.18365 40.7219 0.247779 20.915 0.515207 18.6864C0.546556 15.2214 1.71524 11.8626 3.84156 9.12649C5.96788 6.3904 8.93409 4.42851 12.2841 3.54252C15.6341 2.65652 19.1824 2.89547 22.3833 4.22263C25.5843 5.54978 28.2607 7.89166 30.0009 10.8881C31.7471 7.88107 34.4353 5.53303 37.6498 4.20709C40.8644 2.88115 44.4262 2.65118 47.7846 3.55273C51.143 4.45428 54.1108 6.43713 56.2291 9.19468C58.3475 11.9522 59.4983 15.3309 59.5038 18.8081C59.8124 21.7464 60.6026 41.0304 31.0106 56.7401C30.6993 56.9039 30.3527 56.9892 30.0009 56.9887ZM16.3346 7.29842C13.2759 7.30205 10.3435 8.51874 8.18065 10.6816C6.01781 12.8444 4.80112 15.7768 4.79749 18.8356C4.79722 18.9429 4.7892 19.05 4.77349 19.1561C4.67064 19.8899 2.58263 37.4167 30.0009 52.4133C57.1878 37.5367 55.3226 19.9104 55.2284 19.1561C55.2181 19.0674 55.2129 18.9781 55.2129 18.8887C55.2129 18.8527 55.2129 18.8081 55.2129 18.7619C55.2036 15.702 53.9791 12.7712 51.8089 10.6142C49.6387 8.45711 46.7005 7.25053 43.6406 7.25985C40.5808 7.26917 37.65 8.49363 35.4929 10.6639C33.3359 12.8341 32.1293 15.7723 32.1386 18.8321C32.1386 19.4005 31.9129 19.9455 31.511 20.3474C31.1091 20.7492 30.5641 20.975 29.9958 20.975C29.4275 20.975 28.8824 20.7492 28.4806 20.3474C28.0787 19.9455 27.8529 19.4005 27.8529 18.8321C27.8507 15.7766 26.6369 12.8466 24.4777 10.6845C22.3186 8.52246 19.3902 7.30478 16.3346 7.29842Z" fill="black"/>
<path d="M1209.7 30.8392C1210.1 30.4505 1210.1 29.8173 1209.71 29.425L1203.37 23.0328C1202.99 22.6406 1202.35 22.6378 1201.96 23.0265C1201.57 23.4153 1201.56 24.0485 1201.95 24.4407L1207.59 30.1227L1201.9 35.7543C1201.51 36.1431 1201.51 36.7763 1201.9 37.1685C1202.29 37.5608 1202.92 37.5636 1203.31 37.1748L1209.7 30.8392ZM55.9956 26L1209 31.129L1209 29.129L56.0044 24L55.9956 26Z" fill="black"/>
</g>
<defs>
<clipPath id="clip0_2565_2116">
<rect width="60" height="60" fill="white"/>
</clipPath>
</defs>
</svg>
