<svg width="32" height="26" viewBox="0 0 32 26" fill="none" xmlns="http://www.w3.org/2000/svg">
<path d="M12.0916 23.6629C8.99144 23.6629 5.89567 22.5093 3.5374 20.2022C-1.17913 15.588 -1.17913 8.07484 3.5374 3.46065C8.25393 -1.15355 15.9338 -1.15355 20.6503 3.46065C25.3668 8.07484 25.3668 15.588 20.6503 20.2022C18.2876 22.5093 15.1874 23.6629 12.0916 23.6629ZM12.0916 2.92492C9.75987 2.92492 7.4281 3.79332 5.64836 5.53012C2.09771 9.00373 2.09771 14.6591 5.64836 18.1327C9.19901 21.6064 14.9799 21.6064 18.5305 18.1327C22.0811 14.6591 22.0811 9.00373 18.5305 5.53012C16.7552 3.79332 14.4234 2.92492 12.0916 2.92492Z" fill="#757575"/>
<path d="M31.779 24.3758L31.2844 25.1146C30.8825 25.7109 30.0655 25.875 29.4561 25.4862L20.9063 19.9993C20.2968 19.6061 20.129 18.8068 20.5265 18.2106L21.0211 17.4718C21.423 16.8756 22.24 16.7114 22.8494 17.1003L31.3992 22.5872C32.0087 22.9804 32.1765 23.7796 31.779 24.3758Z" fill="#757575"/>
</svg>
