<svg width="300" height="300" viewBox="0 0 300 300" fill="none" xmlns="http://www.w3.org/2000/svg">
<path d="M185.312 206.302L137.503 206.284L89.6939 206.302L76.4189 268.741H137.503H198.587L185.312 206.302Z" fill="#CCD1D9"/>
<path d="M198.587 256.254H76.4191C72.9674 256.254 70.166 259.037 70.166 262.498C70.166 265.958 72.9674 268.741 76.4191 268.741H198.587C202.039 268.741 204.84 265.958 204.84 262.498C204.84 259.037 202.038 256.254 198.587 256.254Z" fill="#E6E9ED"/>
<path d="M6.25293 224.997V37.502H268.753V179.807L212.246 224.997H6.25293Z" fill="#4A89DC"/>
<path d="M268.753 31.249H6.25313C2.80137 31.249 0 34.0504 0 37.5021V224.997C0 228.458 2.80137 231.241 6.25313 231.241H214.435L275.006 182.81V37.5021C275.006 34.0504 272.204 31.249 268.753 31.249ZM262.5 176.804L210.059 218.754H12.5063V43.7459H262.5V176.804Z" fill="#E6E9ED"/>
<path opacity="0.1" d="M98.4373 193.741H62.5029L100.003 43.7461H135.937L98.4373 193.741Z" fill="white"/>
<path d="M232.37 193.741H9.34766V224.045H232.37V193.741Z" fill="#E6E9ED"/>
<path d="M143.756 212.491C143.756 215.951 140.955 218.753 137.503 218.753C134.051 218.753 131.25 215.952 131.25 212.491C131.25 209.048 134.051 206.247 137.503 206.247C140.955 206.247 143.756 209.048 143.756 212.491Z" fill="#434A54"/>
<path d="M300 105.481L299.964 104.849C299.964 102.844 298.334 101.205 296.347 101.196C279.858 100.574 238.495 96.2797 208.731 69.7479L208.136 69.4186L208.154 69.3084C207.587 68.9516 206.919 68.7588 206.232 68.75C205.371 68.7594 204.492 69.1068 203.824 69.7115C174.023 96.2791 132.642 100.573 116.235 101.196C114.166 101.205 112.555 102.843 112.537 104.848L112.5 105.782C115.228 180.631 161.59 238.676 204.199 268.119C205.426 268.962 207.074 268.962 208.291 268.119L208.877 267.735C251.385 238.126 297.418 180.119 300 105.481Z" fill="#FFCE54"/>
<path d="M212.567 124.999C212.567 121.547 209.766 118.746 206.314 118.746C202.862 118.746 200.07 121.547 200.07 124.999C200.07 124.999 200.07 124.999 200.07 125.009V212.492C200.07 215.953 202.863 218.754 206.314 218.754C209.765 218.754 212.567 215.953 212.567 212.492V124.999Z" fill="#F6BB42"/>
</svg>
