<svg width="300" height="275" viewBox="0 0 300 275" fill="none" xmlns="http://www.w3.org/2000/svg">
<g clip-path="url(#clip0_1899_5993)">
<path d="M174.933 122.81V223.711C174.933 226.584 172.576 228.946 169.708 228.946H16.5971C13.7293 228.946 11.3721 226.584 11.3721 223.711V122.81C11.3721 119.937 13.7293 117.6 16.5971 117.6H169.708C172.576 117.6 174.933 119.937 174.933 122.81Z" fill="url(#paint0_linear_1899_5993)"/>
<g opacity="0.2">
<path d="M107.009 150.652C106.656 150.253 106.435 149.899 105.993 150.098C105.551 150.297 105.551 150.585 105.087 150.231C104.623 149.877 104.822 149.456 103.783 149.08C102.745 148.704 102.524 148.483 101.397 148.328C100.27 148.173 99.4528 148.018 99.3864 148.018C99.3202 148.018 99.6295 148.217 99.1877 148.439C98.7458 148.66 98.3922 148.704 97.9504 148.416C97.5086 148.129 97.5306 148.04 96.7796 148.107C96.0282 148.173 95.5864 148.35 95.2552 148.394C94.9239 148.439 95.2552 148.372 94.7469 148.018C94.2386 147.664 94.5923 147.465 93.7084 147.531C92.8247 147.597 92.4491 147.638 92.228 147.518C92.0069 147.398 92.2721 146.778 91.4105 146.512C90.5489 146.247 90.372 146.446 89.9301 146.38C89.4883 146.313 89.5104 146.203 88.2511 146.114C86.9918 146.025 87.0579 146.225 86.1964 146.49C85.3348 146.756 85.1137 146.756 84.3183 146.712C83.5228 146.668 83.7218 147.154 83.2356 147.221C82.7494 147.287 81.9763 146.8 81.8879 146.513C81.7994 146.225 82.5507 145.915 81.8879 145.65C81.225 145.384 79.9877 144.875 79.7446 144.963C79.5015 145.052 79.6341 145.451 79.1923 145.561C78.7505 145.672 78.1761 145.672 77.4912 145.362C76.8063 145.052 76.5411 144.899 75.8121 144.953C75.0831 145.008 74.6854 145.229 74.0666 145.273C73.4478 145.317 73.0725 145.052 73.4922 144.853C73.912 144.654 74.4423 144.056 74.4423 143.768C74.4423 143.48 74.7515 142.86 74.0446 142.794C73.3376 142.728 73.205 143.215 72.5422 142.794C71.8793 142.374 71.0177 142.351 70.7746 142.484C70.5315 142.617 70.5315 142.839 70.1118 142.905C69.692 142.971 69.8466 143.347 69.3384 143.48C68.8301 143.613 68.8965 143.215 67.7254 143.325C66.5543 143.436 65.4276 143.591 65.1404 143.923C64.8532 144.255 65.2068 144.631 64.588 144.919C63.9693 145.207 62.5553 144.985 62.3787 145.229C62.202 145.472 63.1521 146.313 62.5113 146.69C61.8704 147.066 61.4727 146.424 59.9927 146.69C58.5123 146.955 58.689 146.911 58.137 147.243C57.5846 147.575 57.4741 147.354 57.1428 147.819C56.8115 148.283 55.8171 148.704 55.1322 148.704C54.4472 148.704 54.1601 148.284 53.2761 148.638C52.3925 148.992 52.5251 149.235 51.1329 149.125C49.741 149.014 49.1666 149.036 48.9015 149.214C48.6363 149.391 48.6363 149.834 47.9514 150.033C47.2665 150.232 46.2059 150.586 45.9408 150.52C45.6756 150.454 44.77 150.896 44.1512 150.962C43.5324 151.029 43.1791 150.985 42.9804 150.741C42.7814 150.497 42.5606 150.077 42.8699 150.21C43.1791 150.342 43.4442 150.519 43.9966 150.497C44.5489 150.475 45.1677 150.033 45.0351 149.789C44.9025 149.546 45.0131 149.192 43.9304 148.926C42.8478 148.66 42.384 148.704 41.5665 148.107C40.749 147.509 41.8757 147.111 39.7328 147.332C37.5896 147.554 37.0152 147.775 36.1536 148.417C35.292 149.059 35.1151 149.612 34.2314 150.387C33.3478 151.162 33.6571 151.383 32.5524 151.936C31.4477 152.489 31.2711 152.224 30.9395 153.065C30.6079 153.906 30.3871 154.88 31.072 155.057C31.7569 155.234 32.4639 154.924 32.8175 154.792C33.1712 154.659 33.4363 154.902 33.4804 155.301C33.5245 155.699 33.5465 156.363 33.9887 156.452C34.4305 156.54 35.3585 155.92 35.3144 155.279C35.2703 154.637 35.1157 154.194 35.5575 153.552C35.9993 152.91 36.2865 152.445 36.7507 152.224C37.2145 152.002 37.8554 151.604 37.6122 152.113C37.3691 152.622 36.9273 153.22 37.2366 153.729C37.5458 154.238 38.2528 153.884 38.4297 154.393C38.6064 154.902 38.1866 155.389 38.0761 155.566C37.9656 155.743 38.3412 155.965 37.833 156.319C37.3247 156.673 36.9935 157.049 36.4411 157.47C35.8888 157.891 34.2538 158.178 33.8781 158.09C33.5024 158.001 32.884 158.09 32.8396 157.581C32.7955 157.072 33.3919 156.518 32.7735 156.275C32.1547 156.031 31.4698 156.363 31.2711 157.226C31.072 158.09 30.7628 158.245 30.2549 158.665C29.7466 159.086 30.1664 160.369 28.6863 160.613C27.206 160.856 26.3664 160.502 26.477 161.033C26.5875 161.565 27.5155 161.233 27.5376 162.118C27.5596 163.003 27.7807 163.314 27.1399 163.49C26.499 163.667 26.3444 163.336 25.4828 163.623C24.6213 163.911 24.6653 164.996 24.4887 165.46C24.312 165.925 24.2235 166.346 24.7979 166.545C25.3723 166.744 26.3003 167.098 26.9852 166.811C27.6701 166.523 28.0679 166.479 28.1564 165.948C28.2448 165.416 28.4656 165.084 28.9298 164.996C29.3936 164.907 29.7032 164.376 29.968 164.066C30.2331 163.756 29.968 163.867 30.6529 163.889C31.3378 163.911 31.9786 163.181 32.2214 163.38C32.4645 163.579 33.1935 164 33.6574 164.442C34.1212 164.885 34.7621 165.018 34.6515 165.682C34.541 166.346 34.4969 167.116 34.9387 166.919C35.3805 166.722 35.2259 166.125 35.5131 165.837C35.8003 165.549 36.176 165.815 36.1319 165.305C36.0878 164.796 35.3364 164.663 34.9387 164.199C34.541 163.734 34.2318 163.225 34.7177 163.38C35.2036 163.535 36.1316 163.955 36.2201 164.309C36.3085 164.664 37.126 165.394 37.2142 166.08C37.3027 166.767 37.7886 167.386 38.0097 167.032C38.2307 166.678 38.0317 166.412 38.5179 166.324C39.0038 166.235 38.8271 165.881 39.0923 165.416C39.3574 164.952 40.0864 165.638 40.3516 164.774C40.6167 163.911 40.0203 163.614 40.6829 163.143C41.3457 162.671 41.6329 162.362 41.8316 162.782C42.0303 163.203 42.5386 163.645 42.7817 163.203C43.0248 162.76 42.3399 162.627 42.9143 162.295C43.4886 161.963 43.9969 161.565 43.8423 162.14C43.6877 162.716 43.4666 163.092 43.8643 163.49C44.262 163.889 45.4328 164.133 44.7923 164.486C44.1515 164.841 43.2238 164.641 42.3619 165.018C41.5003 165.394 41.3678 165.217 41.1467 165.925C40.9256 166.634 40.9036 166.855 41.6326 166.855C42.3616 166.855 42.6932 166.346 42.8919 166.988C43.0906 167.63 43.0465 169.069 42.7373 169.201C42.428 169.334 42.2955 169.135 40.9256 169.29C39.5558 169.445 39.6219 169.777 38.5173 169.224C37.4126 168.67 37.1474 167.984 36.7497 168.67C36.352 169.356 36.6392 169.706 35.7776 169.531C34.916 169.356 35.5345 168.98 34.3857 168.693C33.237 168.405 33.0159 168.494 33.0159 167.984C33.0159 167.475 33.1705 166.811 32.2646 166.745C31.3586 166.679 29.768 167.055 28.4643 167.431C27.1606 167.807 27.4258 167.342 25.9234 167.874C24.421 168.405 23.4929 168.582 23.3383 169.401C23.1837 170.22 22.6755 170.685 22.3442 171.128C22.0129 171.57 21.8359 173.518 21.7478 174.713C21.6593 175.909 21.9688 175.355 21.6372 176.241C21.3056 177.126 22.2337 178.521 22.6093 178.897C22.985 179.273 24.2002 180.468 24.9733 180.557C25.7467 180.646 25.6803 180.269 26.8734 180.446C28.0666 180.623 28.0446 179.937 29.2598 180.247C30.475 180.557 30.9168 180.778 31.6237 181.155C32.3307 181.531 32.3971 181.841 32.3971 182.749C32.3971 183.656 32.4412 182.97 33.082 184.254C33.7229 185.537 34.8496 186.733 34.1867 187.84C33.5239 188.946 33.2367 189.145 33.6564 190.186C34.0762 191.226 35.2473 193.329 35.3799 194.392C35.5125 195.454 35.1812 195.521 35.3138 196.163C35.4463 196.805 36.6395 197.513 37.7221 197.07C38.8048 196.628 39.1361 196.605 40.02 195.786C40.9036 194.967 41.7875 195.587 42.4504 193.883C43.1133 192.179 42.8922 191.979 43.1794 191.293C43.4666 190.607 45.1901 189.611 45.2562 188.371C45.3223 187.132 44.8805 186.202 45.0351 185.007C45.1897 183.811 45.3003 182.771 46.449 181.819C47.5978 180.868 47.8629 181.797 48.6584 180.004C49.4538 178.212 50.4039 177.769 49.52 177.791C48.636 177.813 46.9129 178.521 46.1839 178.123C45.4549 177.724 44.2617 175.909 44.0186 175.068C43.7755 174.227 43.864 174.648 43.4442 173.452C43.0245 172.257 42.6267 171.637 42.4501 171.172C42.2734 170.708 42.1629 169.889 42.6932 170.553C43.2235 171.217 43.7317 172.213 44.4387 173.74C45.1457 175.267 45.5654 176.441 46.1842 176.684C46.803 176.928 47.0017 177.216 47.9297 176.839C48.8577 176.463 49.189 176.419 50.0729 175.931C50.9566 175.444 51.4868 175.356 52.1277 174.714C52.7685 174.072 54.2265 173.806 52.6139 173.187C51.001 172.567 50.4486 172.921 49.9848 172.213C49.5209 171.505 48.7696 170.796 49.4545 170.907C50.1394 171.018 49.8742 171.217 50.6476 171.372C51.421 171.527 51.9734 171.178 52.3931 171.739C52.8129 172.301 53.5199 172.7 54.1827 172.39C54.8456 172.08 55.1108 171.903 55.8177 172.301C56.5247 172.7 56.0608 173.828 57.1214 174.138C58.182 174.448 58.3587 173.297 58.5797 174.758C58.8008 176.219 59.2206 177.569 59.5959 177.857C59.9716 178.145 59.3972 179.473 60.5901 179.119C61.7832 178.765 62.1365 178.809 62.1365 177.57C62.1365 176.33 62.0925 176.02 62.733 175.577C63.3738 175.135 64.2574 174.692 64.6551 174.227C65.0529 173.762 64.8097 173.474 65.6052 173.563C66.4006 173.651 68.3669 175.865 68.2784 176.33C68.1899 176.794 68.1017 176.972 68.4771 177.259C68.8528 177.547 68.8307 177.636 69.1179 178.676C69.4051 179.716 69.339 179.561 70.2446 180.535C71.1506 181.509 72.432 182.196 72.3214 181.487C72.2109 180.779 71.7691 180.867 71.3714 179.738C70.9736 178.61 70.5098 177.591 71.0401 177.879C71.5704 178.167 71.4158 178.588 71.9681 178.676C72.5205 178.765 72.6089 178.123 73.0287 177.923C73.4485 177.724 74.1998 176.108 73.6031 175.4C73.0067 174.692 72.3879 174.205 73.0067 173.984C73.6255 173.762 73.3379 173.917 74.0673 174.05C74.7963 174.183 74.5755 173.828 75.4591 173.585C76.3427 173.342 77.6244 172.943 78.3093 172.058C78.9942 171.173 79.7453 170.907 79.5466 169.734C79.3479 168.561 79.0827 168.052 78.6629 167.741C78.2432 167.432 78.2211 167.21 78.5965 167.077C78.9722 166.944 79.9443 166.922 79.3919 166.635C78.8396 166.347 79.1048 166.502 78.4639 166.347C77.8231 166.192 77.1382 166.502 77.7126 165.971C78.2869 165.439 78.7288 164.997 78.7288 164.997C78.7288 164.997 78.5741 165.107 78.9498 165.506C79.3255 165.904 79.5686 165.727 79.7453 165.639C79.9219 165.55 80.4522 165.174 80.5187 165.595C80.5851 166.015 79.8338 166.325 80.2756 166.48C80.7174 166.635 81.1151 166.236 80.9384 167.033C80.7618 167.83 81.1151 168.56 81.4908 168.162C81.8664 167.763 82.4188 166.59 82.3083 166.103C82.1977 165.617 81.822 165.86 82.3303 164.975C82.8386 164.089 82.8386 163.469 83.5235 163.58C84.2084 163.691 84.8713 163.027 85.1364 162.761C85.4015 162.495 86.5283 161.876 86.7049 161.123C86.8816 160.37 86.7934 160.26 87.0362 159.396C87.2793 158.533 87.8096 158.533 87.1467 158.135C86.4839 157.736 85.9756 157.825 85.8654 157.382C85.7549 156.939 87.6329 154.792 88.4504 154.46C89.2679 154.128 89.8423 154.283 90.3946 154.527C90.947 154.77 91.1236 155.013 91.6319 154.704C92.1401 154.394 92.4714 154.216 92.7586 154.194C93.0458 154.172 93.8412 153.574 94.1725 153.84C94.5038 154.106 94.5482 154.393 94.9459 154.216C95.3436 154.039 95.8739 153.11 96.0506 153.442C96.2273 153.773 96.1832 154.172 95.697 154.814C95.2108 155.456 94.791 155.567 94.1725 156.076C93.5537 156.585 93.311 157.116 93.311 157.581C93.311 158.045 93.1343 159.595 93.3771 159.617C93.6202 159.639 93.6863 159.573 94.3271 158.754C94.968 157.935 95.2992 157.891 95.719 157.581C96.1388 157.271 96.2934 156.895 96.3598 156.164C96.4263 155.434 95.9621 155.257 96.647 154.88C97.3319 154.504 98.1494 154.106 98.8343 154.216C99.5192 154.327 99.3646 154.305 99.8729 153.796C100.381 153.287 100.734 152.955 101.265 152.999C101.795 153.043 102.657 153.154 102.789 152.888C102.922 152.623 102.811 152.401 102.833 152.025C102.855 151.649 102.811 151.494 103.319 151.361C103.828 151.228 103.805 151.051 104.049 150.962C104.292 150.874 104.446 151.139 104.844 151.294C105.242 151.449 106.214 151.471 106.435 151.184C106.656 150.895 107.009 150.652 107.009 150.652Z" fill="#9FA6A9"/>
<path d="M87.6105 162.693C87.8993 162.799 88.4501 163.246 88.7817 163.224C89.113 163.202 89.2899 163.645 89.0248 163.689C88.7596 163.733 87.876 164.153 87.876 164.153C87.876 164.153 87.6109 163.822 87.4563 164.153C87.3016 164.485 87.2131 164.729 87.2576 164.928C87.3016 165.127 87.6112 165.703 87.4342 165.991C87.2576 166.279 87.0144 166.433 87.0144 166.788C87.0144 167.142 87.2355 167.518 86.926 167.673C86.6167 167.828 86.3072 167.872 86.0423 167.961C85.7772 168.049 85.5785 168.071 85.468 168.315C85.3574 168.559 85.0923 168.913 84.5399 168.89C83.9876 168.868 83.9876 168.426 83.4793 168.846C82.9711 169.267 82.9491 169.51 82.6839 169.4C82.4188 169.289 82.6175 169.134 82.6839 168.713C82.75 168.293 81.7779 168.404 82.6619 167.917C83.5455 167.429 83.5455 167.363 84.1422 167.275C84.7386 167.186 85.0702 167.474 85.313 166.965C85.5561 166.456 85.313 166.256 85.7992 166.234C86.2854 166.212 86.5947 166.434 86.6828 165.88C86.7713 165.327 86.7049 164.862 86.6828 164.508C86.6608 164.153 86.5282 163.822 86.926 163.689C87.3237 163.556 87.3678 163.799 87.4122 163.49C87.4559 163.179 87.1908 162.538 87.6105 162.693Z" fill="#9FA6A9"/>
<path d="M78.7286 174.69C79.1483 174.757 79.347 175.509 79.2148 175.819C79.0822 176.129 78.9496 176.483 79.3253 176.55C79.701 176.616 79.9661 176.66 79.9661 176.926C79.9661 177.192 80.1207 176.638 80.4079 177.347C80.6951 178.055 80.43 178.166 80.7616 178.697C81.0929 179.228 81.4906 179.494 81.0267 179.759C80.5629 180.025 80.9162 180.313 80.4303 180.158C79.9444 180.003 80.1431 180.091 79.9 179.627C79.6569 179.162 79.5023 179.538 79.2815 179.516C79.0605 179.494 78.9944 179.494 79.171 179.184C79.3477 178.874 79.4362 178.896 79.2375 178.542C79.0388 178.188 79.348 177.767 79.0608 177.701C78.7736 177.635 78.6851 178.121 78.1772 178.431C77.6689 178.741 76.9179 178.83 76.9399 178.719C76.962 178.608 77.2492 178.453 77.7133 177.878C78.1772 177.302 78.4647 177.656 78.3762 176.771C78.2877 175.886 77.9785 176.129 78.2657 175.509C78.5519 174.89 78.7286 174.69 78.7286 174.69Z" fill="#9FA6A9"/>
<path d="M77.3145 179.715C77.649 180.05 78.0879 179.958 77.9553 180.29C77.8227 180.622 77.4292 180.667 77.648 180.998C77.8668 181.331 78.0658 181.818 78.353 181.773C78.6402 181.729 78.6182 181.508 79.3251 181.508C80.0321 181.508 80.4739 181.353 80.5183 181.641C80.5624 181.928 80.2091 181.95 79.7449 182.371C79.2811 182.791 78.8169 183.212 79.1926 183.478C79.5682 183.743 79.7229 184.23 79.5903 184.407C79.4577 184.584 79.3251 184.762 79.6344 184.983C79.9436 185.204 81.424 185.138 81.0703 185.669C80.7167 186.2 79.8551 186.488 78.9491 186.51C78.0432 186.532 78.7715 186.267 76.9382 186.09C75.1048 185.913 74.7956 186.377 73.5142 185.758C72.2329 185.138 71.3931 185.669 70.6861 184.54C69.9791 183.411 70.2663 183.965 69.3824 182.791C68.4988 181.618 68.9186 181.618 68.1672 181.153C67.4158 180.689 66.7753 180.025 67.2836 180.025C67.7918 180.025 67.5487 179.427 69.1173 180.733C70.6858 182.039 70.266 181.972 71.4151 182.747C72.5639 183.522 72.9395 183.61 73.3593 183.522C73.7791 183.433 74.3979 183.522 74.0001 183.013C73.6024 182.504 73.3813 181.862 73.7129 181.751C74.0445 181.641 74.0222 182.194 74.5745 181.596C75.1269 180.999 75.1269 180.844 75.6131 180.645C76.0993 180.445 75.8341 180.645 76.298 180.357C76.7622 180.069 76.9388 179.338 77.3145 179.715Z" fill="#9FA6A9"/>
<path d="M83.3903 182.283C83.6305 182.592 84.0311 182.991 84.2078 183.323C84.3844 183.655 84.716 183.042 85.3565 183.061C85.9973 183.08 86.9474 183.434 87.3451 183.611C87.7429 183.788 88.4278 183.899 88.8475 184.474C89.2673 185.05 89.5765 184.718 89.5989 185.293C89.6209 185.869 89.7094 185.802 90.0848 186.134C90.4605 186.466 90.5266 187.086 89.8637 186.82C89.2008 186.555 89.0021 185.647 88.2952 185.736C87.5882 185.824 87.8754 186.024 87.3231 186.134C86.7707 186.245 86.5276 186.046 85.8648 186.001C85.2019 185.957 84.716 186.178 85.0252 185.581C85.3345 184.983 85.5555 184.961 84.4729 184.518C83.3903 184.076 82.9705 184.297 82.9705 183.832C82.9705 183.367 83.1472 183.323 82.7274 182.924C82.3076 182.526 82.1751 182.238 82.4402 182.039C82.7054 181.84 83.2356 182.083 83.3903 182.283Z" fill="#9FA6A9"/>
<path d="M84.6719 188.658C85.4009 189.034 85.6881 189.787 86.0417 189.654C86.3954 189.521 86.2628 189.3 86.5276 188.503C86.7928 187.706 86.8148 186.887 87.1464 187.219C87.4777 187.551 87.1685 188.199 87.6988 188.407C88.2291 188.614 88.3396 188.769 88.4501 189.389C88.5607 190.009 88.6712 189.809 89.2235 190.451C89.7759 191.093 90.272 190.983 90.3662 191.713C90.4608 192.443 91.3888 193.196 91.4329 193.948C91.477 194.701 91.6095 195.232 91.0572 196.184C90.5049 197.136 90.2838 197.623 90.1071 198.021C89.9305 198.42 89.4002 198.619 88.8258 198.619C88.2514 198.619 87.9198 198.375 87.5665 198.464C87.2129 198.553 86.9701 198.995 86.5503 198.686C86.1306 198.376 85.8874 197.977 85.7549 197.734C85.6223 197.49 85.5562 196.671 84.9374 196.76C84.3189 196.848 84.4071 197.158 84.0314 196.76C83.6557 196.361 83.9209 196.029 82.8162 195.852C81.7115 195.675 81.4243 195.587 80.9602 195.697C80.4963 195.808 80.0101 195.963 79.5018 196.361C78.9936 196.76 78.1981 196.561 77.7563 196.76C77.3145 196.959 76.6517 197.402 76.1655 197.136C75.6792 196.871 75.8562 196.738 75.8783 196.118C75.9003 195.498 75.8562 195.919 75.547 194.856C75.2377 193.794 75.3703 193.949 75.0831 193.44C74.7959 192.931 74.5749 193.174 74.9726 192.444C75.3703 191.714 75.2378 191.559 75.4585 191.315C75.6796 191.072 75.8783 191.382 76.6296 190.872C77.381 190.363 77.6017 190.585 78.2866 190.319C78.9715 190.053 79.1262 189.035 79.5459 188.725C79.9657 188.415 80.0762 188.172 80.3855 188.172C80.6947 188.172 81.0483 188.349 81.6007 188.57C82.153 188.792 82.0425 188.814 82.5066 188.305C82.9705 187.796 82.5066 187.309 83.3462 187.397C84.1857 187.486 84.4949 187.353 84.6055 187.84C84.716 188.326 84.6719 188.658 84.6719 188.658Z" fill="#9FA6A9"/>
<path d="M100.005 199.106C100.447 198.53 100.668 198.464 100.514 197.8C100.359 197.135 100.403 196.615 100.977 197.207C101.552 197.8 102.193 198.132 102.634 198.154C103.076 198.176 104.137 198.508 103.054 199.327C101.972 200.146 102.171 199.571 101.309 200.788C100.447 202.006 101.11 202.028 100.071 202.625C99.0329 203.223 97.8842 203.488 98.1052 202.958C98.3263 202.426 98.2158 202.426 99.1658 201.718C100.116 201.01 100.734 200.478 100.734 199.881C100.734 199.283 100.005 199.106 100.005 199.106Z" fill="#9FA6A9"/>
<path d="M47.2445 193.129C46.8468 192.554 46.8468 192.377 46.8027 191.447C46.7586 190.518 46.4491 190.075 46.8027 189.544C47.1563 189.012 48.084 188.127 48.4377 187.507C48.7913 186.888 48.8795 185.559 49.1005 186.754C49.3216 187.95 50.0286 188.658 48.968 190.252C47.9074 191.845 47.2445 193.129 47.2445 193.129Z" fill="#9FA6A9"/>
<path d="M25.9903 160.192C25.9018 160.015 26.2996 159.439 26.2996 159.439C26.2996 159.439 26.7858 159.173 26.6532 158.199C26.5206 157.225 26.4321 157.801 26.0788 156.871C25.7252 155.941 25.1952 156.118 25.7252 155.499C26.2555 154.879 26.8739 153.949 27.0065 154.702C27.1391 155.454 26.8299 155.941 27.1391 156.296C27.4483 156.65 28.0671 156.723 28.4204 157.306C28.7741 157.889 30.188 158.111 29.1274 158.863C28.0668 159.616 27.5809 159.129 27.1832 159.66C26.7855 160.192 25.9903 160.192 25.9903 160.192Z" fill="#9FA6A9"/>
<path d="M24.576 159.484C25.283 159.085 25.5414 159.174 25.5005 158.465C25.4596 157.757 25.9459 157.137 25.1945 157.093C24.4435 157.049 24.2224 157.491 24.1339 157.801C24.0454 158.111 24.0454 158.2 24.2665 158.509C24.4875 158.819 24.5316 159.262 24.4431 159.483C24.3553 159.705 24.576 159.484 24.576 159.484Z" fill="#9FA6A9"/>
<path d="M22.013 152.578C22.5874 152.179 23.5154 152.533 23.5595 151.692C23.6036 150.851 23.8247 150.629 22.5433 150.541C21.262 150.452 21.262 150.452 20.4665 150.541C19.6711 150.63 18.9201 149.833 19.5385 151.028C20.157 152.224 20.2455 152.489 20.7317 152.578C21.2179 152.666 22.013 152.578 22.013 152.578Z" fill="#9FA6A9"/>
<path d="M110.964 149.39C110.274 148.6 109.152 148.549 110.036 148.062C110.919 147.575 111.45 147.265 112.289 147.088C113.129 146.911 114.013 147.265 115.383 147.619C116.753 147.974 118.962 147.663 119.978 147.974C120.995 148.283 121.481 148.903 121.79 148.859C122.099 148.815 122.983 147.885 123.867 147.885C124.75 147.885 125.193 147.752 127.004 147.974C128.816 148.195 130.583 148.283 130.628 148.726C130.672 149.169 130.672 149.39 131.334 149.39C131.997 149.39 132.572 148.992 132.969 149.612C133.367 150.232 133.986 150.674 133.897 150.187C133.809 149.701 133.367 149.302 133.721 149.125C134.074 148.948 135.091 148.859 135.356 148.948C135.621 149.036 136.46 149.169 136.726 149.125C136.991 149.081 136.814 148.638 137.698 148.903C138.581 149.169 138.714 149.833 138.891 149.877C139.068 149.921 139.465 149.197 139.509 148.718C139.553 148.239 139.951 148.239 139.156 147.62C138.361 147 139.079 146.247 139.648 146.513C140.216 146.779 139.863 147.133 140.437 147.708C141.012 148.284 141.1 148.771 141.498 148.594C141.896 148.417 141.675 147.664 142.205 148.239C142.735 148.815 142.868 148.525 143.354 148.426C143.84 148.328 143.442 148.018 144.017 148.328C144.591 148.637 145.563 148.992 144.856 149.567C144.149 150.143 143.089 150.054 142.337 150.497C141.586 150.939 141.807 150.807 141.586 151.338C141.365 151.869 141.454 151.913 140.57 152.135C139.686 152.356 139.421 152.179 139.465 152.932C139.509 153.685 139.421 153.773 139.112 154.171C138.802 154.57 138.979 154.924 139.333 155.101C139.686 155.278 140.084 154.968 140.084 155.5C140.084 156.031 140.747 156.429 141.63 156.429C142.514 156.429 142.912 156.651 143.442 157.315C143.972 157.979 143.221 158.023 144.105 158.864C144.988 159.705 145.828 160.104 145.961 159.351C146.093 158.599 145.961 158.421 146.093 157.536C146.226 156.651 147.065 156.562 146.624 155.765C146.182 154.968 145.519 154.614 146.137 154.171C146.756 153.729 146.005 153.32 147.065 153.104C148.126 152.888 148.833 152.71 149.275 153.507C149.717 154.304 149.231 154.835 149.672 155.189C150.114 155.544 151.484 155.012 151.749 154.703C152.014 154.393 152.765 154.437 153.031 155.588C153.296 156.739 153.472 157.049 153.87 157.182C154.268 157.315 154.268 157.58 154.754 158.023C155.24 158.465 156.168 159.174 154.754 159.307C153.34 159.439 152.191 159.262 151.661 159.749C151.13 160.236 151.086 159.882 151.44 160.546C151.793 161.21 151.528 160.768 151.793 161.609C152.059 162.45 153.384 162.45 152.412 163.025C151.439 163.601 151.616 163.734 151.042 163.557C150.468 163.38 150.335 162.108 149.672 163.142C149.009 164.176 149.098 164.575 148.523 164.885C147.949 165.195 147.905 164.575 147.375 165.549C146.844 166.523 147.684 166.611 146.491 167.718C145.298 168.825 144.723 168.294 144.635 169.223C144.547 170.153 145.121 171.26 144.812 171.481C144.502 171.703 144.547 171.658 144.193 171.039C143.84 170.419 144.017 170.065 142.779 169.976C141.542 169.887 141.631 169.578 141.144 170.109C140.658 170.64 141.321 170.817 139.951 170.64C138.581 170.463 138.405 168.825 138.139 170.729C137.874 172.633 137.83 172.854 138.272 173.385C138.714 173.916 139.907 175.2 140.437 174.625C140.968 174.049 140.305 173.341 141.321 173.562C142.337 173.783 142.603 173.518 142.426 174.093C142.249 174.669 140.879 174.757 141.984 175.289C143.089 175.82 144.017 175.2 144.105 176.041C144.194 176.882 143.972 177.104 144.017 177.591C144.061 178.078 144.282 178.432 145.298 178.432C146.314 178.432 146.27 178.033 146.535 178.565C146.8 179.096 147.64 178.83 147.993 178.078C148.347 177.325 148.612 176.484 149.142 177.369C149.672 178.255 149.761 178.432 150.291 178.078C150.821 177.723 150.821 177.723 150.821 177.723C150.821 177.723 151.396 177.192 151.882 177.635C152.368 178.077 153.163 177.59 153.34 178.21C153.517 178.83 153.252 178.918 154.003 179.14C154.754 179.361 155.638 179.007 156.08 179.627C156.522 180.247 155.328 179.848 156.61 180.6C157.891 181.353 158.289 181.442 158.201 181.929C158.113 182.416 158.466 182.504 159.615 182.77C160.764 183.035 160.587 182.903 161.515 183.611C162.443 184.319 163.194 184.009 163.504 184.364C163.813 184.718 164.343 184.806 163.901 185.78C163.46 186.754 163.018 186.533 162.664 187.285C162.31 188.038 162.001 188.215 162.09 189.543C162.178 190.872 162.222 190.739 161.957 191.403C161.692 192.067 160.72 192.155 159.924 192.642C159.129 193.13 159.085 192.731 158.555 194.059C158.024 195.387 158.334 194.679 157.892 195.83C157.45 196.981 158.068 196.405 156.787 197.069C155.506 197.733 155.02 197.158 154.887 197.556C154.754 197.955 155.638 197.645 154.71 198.486C153.782 199.327 153.385 199.549 152.81 199.903C152.236 200.257 151.882 200.655 152.015 201.408C152.147 202.16 152.81 202.116 152.059 202.824C151.307 203.533 150.998 202.824 150.777 203.975C150.556 205.126 150.336 204.595 150.556 205.79C150.777 206.986 151.926 206.986 150.866 207.65C149.805 208.314 148.656 208.624 147.993 207.03C147.331 205.436 147.331 204.817 147.331 203.754C147.331 202.692 147.198 203.489 147.728 201.674C148.259 199.859 147.375 200.478 147.817 198.486C148.259 196.494 148.17 194.369 148.612 192.908C149.054 191.447 150.026 191.845 149.054 190.518C148.082 189.189 147.905 189.411 147.066 188.525C146.226 187.64 146.756 187.817 146.27 186.754C145.784 185.692 145.475 185.781 145.077 184.984C144.679 184.187 144.458 184.452 144.856 183.124C145.254 181.796 144.37 181.841 145.254 181.442C146.137 181.044 146.005 180.07 145.873 179.716C145.74 179.361 146.535 179.228 145.298 179.051C144.061 178.874 143.707 179.273 143.265 178.52C142.824 177.767 143.177 177.635 142.249 177.192C141.321 176.749 140.305 176.749 139.951 176.395C139.598 176.041 139.598 176.041 139.598 176.041C139.598 176.041 140.261 175.775 138.758 175.598C137.256 175.421 136.151 175.598 135.4 174.536C134.648 173.473 134.825 174.093 134.648 173.119C134.472 172.145 134.251 172.145 133.544 171.525C132.837 170.906 132.837 170.551 132.174 170.286C131.511 170.02 131.379 170.109 131.379 170.241C131.379 170.374 131.334 170.906 131.953 171.392C132.572 171.879 132.616 172.322 132.616 172.543C132.616 172.765 131.776 173.03 131.776 173.03C131.776 173.03 131.776 172.765 131.511 172.145C131.246 171.525 131.157 171.215 130.627 170.463C130.097 169.71 129.964 169.622 129.964 169.622C129.964 169.622 129.346 168.648 128.285 167.364C127.225 166.08 126.915 166.877 126.915 165.416C126.915 163.955 127.181 163.955 126.915 162.937C126.65 161.919 126.032 161.432 126.562 161.255C127.092 161.078 127.401 160.812 126.429 159.971C125.457 159.13 125.103 159.573 124.75 158.422C124.397 157.271 125.148 157.359 123.69 156.828C122.231 156.297 122.055 155.854 121.392 155.544C120.729 155.235 120.331 155.058 120.331 155.058C120.331 155.058 120.464 154.925 118.873 154.792C117.282 154.659 117.459 153.907 116.266 154.393C115.073 154.881 114.896 154.969 114.896 154.969C114.896 154.969 115.559 154.172 114.41 154.261C113.261 154.349 113.526 154.615 113.482 155.146C113.438 155.678 113.615 156.297 112.819 156.607C112.024 156.917 110.875 157.758 111.317 156.873C111.759 155.987 112.863 155.368 112.465 155.146C112.068 154.925 111.228 155.633 111.14 154.925C111.051 154.216 111.228 153.862 110.3 153.818C109.372 153.774 108.621 153.375 109.328 153.065C110.035 152.755 110.698 152.888 110.919 152.136C111.14 151.383 112.775 151.206 110.963 151.25C109.151 151.294 108.356 151.294 108.577 150.94C108.798 150.586 108.71 149.922 109.991 150.099C111.273 150.275 111.273 149.744 110.964 149.39Z" fill="#9FA6A9"/>
</g>
<path d="M38.4946 187.114C38.3001 186.676 38.0573 186.311 37.7414 186.019C37.4011 185.727 37.0366 185.508 36.599 185.337C36.1859 185.191 35.724 185.118 35.2624 185.118C34.7762 185.118 34.3146 185.191 33.9015 185.337C33.8529 185.361 33.7801 185.386 33.7312 185.41C33.391 185.581 33.0508 185.775 32.7834 186.019C32.4432 186.311 32.2001 186.676 32.0055 187.115C31.811 187.529 31.7139 188.04 31.7139 188.576V193.494C31.7139 194.054 31.811 194.541 32.0055 194.979C32.1998 195.418 32.4429 195.759 32.7834 196.075C33.0993 196.367 33.4881 196.586 33.9012 196.732C34.3142 196.878 34.7762 196.951 35.2621 196.951C35.4809 196.951 35.724 196.927 35.9425 196.903C36.1613 196.854 36.4041 196.805 36.5987 196.732C37.0363 196.586 37.4008 196.367 37.741 196.075C38.057 195.759 38.3001 195.418 38.4943 194.979C38.6889 194.541 38.786 194.054 38.786 193.494V188.576C38.7863 188.04 38.6892 187.528 38.4946 187.114ZM36.6718 193.47C36.6718 193.981 36.5261 194.346 36.283 194.638C36.0399 194.882 35.7483 195.028 35.3838 195.052H35.2624C34.825 195.052 34.4845 194.906 34.2174 194.638C33.9743 194.346 33.8287 193.981 33.8287 193.47V188.624C33.8287 188.527 33.8287 188.454 33.8529 188.381C33.8529 188.356 33.8772 188.332 33.8772 188.332C33.9015 187.967 34.0229 187.699 34.2174 187.455C34.266 187.407 34.3146 187.358 34.3631 187.334C34.6062 187.115 34.8979 187.041 35.2624 187.041C35.6758 187.041 36.0157 187.163 36.2834 187.455C36.5265 187.748 36.6721 188.137 36.6721 188.624L36.6718 193.47Z" fill="#CECECF"/>
<path d="M44.133 185.215L41.7754 187.285V189.573L44.133 187.504V196.853H46.2717V185.215H44.133Z" fill="#CECECF"/>
<path d="M50.1846 185.215V188.965H52.2019V187.138H55.2882L51.4969 196.853H53.8056L57.5726 187.138V185.215H50.1846Z" fill="#CECECF"/>
<path d="M66.3223 187.114C66.1277 186.676 65.8849 186.311 65.569 186.019C65.2288 185.727 64.8643 185.508 64.4266 185.337C63.9893 185.191 63.5516 185.118 63.09 185.118C62.6038 185.118 62.1422 185.191 61.7291 185.337C61.2918 185.508 60.927 185.727 60.611 186.019C60.2708 186.311 60.0034 186.676 59.8332 187.114C59.6389 187.528 59.5415 188.04 59.5415 188.575V193.494C59.5415 194.054 59.6389 194.541 59.8332 194.979C60.0034 195.417 60.2708 195.758 60.611 196.075C60.927 196.367 61.2915 196.586 61.7291 196.732C62.1422 196.878 62.6041 196.951 63.09 196.951C63.5516 196.951 63.9893 196.878 64.4266 196.732C64.864 196.586 65.2288 196.367 65.569 196.075C65.8849 195.758 66.128 195.417 66.3223 194.979C66.5165 194.541 66.6139 194.054 66.6139 193.494V188.575C66.6136 188.04 66.5165 187.528 66.3223 187.114ZM64.4752 193.47C64.4752 193.981 64.3538 194.346 64.1107 194.638C63.8433 194.906 63.5031 195.052 63.09 195.052C62.6527 195.052 62.3125 194.906 62.0451 194.638C61.8023 194.346 61.6563 193.981 61.6563 193.47V188.624C61.6563 188.137 61.8023 187.747 62.0451 187.455C62.3125 187.163 62.6527 187.041 63.09 187.041C63.5031 187.041 63.8433 187.163 64.1107 187.455C64.3538 187.748 64.4752 188.137 64.4752 188.624V193.47Z" fill="#CECECF"/>
<path d="M84.1122 191.887C83.9665 191.449 83.7234 191.084 83.4318 190.792C83.1401 190.5 82.8242 190.281 82.4597 190.11C82.0952 189.964 81.7061 189.891 81.3173 189.891C81.1716 189.891 81.0256 189.891 80.8799 189.915C80.7343 189.939 80.5883 189.964 80.4669 190.037L81.2687 188.454L82.8727 185.216H80.564L80.3209 185.703V185.727L80.0292 186.312L78.1093 190.256C78.085 190.305 78.0607 190.354 78.0365 190.402C77.7934 190.889 77.5991 191.352 77.4289 191.814C77.2343 192.301 77.1372 192.837 77.1372 193.373C77.1372 193.933 77.21 194.444 77.4046 194.906C77.5991 195.345 77.8419 195.734 78.1825 196.026C78.4256 196.27 78.6684 196.441 78.9843 196.587H79.0086C79.106 196.635 79.2274 196.684 79.3245 196.733C79.7619 196.879 80.2481 196.952 80.7586 196.952C81.2687 196.952 81.7307 196.879 82.168 196.709C82.6296 196.562 82.9944 196.319 83.3346 196.002L83.3589 195.978C83.6749 195.661 83.918 195.321 84.0879 194.858C84.2825 194.42 84.3796 193.908 84.3796 193.324C84.3796 192.788 84.2825 192.325 84.1122 191.887ZM80.7586 191.644C81.2202 191.644 81.5847 191.79 81.8524 192.107C82.1198 192.399 82.2654 192.837 82.2654 193.348C82.2654 193.884 82.1198 194.322 81.8281 194.614C81.5364 194.906 81.1962 195.053 80.7586 195.053C80.3212 195.053 79.9564 194.906 79.6647 194.614C79.3974 194.322 79.2517 193.884 79.2517 193.348C79.2517 192.813 79.3974 192.374 79.6647 192.082C79.9564 191.79 80.3209 191.644 80.7586 191.644Z" fill="#CECECF"/>
<path d="M93.493 191.303C93.3959 190.791 93.1039 190.28 92.6423 189.842C92.3992 189.598 92.1079 189.404 91.7431 189.257C91.3786 189.111 90.9655 189.039 90.455 189.039C90.0662 189.039 89.726 189.112 89.4101 189.233C89.0941 189.355 88.8753 189.477 88.7296 189.623V187.139H93.4202V185.216H86.7854V191.79H88.7296C88.8025 191.571 88.9485 191.352 89.167 191.157C89.3126 191.011 89.4829 190.913 89.726 190.889C89.8474 190.84 89.9934 190.84 90.1391 190.84C90.6735 190.84 91.0383 191.035 91.2326 191.376C91.4514 191.741 91.5728 192.253 91.5728 192.934C91.5728 193.299 91.5242 193.64 91.4753 193.957C91.4753 194.006 91.4511 194.03 91.4268 194.055C91.4268 194.079 91.4268 194.079 91.4268 194.079C91.354 194.322 91.2568 194.517 91.1108 194.663C90.8435 194.931 90.5275 195.053 90.0902 195.053C89.6529 195.053 89.3123 194.931 89.0938 194.663C88.875 194.42 88.7293 194.079 88.6808 193.616H86.542C86.5905 194.03 86.6634 194.444 86.7851 194.858C86.9065 195.296 87.1253 195.661 87.4898 196.027C87.7329 196.295 88.0974 196.49 88.5351 196.684C88.9481 196.879 89.4829 196.952 90.0905 196.952C90.3093 196.952 90.4793 196.952 90.6496 196.903H90.6738C91.0383 196.879 91.3543 196.806 91.6459 196.685C92.059 196.49 92.3992 196.27 92.6666 196.027C93.08 195.589 93.347 195.126 93.493 194.639C93.6144 194.152 93.6876 193.592 93.6876 192.935C93.6876 192.374 93.6144 191.838 93.493 191.303Z" fill="#CECECF"/>
<path d="M95.7051 185.215V188.965H97.7224V187.138H100.809L97.042 196.853H99.3264L103.118 187.138V185.215H95.7051Z" fill="#CECECF"/>
<path d="M111.963 187.188C111.793 186.725 111.526 186.36 111.21 186.043C110.87 185.751 110.505 185.508 110.044 185.362C109.607 185.191 109.145 185.118 108.634 185.118C108.124 185.118 107.638 185.191 107.2 185.362C106.763 185.532 106.374 185.776 106.034 186.068C105.718 186.384 105.475 186.774 105.28 187.212C105.086 187.674 104.989 188.186 104.989 188.746C104.989 189.306 105.086 189.793 105.256 190.207C105.426 190.621 105.67 190.986 105.937 191.278C106.228 191.57 106.568 191.814 106.933 191.96C107.297 192.13 107.686 192.203 108.075 192.203C108.221 192.203 108.367 192.203 108.513 192.179C108.658 192.155 108.804 192.106 108.926 192.057L106.52 196.854H108.828L111.283 191.838C111.55 191.303 111.769 190.767 111.963 190.28C112.158 189.769 112.255 189.257 112.255 188.722C112.255 188.137 112.158 187.626 111.963 187.188ZM109.703 189.988C109.412 190.28 109.071 190.426 108.634 190.426C108.172 190.426 107.808 190.28 107.54 189.988C107.249 189.671 107.127 189.257 107.127 188.746C107.127 188.186 107.273 187.772 107.54 187.48C107.832 187.188 108.196 187.041 108.634 187.041C109.071 187.041 109.412 187.188 109.703 187.48C109.995 187.772 110.116 188.186 110.116 188.746C110.117 189.282 109.995 189.696 109.703 189.988Z" fill="#CECECF"/>
<path d="M125.889 185.215L123.507 187.285V189.573L125.889 187.504V196.853H128.004V185.215H125.889Z" fill="#CECECF"/>
<path d="M131.917 185.215V188.965H133.958V187.138H137.02L133.253 196.853H135.562L139.329 187.138V185.215H131.917Z" fill="#CECECF"/>
<path d="M144.433 185.215L142.075 187.285V189.573L144.433 187.504V196.853H146.571V185.215H144.433Z" fill="#CECECF"/>
<path d="M157.459 187.188C157.289 186.725 157.022 186.36 156.706 186.043C156.366 185.751 156.001 185.508 155.539 185.362C155.102 185.191 154.64 185.118 154.13 185.118C153.62 185.118 153.134 185.191 152.696 185.362C152.259 185.532 151.87 185.776 151.529 186.068C151.213 186.384 150.946 186.774 150.776 187.212C150.581 187.674 150.484 188.186 150.484 188.746C150.484 189.306 150.581 189.793 150.752 190.207C150.922 190.621 151.165 190.986 151.432 191.278C151.724 191.57 152.04 191.814 152.429 191.96C152.793 192.13 153.182 192.203 153.571 192.203C153.716 192.203 153.862 192.203 154.008 192.179C154.154 192.155 154.3 192.106 154.421 192.057L152.015 196.854H154.324L156.779 191.838C157.046 191.303 157.265 190.767 157.459 190.28C157.653 189.769 157.751 189.257 157.751 188.722C157.751 188.137 157.654 187.626 157.459 187.188ZM155.199 189.988C154.908 190.28 154.567 190.426 154.13 190.426C153.668 190.426 153.304 190.28 153.036 189.988C152.745 189.671 152.623 189.257 152.623 188.746C152.623 188.186 152.769 187.772 153.036 187.48C153.328 187.188 153.692 187.041 154.13 187.041C154.567 187.041 154.908 187.188 155.199 187.48C155.491 187.772 155.612 188.186 155.612 188.746C155.612 189.282 155.491 189.696 155.199 189.988Z" fill="#CECECF"/>
<path d="M114.685 215.87C114.54 215.554 114.345 215.286 114.126 215.067C113.883 214.848 113.616 214.677 113.3 214.58C112.984 214.458 112.644 214.409 112.303 214.409C111.939 214.409 111.623 214.458 111.307 214.58C110.991 214.677 110.724 214.848 110.481 215.067C110.237 215.286 110.043 215.554 109.897 215.87C109.776 216.187 109.703 216.552 109.703 216.941V220.545C109.703 220.959 109.775 221.324 109.897 221.641C110.043 221.957 110.237 222.225 110.481 222.444C110.724 222.663 110.991 222.834 111.307 222.931C111.623 223.053 111.939 223.101 112.303 223.101C112.644 223.101 112.984 223.053 113.3 222.931C113.616 222.834 113.883 222.663 114.126 222.444C114.345 222.225 114.539 221.957 114.685 221.641C114.831 221.324 114.88 220.959 114.88 220.545V216.941C114.88 216.552 114.831 216.187 114.685 215.87ZM113.324 220.545C113.324 220.91 113.227 221.178 113.057 221.397C112.862 221.592 112.62 221.689 112.304 221.689C111.988 221.689 111.745 221.592 111.55 221.397C111.356 221.178 111.259 220.91 111.259 220.545V216.966C111.259 216.626 111.356 216.333 111.55 216.114C111.745 215.919 111.988 215.822 112.304 215.822C112.62 215.822 112.863 215.919 113.057 216.114C113.227 216.333 113.324 216.625 113.324 216.966V220.545Z" fill="#CECECF"/>
<path d="M121.636 218.963C121.563 218.573 121.344 218.208 121.004 217.867C120.834 217.697 120.615 217.55 120.348 217.453C120.081 217.331 119.765 217.283 119.4 217.283C119.133 217.283 118.866 217.331 118.647 217.428C118.404 217.501 118.234 217.599 118.137 217.721V215.87H121.588V214.482H116.703V219.303H118.137C118.185 219.133 118.307 218.987 118.453 218.841C118.623 218.695 118.841 218.598 119.182 218.598C119.546 218.598 119.814 218.744 119.983 219.012C120.129 219.279 120.202 219.645 120.202 220.156C120.202 220.424 120.202 220.667 120.154 220.887C120.105 221.106 120.008 221.276 119.886 221.422C119.692 221.617 119.449 221.69 119.133 221.69C118.817 221.69 118.55 221.617 118.404 221.422C118.234 221.227 118.137 220.984 118.088 220.643H116.533C116.557 220.959 116.606 221.251 116.703 221.568C116.8 221.86 116.97 222.152 117.238 222.42C117.408 222.591 117.675 222.761 117.991 222.907C118.307 223.029 118.696 223.102 119.133 223.102C119.57 223.102 119.96 223.029 120.275 222.907C120.567 222.761 120.835 222.591 121.029 222.396C121.32 222.104 121.539 221.763 121.636 221.398C121.733 221.057 121.782 220.618 121.782 220.156C121.782 219.742 121.733 219.352 121.636 218.963Z" fill="#CECECF"/>
<path d="M126.084 213.582L122.657 223.93H124.115L127.542 213.582H126.084Z" fill="#CECECF"/>
<path d="M130.774 214.482L129.024 215.992V217.672L130.774 216.163V223.029H132.329V214.482H130.774Z" fill="#CECECF"/>
<path d="M137.579 214.482L135.829 215.992V217.672L137.579 216.163V223.029H139.135V214.482H137.579Z" fill="#CECECF"/>
<path d="M142.124 218.865V220.326H145.818V218.865H142.124Z" fill="#CECECF"/>
<path d="M152.477 215.87C152.331 215.554 152.137 215.286 151.894 215.067C151.675 214.848 151.383 214.677 151.067 214.58C150.751 214.458 150.436 214.409 150.095 214.409C149.731 214.409 149.415 214.458 149.099 214.58C148.783 214.677 148.516 214.848 148.273 215.067C148.029 215.286 147.835 215.554 147.689 215.87C147.543 216.187 147.495 216.552 147.495 216.941V220.545C147.495 220.959 147.543 221.324 147.689 221.641C147.835 221.957 148.029 222.225 148.273 222.444C148.516 222.663 148.783 222.834 149.099 222.931C149.415 223.053 149.731 223.101 150.095 223.101C150.436 223.101 150.751 223.053 151.067 222.931C151.383 222.834 151.675 222.663 151.894 222.444C152.137 222.225 152.331 221.957 152.477 221.641C152.598 221.324 152.671 220.959 152.671 220.545V216.941C152.671 216.552 152.598 216.187 152.477 215.87ZM151.116 220.545C151.116 220.91 151.018 221.178 150.824 221.397C150.654 221.592 150.387 221.689 150.095 221.689C149.779 221.689 149.512 221.592 149.342 221.397C149.147 221.178 149.05 220.91 149.05 220.545V216.966C149.05 216.626 149.147 216.333 149.342 216.114C149.512 215.919 149.779 215.822 150.095 215.822C150.387 215.822 150.654 215.919 150.824 216.114C151.019 216.333 151.116 216.625 151.116 216.966V220.545Z" fill="#CECECF"/>
<path d="M159.282 215.87C159.136 215.554 158.941 215.286 158.723 215.067C158.479 214.848 158.212 214.677 157.896 214.58C157.58 214.458 157.24 214.409 156.9 214.409C156.535 214.409 156.219 214.458 155.903 214.58C155.587 214.677 155.32 214.848 155.077 215.067C154.834 215.286 154.64 215.554 154.494 215.87C154.372 216.187 154.299 216.552 154.299 216.941V220.545C154.299 220.959 154.372 221.324 154.494 221.641C154.639 221.957 154.834 222.225 155.077 222.444C155.32 222.663 155.587 222.834 155.903 222.931C156.219 223.053 156.535 223.101 156.9 223.101C157.24 223.101 157.58 223.053 157.896 222.931C158.212 222.834 158.48 222.663 158.723 222.444C158.941 222.225 159.136 221.957 159.282 221.641C159.427 221.324 159.476 220.959 159.476 220.545V216.941C159.476 216.552 159.428 216.187 159.282 215.87ZM157.921 220.545C157.921 220.91 157.823 221.178 157.653 221.397C157.459 221.592 157.216 221.689 156.9 221.689C156.584 221.689 156.341 221.592 156.147 221.397C155.952 221.178 155.855 220.91 155.855 220.545V216.966C155.855 216.626 155.952 216.333 156.147 216.114C156.341 215.919 156.584 215.822 156.9 215.822C157.216 215.822 157.459 215.919 157.653 216.114C157.824 216.333 157.921 216.625 157.921 216.966V220.545Z" fill="#CECECF"/>
<path d="M32.9287 199.849V200.628H34.0954V204.305H34.9704V200.628H36.137V199.849H32.9287Z" fill="#CECECF"/>
<path d="M40.0739 201.017C40.0253 200.871 40.0007 200.75 39.9282 200.628C39.8797 200.506 39.7822 200.384 39.6608 200.263C39.5152 200.117 39.3449 199.995 39.1507 199.922C38.9561 199.849 38.7373 199.8 38.4945 199.8C38.2271 199.8 38.0083 199.848 37.8141 199.922C37.6198 199.995 37.4496 200.117 37.3039 200.263C37.1825 200.384 37.0851 200.506 37.0365 200.628C36.9634 200.75 36.9391 200.871 36.8908 201.017C36.8666 201.164 36.8666 201.334 36.8423 201.504V202.649C36.8666 202.819 36.8666 202.965 36.8908 203.111C36.9394 203.257 36.9637 203.404 37.0365 203.525C37.0851 203.623 37.1822 203.744 37.3039 203.866C37.4496 204.012 37.6198 204.134 37.8141 204.207C38.0086 204.305 38.2274 204.329 38.4945 204.329C38.7376 204.329 38.9564 204.305 39.1507 204.207C39.3449 204.134 39.5152 204.012 39.6608 203.866C39.7822 203.744 39.8797 203.622 39.9282 203.525C40.0011 203.404 40.0253 203.257 40.0739 203.111C40.0982 202.965 40.1225 202.819 40.1225 202.649V201.504C40.1225 201.334 40.0982 201.164 40.0739 201.017ZM39.2475 202.6C39.2475 202.746 39.2232 202.843 39.1989 202.941C39.1989 203.038 39.1746 203.111 39.1504 203.16C39.1261 203.209 39.0772 203.257 39.0286 203.306C38.9801 203.379 38.9072 203.452 38.8101 203.476C38.713 203.525 38.6156 203.549 38.4942 203.549C38.3728 203.549 38.2514 203.525 38.154 203.476C38.0811 203.452 37.9837 203.379 37.9112 203.306C37.8869 203.257 37.838 203.209 37.8138 203.16C37.7895 203.111 37.7652 203.038 37.7652 202.941C37.7409 202.843 37.7166 202.746 37.7166 202.6V201.529C37.7166 201.407 37.7409 201.285 37.7652 201.188C37.7652 201.09 37.7895 201.017 37.8138 200.969C37.838 200.92 37.8866 200.871 37.9112 200.823C37.984 200.75 38.0815 200.701 38.154 200.652C38.2514 200.604 38.3728 200.579 38.4942 200.579C38.6156 200.579 38.713 200.604 38.8101 200.652C38.9072 200.701 38.9804 200.75 39.0286 200.823C39.0772 200.871 39.1261 200.92 39.1504 200.969C39.1746 201.017 39.1989 201.091 39.1989 201.188C39.2232 201.285 39.2475 201.407 39.2475 201.529V202.6Z" fill="#CECECF"/>
<path d="M44.2541 200.701C44.2055 200.531 44.1084 200.384 43.9624 200.263C43.841 200.117 43.695 200.02 43.5008 199.946C43.3305 199.873 43.112 199.849 42.8932 199.849H41.1675V204.305H42.0425V202.625H42.8929C43.1117 202.625 43.3302 202.576 43.5005 202.503C43.695 202.43 43.8407 202.332 43.9621 202.21C44.1081 202.089 44.2052 201.943 44.2537 201.772C44.3269 201.602 44.3509 201.407 44.3509 201.237C44.3512 201.042 44.3272 200.872 44.2541 200.701ZM43.3305 201.675C43.2091 201.773 43.0389 201.846 42.8443 201.846H42.0425V200.628H42.8443C43.0389 200.628 43.2088 200.677 43.3305 200.775C43.4276 200.896 43.5008 201.042 43.5008 201.237C43.5008 201.408 43.4276 201.554 43.3305 201.675Z" fill="#CECECF"/>
<path d="M48.1673 200.628V199.849H45.251V204.305H48.1673V203.525H46.126V202.43H47.8756V201.651H46.126V200.628H48.1673Z" fill="#CECECF"/>
<path d="M51.1806 203.379C51.0592 203.501 50.8889 203.55 50.6704 203.55C50.549 203.55 50.4516 203.525 50.3545 203.501C50.2574 203.452 50.1842 203.404 50.1114 203.331C50.0871 203.282 50.0385 203.233 50.0143 203.16C49.99 203.112 49.9657 203.038 49.9414 202.941C49.9414 202.844 49.9171 202.747 49.9171 202.601C49.9171 202.454 49.8929 202.284 49.8929 202.065C49.8929 201.846 49.9171 201.675 49.9171 201.529C49.9171 201.408 49.9414 201.286 49.9414 201.189C49.9657 201.091 49.99 201.018 50.0143 200.97C50.0385 200.921 50.0871 200.848 50.1114 200.823C50.1842 200.75 50.2574 200.677 50.3545 200.653C50.4516 200.604 50.549 200.58 50.6704 200.58C50.8889 200.58 51.0592 200.629 51.1806 200.751C51.3023 200.872 51.3751 201.018 51.4237 201.213H52.2987C52.2259 200.751 52.0313 200.385 51.7396 200.166C51.448 199.922 51.0835 199.801 50.6704 199.801C50.4273 199.801 50.1842 199.849 49.99 199.923C49.8197 199.996 49.6255 200.118 49.4798 200.264C49.3824 200.385 49.2853 200.507 49.2124 200.629C49.1639 200.751 49.1153 200.872 49.091 201.018C49.0668 201.165 49.0425 201.335 49.0425 201.505V202.65C49.0425 202.82 49.0668 202.966 49.091 203.112C49.1153 203.258 49.1642 203.405 49.2124 203.526C49.2856 203.624 49.3827 203.745 49.4798 203.867C49.6255 204.013 49.82 204.135 49.99 204.208C50.1845 204.305 50.4273 204.33 50.6704 204.33C51.0835 204.33 51.4483 204.208 51.7396 203.989C52.0313 203.745 52.2259 203.405 52.2987 202.917H51.4237C51.3751 203.111 51.3023 203.257 51.1806 203.379Z" fill="#CECECF"/>
<path d="M56.3332 201.504C56.3332 201.334 56.3089 201.164 56.2847 201.017C56.2604 200.871 56.2115 200.75 56.139 200.628C56.0904 200.506 55.9933 200.384 55.8959 200.263C55.7502 200.117 55.5799 199.995 55.3857 199.922C55.1912 199.849 54.9723 199.8 54.7053 199.8C54.4379 199.8 54.2191 199.848 54.0248 199.922C53.8303 199.995 53.6603 200.117 53.5144 200.263C53.393 200.384 53.3198 200.506 53.247 200.628C53.1984 200.75 53.1495 200.871 53.1256 201.017C53.1013 201.164 53.077 201.334 53.077 201.504C53.077 201.675 53.0527 201.845 53.0527 202.064C53.0527 202.283 53.077 202.479 53.077 202.649C53.077 202.819 53.1013 202.965 53.1256 203.112C53.1498 203.258 53.1984 203.404 53.247 203.526C53.3198 203.623 53.3926 203.745 53.5144 203.866C53.66 204.013 53.8303 204.134 54.0248 204.207C54.2191 204.305 54.4379 204.329 54.7053 204.329C54.9727 204.329 55.1915 204.305 55.3857 204.207C55.5799 204.134 55.7502 204.013 55.8959 203.866C55.9933 203.745 56.0904 203.623 56.139 203.526C56.2118 203.404 56.2604 203.258 56.2847 203.112C56.3089 202.965 56.3332 202.819 56.3332 202.649C56.3332 202.479 56.3575 202.284 56.3575 202.064C56.3575 201.845 56.3332 201.675 56.3332 201.504ZM55.4582 202.6C55.4582 202.746 55.434 202.843 55.434 202.941C55.4097 203.038 55.3854 203.111 55.3611 203.16C55.3368 203.209 55.3126 203.257 55.264 203.306C55.1909 203.379 55.1183 203.452 55.0209 203.476C54.9238 203.525 54.8264 203.549 54.705 203.549C54.5836 203.549 54.4865 203.525 54.389 203.476C54.2919 203.452 54.2187 203.379 54.1459 203.306C54.0974 203.257 54.0731 203.209 54.0488 203.16C54.0002 203.111 54.0002 203.038 53.9756 202.941C53.9514 202.843 53.9514 202.746 53.9271 202.6V201.529C53.9514 201.407 53.9514 201.285 53.9756 201.188C53.9999 201.09 53.9999 201.017 54.0488 200.969C54.0731 200.92 54.0974 200.871 54.1459 200.823C54.2187 200.75 54.2916 200.701 54.389 200.652C54.4865 200.604 54.5836 200.579 54.705 200.579C54.8264 200.579 54.9238 200.604 55.0209 200.652C55.1183 200.701 55.1912 200.75 55.264 200.823C55.3126 200.871 55.3368 200.92 55.3611 200.969C55.3854 201.017 55.4097 201.091 55.434 201.188C55.434 201.285 55.4582 201.407 55.4582 201.529C55.4825 201.675 55.4825 201.845 55.4825 202.064C55.4825 202.283 55.4825 202.454 55.4582 202.6Z" fill="#CECECF"/>
<path d="M59.9297 199.849V202.576L58.1558 199.849H57.3779V204.305H58.2529V201.553L60.0269 204.305H60.8044V199.849H59.9297Z" fill="#CECECF"/>
<path d="M66.7589 202.601C66.7103 202.479 66.6375 202.357 66.54 202.26C66.4915 202.211 66.4429 202.162 66.3944 202.138C66.3458 202.089 66.2973 202.065 66.2001 202.016C66.5646 201.797 66.7592 201.505 66.7592 201.066C66.7592 200.872 66.7106 200.701 66.6621 200.555C66.5892 200.409 66.4918 200.287 66.3704 200.166C66.2733 200.093 66.2005 200.044 66.0788 199.996C66.0545 199.971 66.0059 199.947 65.9574 199.923C65.7628 199.874 65.5929 199.85 65.374 199.85H63.6001V204.306H65.4472C65.6657 204.306 65.8602 204.257 66.0062 204.208C66.1765 204.135 66.3222 204.062 66.4436 203.94C66.565 203.843 66.6624 203.697 66.711 203.551C66.7838 203.405 66.8084 203.21 66.8084 203.015C66.8074 202.868 66.7832 202.722 66.7589 202.601ZM64.4498 200.628H65.3006C65.3491 200.628 65.398 200.628 65.4223 200.653C65.5679 200.653 65.6408 200.677 65.7382 200.75C65.8353 200.848 65.8839 200.969 65.8839 201.14C65.8839 201.286 65.8353 201.408 65.7382 201.505C65.6165 201.602 65.4951 201.651 65.3006 201.651H64.4498V200.628ZM65.7868 203.38C65.6897 203.477 65.5437 203.526 65.3737 203.526H64.4502V202.43H65.3737C65.544 202.43 65.6897 202.479 65.7868 202.576C65.8842 202.674 65.957 202.796 65.957 202.966C65.9567 203.136 65.8839 203.282 65.7868 203.38Z" fill="#CECECF"/>
<path d="M69.6754 199.849H68.995L67.3667 204.305H68.266L68.5334 203.501H70.1131L70.3804 204.305H71.2797L69.6754 199.849ZM68.7761 202.771L69.3595 201.164L69.8942 202.771H68.7761Z" fill="#CECECF"/>
<path d="M74.5363 199.849V202.576L72.7621 199.849H72.0088V204.305H72.8595V201.553L74.6338 204.305H75.4116V199.849H74.5363Z" fill="#CECECF"/>
<path d="M78.6189 201.602L80.0769 199.849H79.032L77.4523 201.772V199.849H76.6016V204.305H77.4523V202.965L78.0356 202.259L79.1777 204.304H80.1983L78.6189 201.602Z" fill="#CECECF"/>
<path d="M125.039 171.946C124.917 172.068 124.747 172.117 124.529 172.117C124.407 172.117 124.31 172.092 124.213 172.043C124.115 172.019 124.042 171.946 123.97 171.897C123.945 171.848 123.897 171.799 123.872 171.727C123.848 171.678 123.824 171.605 123.8 171.508C123.8 171.41 123.775 171.289 123.775 171.167C123.775 171.021 123.751 170.85 123.751 170.631C123.751 170.412 123.775 170.242 123.775 170.095C123.775 169.949 123.8 169.852 123.8 169.755C123.824 169.657 123.848 169.584 123.872 169.536C123.897 169.463 123.945 169.414 123.97 169.365C124.042 169.292 124.115 169.243 124.213 169.195C124.31 169.171 124.407 169.147 124.529 169.147C124.747 169.147 124.917 169.195 125.039 169.317C125.16 169.438 125.233 169.585 125.282 169.779H126.157C126.084 169.292 125.89 168.952 125.598 168.708C125.306 168.489 124.942 168.367 124.529 168.367C124.286 168.367 124.042 168.416 123.872 168.489C123.678 168.562 123.508 168.684 123.338 168.83C123.241 168.952 123.143 169.073 123.095 169.195C123.022 169.292 122.973 169.438 122.949 169.584C122.925 169.731 122.9 169.877 122.9 170.047V171.216C122.9 171.386 122.925 171.532 122.949 171.678C122.973 171.824 123.022 171.946 123.095 172.068C123.143 172.19 123.241 172.311 123.338 172.433C123.508 172.579 123.678 172.701 123.872 172.774C124.043 172.847 124.286 172.896 124.529 172.896C124.942 172.896 125.306 172.774 125.598 172.53C125.89 172.311 126.084 171.946 126.157 171.484H125.282C125.233 171.678 125.16 171.824 125.039 171.946Z" fill="#CECECF"/>
<path d="M129.438 170.923C129.559 170.899 129.657 170.85 129.754 170.777C129.851 170.704 129.948 170.631 130.021 170.533C130.094 170.436 130.143 170.314 130.191 170.193C130.216 170.119 130.24 170.022 130.24 169.925C130.264 169.876 130.264 169.803 130.264 169.754C130.264 169.584 130.216 169.389 130.167 169.243C130.094 169.073 129.997 168.926 129.875 168.804C129.754 168.683 129.608 168.586 129.414 168.513C129.316 168.464 129.244 168.439 129.122 168.415H129.098C129 168.391 128.903 168.391 128.806 168.391H127.081V172.846H127.931V171.069H128.563L129.438 172.846H130.435L129.438 170.923ZM129.219 170.193C129.098 170.29 128.952 170.363 128.758 170.363H127.931V169.17H128.758C128.952 169.17 129.098 169.218 129.219 169.34C129.341 169.438 129.39 169.584 129.39 169.754C129.389 169.949 129.341 170.071 129.219 170.193Z" fill="#CECECF"/>
<path d="M134.25 169.171V168.392H131.309V172.847H134.25V172.068H132.184V170.997H133.934V170.218H132.184V169.171H134.25Z" fill="#CECECF"/>
<path d="M138.454 169.828C138.454 169.779 138.43 169.731 138.43 169.706C138.43 169.584 138.382 169.463 138.357 169.365C138.309 169.244 138.26 169.146 138.187 169.049C138.041 168.83 137.847 168.659 137.628 168.562C137.409 168.465 137.166 168.392 136.85 168.392H135.246V172.847H136.85C137.166 172.847 137.409 172.799 137.628 172.701C137.75 172.653 137.847 172.579 137.944 172.506C138.041 172.433 138.114 172.336 138.187 172.214C138.26 172.117 138.308 172.02 138.357 171.898C138.382 171.8 138.43 171.679 138.43 171.557C138.454 171.435 138.454 171.289 138.479 171.143V170.12C138.454 170.023 138.454 169.926 138.454 169.828ZM137.604 171.094C137.604 171.216 137.579 171.313 137.579 171.411C137.555 171.508 137.555 171.581 137.531 171.63C137.507 171.703 137.458 171.751 137.434 171.8C137.288 171.995 137.069 172.068 136.778 172.068H136.121V169.17H136.778C137.069 169.17 137.288 169.268 137.434 169.462C137.458 169.511 137.507 169.56 137.531 169.633C137.555 169.682 137.555 169.755 137.579 169.852C137.579 169.949 137.604 170.047 137.604 170.169V171.094Z" fill="#CECECF"/>
<path d="M139.523 168.392V172.847H140.374V168.392H139.523Z" fill="#CECECF"/>
<path d="M141.25 168.392V169.171H142.416V172.847H143.267V169.171H144.434V168.392H141.25Z" fill="#CECECF"/>
<path d="M148.905 171.946C148.783 172.068 148.613 172.117 148.394 172.117C148.273 172.117 148.176 172.092 148.078 172.043C147.981 172.019 147.908 171.946 147.835 171.897C147.811 171.848 147.762 171.799 147.738 171.727C147.714 171.678 147.689 171.605 147.665 171.508C147.665 171.41 147.641 171.289 147.641 171.167C147.617 171.021 147.617 170.85 147.617 170.631C147.617 170.412 147.617 170.242 147.641 170.095C147.641 169.949 147.665 169.852 147.665 169.755C147.689 169.657 147.714 169.584 147.738 169.536C147.762 169.463 147.811 169.414 147.835 169.365C147.908 169.292 147.981 169.243 148.078 169.195C148.175 169.171 148.272 169.147 148.394 169.147C148.613 169.147 148.783 169.195 148.905 169.317C149.026 169.438 149.099 169.585 149.148 169.779H150.023C149.95 169.292 149.755 168.952 149.464 168.708C149.172 168.489 148.807 168.367 148.394 168.367C148.151 168.367 147.908 168.416 147.714 168.489C147.544 168.562 147.349 168.684 147.203 168.83C147.082 168.952 147.009 169.073 146.936 169.195C146.888 169.292 146.839 169.438 146.815 169.584C146.79 169.731 146.766 169.877 146.766 170.047V171.216C146.766 171.386 146.79 171.532 146.815 171.678C146.839 171.824 146.888 171.946 146.936 172.068C147.009 172.19 147.082 172.311 147.203 172.433C147.349 172.579 147.544 172.701 147.714 172.774C147.908 172.847 148.151 172.896 148.394 172.896C148.808 172.896 149.172 172.774 149.464 172.53C149.755 172.311 149.95 171.946 150.023 171.484H149.148C149.099 171.678 149.026 171.824 148.905 171.946Z" fill="#CECECF"/>
<path d="M152.745 168.392H152.064L150.436 172.847H151.36L151.627 172.068H153.207L153.474 172.847H154.373L152.745 168.392ZM151.87 171.338L152.429 169.706L152.964 171.338H151.87Z" fill="#CECECF"/>
<path d="M157.435 170.923C157.556 170.899 157.653 170.85 157.751 170.777C157.848 170.704 157.945 170.631 158.018 170.533C158.091 170.436 158.14 170.314 158.188 170.193C158.237 170.071 158.261 169.925 158.261 169.754C158.261 169.584 158.237 169.389 158.164 169.243C158.091 169.073 157.994 168.926 157.873 168.804C157.751 168.683 157.605 168.586 157.411 168.513C157.241 168.439 157.046 168.391 156.828 168.391H155.078V172.846H155.953V171.069H156.56L157.435 172.846H158.432L157.435 170.923ZM157.216 170.193C157.095 170.29 156.949 170.363 156.754 170.363H155.953V169.17H156.754C156.949 169.17 157.095 169.218 157.216 169.34C157.338 169.438 157.386 169.584 157.386 169.754C157.386 169.949 157.338 170.071 157.216 170.193Z" fill="#CECECF"/>
<path d="M162.514 169.706C162.49 169.584 162.466 169.463 162.417 169.365C162.393 169.244 162.32 169.146 162.272 169.049C162.101 168.83 161.907 168.659 161.688 168.562C161.494 168.465 161.227 168.392 160.911 168.392H159.307V172.847H160.911C161.227 172.847 161.494 172.799 161.688 172.701C161.907 172.604 162.101 172.433 162.272 172.214C162.32 172.117 162.393 172.02 162.417 171.898C162.466 171.8 162.49 171.679 162.514 171.557C162.514 171.435 162.539 171.289 162.539 171.143V170.12C162.539 169.974 162.514 169.828 162.514 169.706ZM161.664 171.094C161.664 171.216 161.664 171.313 161.64 171.411C161.64 171.508 161.615 171.581 161.591 171.63C161.567 171.703 161.543 171.751 161.494 171.8C161.348 171.995 161.129 172.068 160.837 172.068H160.181V169.17H160.837C161.129 169.17 161.348 169.268 161.494 169.462C161.542 169.511 161.566 169.56 161.591 169.633C161.615 169.682 161.64 169.755 161.64 169.852C161.664 169.949 161.664 170.047 161.664 170.169V171.094Z" fill="#CECECF"/>
<path d="M162.993 128.042V145.202C162.993 145.893 162.429 146.458 161.74 146.458H140.642C139.953 146.458 139.389 145.893 139.389 145.202V128.042C139.389 127.351 139.953 126.786 140.642 126.786H161.74C162.429 126.786 162.993 127.351 162.993 128.042Z" fill="#F7D072"/>
<path opacity="0.2" d="M158.358 130.943L162.028 127.267H160.837L157.678 130.456L157.192 130.943L156.828 131.284L154.324 133.792H148.88L148.394 133.305L146.377 131.284L145.575 130.456L142.391 127.267H141.2L144.36 130.456L144.846 130.943H139.815V131.771H145.696L147.252 133.354L147.665 133.792V134.766H139.815V135.618H147.665V138.613H139.815V139.44H147.665V140.439H147.713L146.182 141.949L145.696 142.436H139.815V143.288H144.846L141.686 146.453H142.877L146.037 143.288L148.88 140.44H154.324L160.351 146.454H161.518L158.358 143.288H163V142.436H157.532L155.539 140.44V139.441H163V138.614H155.539V135.619H163V134.767H155.539V133.793L157.532 131.772H163V130.944H158.358V130.943ZM154.713 139.587H148.491V134.62H154.713V139.587Z" fill="white"/>
<path d="M148.467 133.306L149.294 134.133H153.085L153.425 133.793L153.911 133.306H148.467ZM148.467 133.306L149.294 134.133H153.085L153.425 133.793L153.911 133.306H148.467ZM148.467 133.306L149.294 134.133H153.085L153.425 133.793L153.911 133.306H148.467ZM148.467 133.306L149.294 134.133H153.085L153.425 133.793L153.911 133.306H148.467ZM153.571 139.588L153.085 139.101H149.294L148.832 139.588H148.808L148.467 139.953H153.911L153.571 139.588ZM148.467 133.306L149.294 134.133H153.085L153.425 133.793L153.911 133.306H148.467ZM147.252 133.306V139.953H155.126V133.306H147.252ZM154.3 139.101H148.078V134.134H154.3V139.101ZM148.467 133.306L149.294 134.133H153.085L153.425 133.793L153.911 133.306H148.467ZM148.467 133.306L149.294 134.133H153.085L153.425 133.793L153.911 133.306H148.467ZM148.467 133.306L149.294 134.133H153.085L153.425 133.793L153.911 133.306H148.467ZM148.467 133.306L149.294 134.133H153.085L153.425 133.793L153.911 133.306H148.467ZM148.467 133.306L149.294 134.133H153.085L153.425 133.793L153.911 133.306H148.467ZM148.467 133.306L149.294 134.133H153.085L153.425 133.793L153.911 133.306H148.467Z" fill="#717070"/>
<path d="M145.618 130.448L146.453 131.285H139.388V130.448H145.618Z" fill="#717070"/>
<path d="M162.992 130.448V131.285H155.926L156.762 130.448H162.992Z" fill="#717070"/>
<path d="M148.083 134.285H139.388V135.122H148.083V134.285Z" fill="#717070"/>
<path d="M162.992 134.285H154.297V135.122H162.992V134.285Z" fill="#717070"/>
<path d="M148.083 138.123H139.388V138.96H148.083V138.123Z" fill="#717070"/>
<path d="M162.992 138.123H154.297V138.96H162.992V138.123Z" fill="#717070"/>
<path d="M146.454 141.958L145.619 142.795H139.388V141.958H146.454Z" fill="#717070"/>
<path d="M162.992 141.958V142.795H156.761L155.925 141.958H162.992Z" fill="#717070"/>
<path d="M149.301 139.107L141.963 146.458H140.782L148.119 139.107H149.301Z" fill="#717070"/>
<path d="M161.599 126.786L154.262 134.137H153.081L160.418 126.786H161.599Z" fill="#717070"/>
<path d="M149.3 134.137H148.119L140.781 126.786H141.963L149.3 134.137Z" fill="#717070"/>
<path d="M161.598 146.458H160.417L153.915 139.945L153.567 139.596L153.08 139.107H154.261L154.715 139.563L155.097 139.945L155.551 140.4L157.107 141.959L157.595 142.447L157.943 142.796L158.43 143.285L161.598 146.458Z" fill="#717070"/>
<path d="M36.6154 134.284C36.6154 131.664 37.6939 129.298 39.4285 127.602C37.7488 125.961 35.4539 124.947 32.9219 124.947C27.7745 124.947 23.6021 129.128 23.6021 134.284C23.6021 139.441 27.7748 143.622 32.9219 143.622C35.4542 143.622 37.7491 142.608 39.4285 140.966C37.6939 139.271 36.6154 136.904 36.6154 134.284Z" fill="#DC3B39"/>
<path d="M45.9354 124.947C43.4031 124.947 41.1084 125.961 39.4287 127.602C41.1634 129.298 42.2418 131.664 42.2418 134.284C42.2418 136.904 41.1634 139.271 39.4287 140.966C41.1084 142.608 43.4034 143.622 45.9354 143.622C51.0828 143.622 55.2552 139.441 55.2552 134.284C55.2552 129.128 51.0825 124.947 45.9354 124.947Z" fill="#E6AB2D"/>
<path d="M42.242 134.285C42.242 131.665 41.1635 129.298 39.4288 127.603C37.6942 129.298 36.6157 131.665 36.6157 134.285C36.6157 136.904 37.6942 139.271 39.4288 140.967C41.1635 139.271 42.242 136.904 42.242 134.285Z" fill="#D67261"/>
<path d="M42.2417 134.284C42.2417 134.087 42.2337 133.892 42.2216 133.697L37.9703 129.438C37.6588 129.951 37.3946 130.495 37.1851 131.067L42.0855 135.976C42.1861 135.427 42.2417 134.862 42.2417 134.284Z" fill="#E6AB2D"/>
<path d="M36.7106 132.963C36.6496 133.395 36.6157 133.835 36.6157 134.284C36.6157 134.642 36.6378 134.996 36.6771 135.343L40.7191 139.393C41.0443 138.897 41.3232 138.368 41.5504 137.811L36.7106 132.963Z" fill="#E6AB2D"/>
<path opacity="0.2" d="M174.933 176.742H11.3721V178.788H174.933V176.742Z" fill="#040000"/>
<path opacity="0.2" d="M174.933 122.396V223.297C174.933 226.17 172.576 228.532 169.708 228.532H37.5952L63.5999 202.479L64.4503 201.627L65.4224 200.653L66.0785 199.996L79.6155 186.433L80.3202 185.727V185.703L80.7818 185.264L80.8304 185.216L82.8963 183.122L83.5524 182.489L87.2466 178.788L89.2883 176.742L111.137 154.853L118.16 147.817L148.297 117.6L148.71 117.186H169.708C172.576 117.186 174.933 119.523 174.933 122.396Z" fill="#040000"/>
<path d="M104.315 89.203C108.332 53.2307 139.027 25.6766 175.938 26.3946C215.246 27.1593 246.717 59.711 246.226 99.0962C245.736 138.481 214.168 169.606 174.86 168.842L174.811 154.488C174.811 154.488 181.592 156.022 194.221 151.582C206.85 147.141 217.478 138.366 224.233 126.801C230.988 115.236 233.436 101.625 231.146 88.3664C228.856 75.1075 221.974 63.0518 211.713 54.324C201.453 45.5961 188.473 40.7564 175.06 40.6577C161.647 40.5589 148.663 45.2075 138.395 53.7842C128.128 62.361 121.236 74.3153 118.935 87.5404L118.633 89.4866L128.871 89.6858L110.719 117.862L93.2773 88.9933L104.315 89.203ZM150.325 61.9215L160.265 72.2032L173.005 59.8407L182.945 70.1223L154.918 97.3198C154.28 97.9365 153.898 98.7718 153.845 99.6611C153.793 100.55 154.075 101.429 154.636 102.125C155.197 102.82 155.996 103.282 156.876 103.419C157.756 103.556 158.653 103.358 159.39 102.865L159.888 102.461L180.271 82.6807C183.65 79.4019 188.2 77.6115 192.919 77.7033C197.638 77.7952 202.141 79.7616 205.436 83.1702C208.732 86.5788 210.55 91.1503 210.491 95.8789C210.432 100.608 208.501 105.106 205.122 108.385L200.026 113.33L209.967 123.611L199.775 133.501L189.835 123.22L177.095 135.582L167.155 125.301L195.182 98.1031C195.82 97.4865 196.202 96.6512 196.254 95.7619C196.307 94.8725 196.024 93.9936 195.464 93.298C194.903 92.6025 194.104 92.1409 193.224 92.004C192.344 91.8671 191.447 92.0649 190.71 92.5584L190.212 92.9623L169.829 112.742C166.45 116.021 161.9 117.811 157.181 117.72C152.462 117.628 147.959 115.661 144.664 112.253C141.368 108.844 139.55 104.273 139.609 99.5441C139.668 94.8154 141.599 90.3169 144.978 87.0382L150.074 82.0932L140.133 71.8116L150.325 61.9215Z" fill="#FCCE5E"/>
</g>
<defs>
<linearGradient id="paint0_linear_1899_5993" x1="93.1527" y1="117.6" x2="93.1527" y2="228.946" gradientUnits="userSpaceOnUse">
<stop stop-color="#44484A"/>
<stop offset="1" stop-color="#193741"/>
</linearGradient>
<clipPath id="clip0_1899_5993">
<rect width="300" height="274.517" fill="white"/>
</clipPath>
</defs>
</svg>
