<svg width="300" height="300" viewBox="0 0 300 300" fill="none" xmlns="http://www.w3.org/2000/svg">
<g clip-path="url(#clip0_1898_5333)">
<path d="M293.767 6.2666H6.2666V293.767H293.767V6.2666Z" fill="white"/>
<path d="M293.767 6.2666H6.2666V55.8333H293.767V6.2666Z" fill="#FFEB97"/>
<path d="M43.9 31.033C43.9 32.2593 43.5364 33.458 42.8551 34.4775C42.1738 35.4971 41.2055 36.2918 40.0726 36.7611C38.9397 37.2303 37.6931 37.3531 36.4904 37.1139C35.2878 36.8746 34.183 36.2842 33.3159 35.4171C32.4489 34.55 31.8584 33.4452 31.6191 32.2426C31.3799 31.0399 31.5027 29.7933 31.9719 28.6604C32.4412 27.5275 33.2359 26.5592 34.2555 25.8779C35.275 25.1966 36.4738 24.833 37.7 24.833C39.3443 24.833 40.9213 25.4862 42.0841 26.6489C43.2468 27.8117 43.9 29.3887 43.9 31.033Z" fill="#576065"/>
<path d="M68.6998 31.033C68.6998 32.2593 68.3362 33.458 67.6549 34.4775C66.9737 35.4971 66.0054 36.2918 64.8724 36.7611C63.7395 37.2303 62.4929 37.3531 61.2903 37.1139C60.0876 36.8746 58.9828 36.2842 58.1157 35.4171C57.2487 34.55 56.6582 33.4452 56.4189 32.2426C56.1797 31.0399 56.3025 29.7933 56.7718 28.6604C57.241 27.5275 58.0357 26.5592 59.0553 25.8779C60.0749 25.1966 61.2736 24.833 62.4998 24.833C64.1442 24.833 65.7211 25.4862 66.8839 26.6489C68.0466 27.8117 68.6998 29.3887 68.6998 31.033Z" fill="#576065"/>
<path d="M93.3331 31.033C93.3331 32.2593 92.9695 33.458 92.2882 34.4775C91.607 35.4971 90.6387 36.2918 89.5057 36.7611C88.3728 37.2303 87.1262 37.3531 85.9236 37.1139C84.7209 36.8746 83.6161 36.2842 82.749 35.4171C81.882 34.55 81.2915 33.4452 81.0522 32.2426C80.813 31.0399 80.9358 29.7933 81.4051 28.6604C81.8743 27.5275 82.669 26.5592 83.6886 25.8779C84.7082 25.1966 85.9069 24.833 87.1331 24.833C88.7775 24.833 90.3545 25.4862 91.5172 26.6489C92.6799 27.8117 93.3331 29.3887 93.3331 31.033Z" fill="#576065"/>
<path d="M215.633 228.133H134.367V259.399H215.633V228.133Z" fill="#FF8898"/>
<path d="M60.8334 262.467C71.1796 262.467 79.5668 254.079 79.5668 243.733C79.5668 233.387 71.1796 225 60.8334 225C50.4873 225 42.1001 233.387 42.1001 243.733C42.1001 254.079 50.4873 262.467 60.8334 262.467Z" fill="#94D5D2"/>
<path d="M293.767 300H6.26676C5.44538 300.005 4.63124 299.847 3.87113 299.535C3.11101 299.224 2.41991 298.766 1.83756 298.186C1.25521 297.607 0.793079 296.918 0.477742 296.16C0.162406 295.401 7.78703e-05 294.588 8.96149e-05 293.767V6.26676C-0.00432971 5.44257 0.154745 4.62569 0.46811 3.86339C0.781474 3.10109 1.24291 2.4085 1.8257 1.8257C2.4085 1.24291 3.10109 0.781474 3.86339 0.46811C4.62569 0.154745 5.44257 -0.00432971 6.26676 8.96149e-05H293.767C294.588 7.78703e-05 295.401 0.162406 296.16 0.477742C296.918 0.793079 297.607 1.25521 298.186 1.83756C298.766 2.41991 299.224 3.11101 299.535 3.87113C299.847 4.63124 300.005 5.44538 300 6.26676V293.767C300 295.42 299.343 297.005 298.174 298.174C297.005 299.343 295.42 300 293.767 300ZM12.5001 287.5H287.5V12.5001H12.5001V287.5Z" fill="#576065"/>
<path d="M288.8 62.0665H11.2001C9.62131 61.9511 8.14472 61.2425 7.06696 60.0831C5.9892 58.9237 5.39014 57.3994 5.39014 55.8165C5.39014 54.2335 5.9892 52.7092 7.06696 51.5498C8.14472 50.3904 9.62131 49.6818 11.2001 49.5665H288.8C289.659 49.5037 290.522 49.6187 291.335 49.9043C292.147 50.19 292.893 50.6401 293.523 51.2266C294.154 51.8131 294.658 52.5234 295.002 53.3131C295.346 54.1029 295.523 54.955 295.523 55.8165C295.523 56.6779 295.346 57.5301 295.002 58.3198C294.658 59.1095 294.154 59.8198 293.523 60.4063C292.893 60.9928 292.147 61.443 291.335 61.7286C290.522 62.0142 289.659 62.1293 288.8 62.0665Z" fill="#576065"/>
<path d="M275.467 24.0332H118.633V36.5332H275.467V24.0332Z" fill="#576065"/>
<path d="M220 95.2998H42.1001V107.8H220V95.2998Z" fill="#576065"/>
<path d="M220 124.467H42.1001V136.967H220V124.467Z" fill="#576065"/>
<path d="M220 153.634H42.1001V166.134H220V153.634Z" fill="#576065"/>
<path d="M220 182.8H42.1001V195.3H220V182.8Z" fill="#576065"/>
<path d="M264.167 114.066H251.667V197.4H264.167V114.066Z" fill="#CCCCCC"/>
<path d="M257.9 134.9C256.247 134.9 254.661 134.243 253.492 133.074C252.323 131.905 251.667 130.32 251.667 128.667V101.567C251.782 99.988 252.49 98.5114 253.65 97.4337C254.809 96.3559 256.334 95.7568 257.917 95.7568C259.499 95.7568 261.024 96.3559 262.183 97.4337C263.343 98.5114 264.051 99.988 264.167 101.567V128.633C264.171 129.458 264.012 130.275 263.698 131.037C263.385 131.799 262.924 132.492 262.341 133.074C261.758 133.657 261.066 134.119 260.303 134.432C259.541 134.745 258.724 134.905 257.9 134.9Z" fill="#576065"/>
<path d="M215.633 265.634H134.367C133.548 265.634 132.738 265.473 131.981 265.159C131.225 264.846 130.538 264.387 129.959 263.808C129.38 263.229 128.921 262.542 128.608 261.786C128.295 261.03 128.133 260.219 128.133 259.4V228.134C128.133 227.312 128.296 226.499 128.611 225.741C128.926 224.982 129.388 224.294 129.971 223.714C130.553 223.135 131.244 222.677 132.004 222.365C132.764 222.054 133.579 221.896 134.4 221.9H215.633C216.458 221.896 217.274 222.055 218.037 222.368C218.799 222.682 219.492 223.143 220.074 223.726C220.657 224.309 221.119 225.001 221.432 225.764C221.745 226.526 221.904 227.343 221.9 228.167V259.434C221.896 260.252 221.73 261.062 221.413 261.817C221.095 262.571 220.633 263.256 220.051 263.832C219.469 264.407 218.779 264.863 218.021 265.172C217.263 265.481 216.452 265.638 215.633 265.634ZM140.633 253.134H209.367V234.367H140.633V253.134Z" fill="#576065"/>
<path d="M60.0001 260L45.6668 245.667C45.0758 245.082 44.6058 244.387 44.2835 243.621C43.9611 242.855 43.7928 242.033 43.7882 241.202C43.7835 240.371 43.9426 239.547 44.2564 238.777C44.5701 238.008 45.0324 237.308 45.6168 236.717C46.2012 236.126 46.8962 235.656 47.6623 235.333C48.4283 235.011 49.2504 234.843 50.0814 234.838C50.9125 234.833 51.7364 234.992 52.506 235.306C53.2756 235.62 53.9758 236.082 54.5668 236.667L60.0001 242.233L75.4668 226.667C76.6603 225.491 78.2719 224.837 79.9473 224.85C81.6226 224.862 83.2243 225.54 84.4001 226.733C85.5759 227.927 86.2295 229.538 86.2169 231.214C86.2044 232.889 85.5269 234.491 84.3335 235.667L60.0001 260Z" fill="#576065"/>
</g>
<defs>
<clipPath id="clip0_1898_5333">
<rect width="300" height="300" fill="white"/>
</clipPath>
</defs>
</svg>
