<svg width="234" height="281" viewBox="0 0 234 281" fill="none" xmlns="http://www.w3.org/2000/svg">
<path d="M116.739 24C101.778 38.9608 79.3366 68.8824 17 43.9477C19.4935 168.621 17 218.49 116.739 263.373C216.477 218.49 218.971 178.595 216.477 43.9477C154.141 68.8824 129.206 38.9608 116.739 24Z" fill="url(#paint0_radial_1898_5268)" stroke="#E86020" stroke-width="32"/>

<svg x="76.375" y="80.5" width="82" height="100" viewBox="0 0 82 100" fill="none" xmlns="http://www.w3.org/2000/svg">
<path d="M69.125 37.5H66V25.575C66 11.2344 55.625 0 40.8844 0C26.0844 0 16 11.4719 16 25.575V37.5H12.875C5.98125 37.5 0.375 43.1063 0.375 50V87.5C0.375 94.3938 5.98125 100 12.875 100H69.125C76.0188 100 81.625 94.3938 81.625 87.5V50C81.625 43.1063 76.0188 37.5 69.125 37.5ZM22.25 25.575C22.25 14.9219 29.5313 6.25 40.8844 6.25C52.1219 6.25 59.75 14.7375 59.75 25.575V37.5H22.25V25.575ZM75.375 87.5C75.375 90.9437 72.5687 93.75 69.125 93.75H12.875C9.42812 93.75 6.625 90.9437 6.625 87.5V50C6.625 46.5563 9.42812 43.75 12.875 43.75H69.125C72.5687 43.75 75.375 46.5563 75.375 50V87.5ZM41 56.25C37.55 56.25 34.75 59.0469 34.75 62.5C34.75 64.8063 36.0156 66.8 37.875 67.8844V78.125C37.875 79.85 39.275 81.25 41 81.25C42.725 81.25 44.125 79.85 44.125 78.125V67.8844C45.9844 66.8031 47.25 64.8063 47.25 62.5C47.25 59.0469 44.4531 56.25 41 56.25Z" fill="black"/>
</svg>


<defs>
<radialGradient id="paint0_radial_1898_5268" cx="0" cy="0" r="1" gradientUnits="userSpaceOnUse" gradientTransform="translate(10017 11992.6) scale(12000 14362.4)">
<stop offset="0.475" stop-color="#F3DA05"/>
<stop offset="0.965" stop-color="#FCCE5E"/>
</radialGradient>
</defs>
</svg>
