<svg width="510" height="514" viewBox="0 0 510 514" fill="none" xmlns="http://www.w3.org/2000/svg">
<g clip-path="url(#clip0_1888_3470)">
<path d="M375.373 81.9319L301.15 116.543C299.51 117.307 298.816 119.29 299.601 120.972L300.86 123.673C303.918 130.23 301.635 138.164 295.392 141.452C288.726 144.961 280.497 142.013 277.269 135.092L275.849 132.047C275.065 130.366 273.1 129.622 271.461 130.387L42.8522 236.989C39.573 238.518 38.1856 242.485 39.7537 245.848L124.94 428.531C126.508 431.893 130.439 433.38 133.718 431.851L362.326 325.249C363.966 324.485 364.66 322.502 363.876 320.82L362.616 318.119C359.559 311.562 361.842 303.628 368.084 300.34C374.75 296.831 382.98 299.779 386.207 306.7L387.627 309.745C388.411 311.426 390.376 312.17 392.016 311.405L466.239 276.794C469.519 275.265 470.906 271.298 469.338 267.935L384.151 85.2516C382.582 81.889 378.652 80.4028 375.373 81.9319ZM366.071 279.021C367.639 282.384 366.255 286.349 362.972 287.88C359.69 289.41 355.763 287.922 354.194 284.559L348.515 272.38C346.947 269.017 348.331 265.052 351.614 263.522C354.896 261.991 358.824 263.479 360.392 266.842L366.071 279.021ZM349.033 242.484C350.602 245.847 349.217 249.812 345.935 251.343C342.653 252.873 338.725 251.385 337.157 248.022L331.478 235.843C329.91 232.481 331.294 228.515 334.577 226.985C337.858 225.454 341.786 226.943 343.354 230.305L349.033 242.484ZM331.996 205.948C333.564 209.311 332.18 213.276 328.898 214.807C325.616 216.337 321.688 214.849 320.12 211.486L314.441 199.307C312.873 195.944 314.257 191.979 317.539 190.448C320.821 188.918 324.749 190.406 326.317 193.769L331.996 205.948ZM314.959 169.411C316.527 172.774 315.143 176.739 311.86 178.27C308.579 179.8 304.651 178.312 303.083 174.949L297.403 162.77C295.835 159.407 297.219 155.442 300.502 153.912C303.784 152.381 307.712 153.869 309.28 157.232L314.959 169.411Z" fill="#FFDC64"/>
<path d="M176.768 369.148C174.866 370.035 172.624 370.175 170.481 369.364C166.196 367.743 163.949 362.926 165.462 358.6L221.232 199.15C222.745 194.825 227.442 192.635 231.728 194.256C236.014 195.877 238.26 200.694 236.747 205.02L180.977 364.47C180.22 366.633 178.671 368.26 176.768 369.148Z" fill="white"/>
<path d="M163.347 293.857C146.16 301.871 125.486 294.053 117.266 276.424C109.045 258.795 116.344 237.932 133.532 229.917C150.719 221.903 171.393 229.721 179.614 247.35C187.834 264.979 180.535 285.842 163.347 293.857ZM140.631 245.142C131.626 249.341 127.804 260.267 132.111 269.502C136.417 278.737 147.243 282.833 156.249 278.634C165.254 274.434 169.076 263.509 164.769 254.273C160.462 245.037 149.637 240.942 140.631 245.142Z" fill="white"/>
<path d="M268.676 333.703C251.489 341.718 230.815 333.899 222.595 316.27C214.374 298.641 221.673 277.779 238.861 269.764C256.049 261.749 276.722 269.568 284.943 287.197C293.163 304.826 285.864 325.689 268.676 333.703ZM245.96 284.988C236.955 289.188 233.133 300.114 237.44 309.349C241.746 318.584 252.572 322.68 261.578 318.48C270.583 314.281 274.405 303.355 270.098 294.12C265.792 284.885 254.966 280.789 245.96 284.988Z" fill="white"/>
<path d="M309.28 157.232L314.959 169.41C316.527 172.773 315.143 176.739 311.86 178.269L317.539 190.448C320.821 188.918 324.749 190.406 326.317 193.769L331.996 205.947C333.564 209.31 332.18 213.275 328.898 214.806L334.577 226.985C337.859 225.454 341.787 226.943 343.355 230.306L349.034 242.484C350.602 245.847 349.218 249.812 345.935 251.343L351.614 263.522C354.896 261.991 358.824 263.48 360.392 266.842L366.071 279.021C367.639 282.384 366.255 286.349 362.973 287.88L368.652 300.059C375.21 297 383.07 299.974 386.206 306.7L387.626 309.744C388.41 311.426 390.375 312.17 392.015 311.405L466.239 276.794C469.518 275.265 470.905 271.298 469.337 267.935L384.15 85.2513C382.582 81.8885 378.652 80.4015 375.373 81.9306L301.15 116.541C299.51 117.306 298.816 119.289 299.6 120.971L301.02 124.016C304.156 130.741 301.382 138.674 294.824 141.732L300.503 153.911C303.785 152.381 307.712 153.869 309.28 157.232Z" fill="#FFC850"/>
</g>
<defs>
<clipPath id="clip0_1888_3470">
<rect width="380" height="389.698" fill="white" transform="translate(0 160.595) rotate(-25)"/>
</clipPath>
</defs>
</svg>
