<svg xmlns="http://www.w3.org/2000/svg" width="150" height="50"><g fill="none" fill-rule="evenodd"><path d="M0 0h150v50H0z"/><path d="M47.58 21.63c-.012 1.535-.3 2.89-.863 4.066-.564 1.175-1.302 2.165-2.213 2.968a9.664 9.664 0 0 1-3.04 1.8 9.493 9.493 0 0 1-3.311.611h-.36c0 .492.006 1.08.018 1.763 0 .672.012 1.403.036 2.195.024.792.06 1.613.108 2.465.036.863.09 1.72.162 2.572a23.398 23.398 0 0 0-1.907-.125 35.93 35.93 0 0 0-1.511-.036h-.612a6.192 6.192 0 0 1-.432.018 4.47 4.47 0 0 1-.36.018 226.03 226.03 0 0 0 .288-5.47c.036-.875.06-1.727.072-2.554.024-.816.048-1.59.072-2.321.036-1.68.06-3.293.072-4.84 0-1.487-.012-2.914-.036-4.282l-.036-1.763a80.913 80.913 0 0 0-.054-1.781 57.48 57.48 0 0 0-.054-1.601 17.455 17.455 0 0 0-.072-1.296c.9-.167 1.781-.27 2.645-.305a53.215 53.215 0 0 1 2.14-.054c.433 0 .96.018 1.584.054a9.94 9.94 0 0 1 1.98.287 9.381 9.381 0 0 1 2.05.738 5.92 5.92 0 0 1 1.835 1.367c.54.588.972 1.332 1.295 2.231.336.9.504 1.991.504 3.275m-4.534.144c0-.888-.095-1.656-.287-2.303-.204-.636-.51-1.158-.918-1.565-.396-.408-.911-.72-1.547-.936-.624-.204-1.361-.33-2.213-.378a128.74 128.74 0 0 0-.108 3.239 331.412 331.412 0 0 0-.144 6.297c-.012.923-.024 1.679-.036 2.266.888-.048 1.655-.24 2.303-.575a5.111 5.111 0 0 0 1.655-1.368c.432-.575.756-1.26.972-2.05.216-.792.323-1.668.323-2.627zm6.045-9.931 4.57.108-.198 3.976c-.06 1.21-.108 2.356-.144 3.436a357.19 357.19 0 0 0-.09 3.076l-.072 2.879-.036 2.86v6.783c0 1.331.012 2.813.036 4.444l-3.994-.09c.072-1.763.12-3.502.144-5.218a393.118 393.118 0 0 0 .018-8.996c-.012-1.27-.03-2.602-.054-3.993s-.048-2.855-.072-4.39c-.036-1.523-.072-3.148-.108-4.875zM68.198 39.44l-4.066.252c-.072-.36-.138-.732-.198-1.116a30.73 30.73 0 0 1-.126-1.151c-.54.791-1.187 1.403-1.943 1.835a4.82 4.82 0 0 1-2.465.648c-.455 0-.923-.078-1.403-.234a3.236 3.236 0 0 1-1.295-.756c-.396-.36-.72-.858-.972-1.493-.252-.624-.378-1.416-.378-2.375 0-.792.114-1.487.342-2.087a5.8 5.8 0 0 1 .918-1.547 6.845 6.845 0 0 1 1.26-1.17c.479-.323.947-.611 1.402-.863.468-.264.912-.504 1.332-.72.42-.228.761-.456 1.025-.683a9.28 9.28 0 0 0 1.35-1.296c.383-.468.69-.953.917-1.457-.036-.804-.12-1.47-.252-1.997-.12-.516-.282-.93-.486-1.241-.191-.312-.431-.528-.72-.648a2.504 2.504 0 0 0-.97-.18c-.54 0-.996.114-1.368.342-.372.24-.672.521-.9.845.288.192.51.39.666.594.168.216.288.42.36.612.096.228.15.455.162.683 0 .804-.222 1.416-.666 1.835-.456.42-1.037.63-1.745.63-.36 0-.69-.084-.99-.252a2.424 2.424 0 0 1-.81-.72 3.519 3.519 0 0 1-.539-1.079 4.96 4.96 0 0 1-.18-1.367c0-.492.108-1.014.324-1.565.228-.552.588-1.068 1.08-1.548.491-.467 1.121-.857 1.889-1.169.78-.312 1.72-.468 2.824-.468 1.092 0 2.033.216 2.825.648.78.42 1.421.983 1.925 1.691.504.72.87 1.541 1.097 2.465.228.923.342 1.877.342 2.86 0 .732-.006 1.536-.018 2.411-.012.864-.018 1.751-.018 2.663 0 .767.006 1.53.018 2.285.012.767.036 1.505.072 2.213.036.707.084 1.373.144 1.997.06.623.138 1.181.234 1.673m-4.462-6.297.126-3.742a7.614 7.614 0 0 1-1.313 1.26c-.348.239-.726.515-1.134.827-.396.3-.767.623-1.115.971a5.41 5.41 0 0 0-.864 1.062c-.228.36-.342.737-.342 1.133 0 .528.126.978.378 1.35.264.371.63.557 1.098.557.431 0 .815-.114 1.151-.342.348-.24.654-.533.918-.881s.485-.72.665-1.116c.18-.395.324-.755.432-1.08zm15.616-13.205 4.498.071a59.698 59.698 0 0 0-.18 2.105c-.048.708-.09 1.41-.126 2.105-.048.708-.09 1.392-.126 2.051-.036.66-.06 1.29-.072 1.89-.06 1.39-.108 2.74-.144 4.047a94.83 94.83 0 0 0-.126 4.102c0 1.356-.042 2.645-.125 3.868a23.503 23.503 0 0 1-.468 3.4c-.228 1.056-.6 1.968-1.116 2.735-.515.768-1.211 1.368-2.087 1.8-.863.431-1.985.647-3.364.647-1.031 0-1.853-.15-2.465-.45-.611-.3-1.08-.665-1.403-1.097a3.127 3.127 0 0 1-.648-1.35 6.67 6.67 0 0 1-.144-1.295c0-.396.06-.767.18-1.115a2.81 2.81 0 0 1 .522-.9c.216-.252.486-.456.81-.611.323-.156.69-.234 1.097-.234.432 0 .822.084 1.17.252.335.167.617.377.845.63.228.263.402.563.522.899.12.324.18.647.18.971-.012.192-.054.39-.126.594a2.58 2.58 0 0 1-.306.54c-.156.216-.36.42-.612.611.144.06.276.102.396.126.12.012.24.018.36.018.3 0 .618-.09.953-.27.336-.18.642-.467.918-.863.288-.384.522-.87.702-1.457.191-.576.3-1.272.323-2.087 0-.876.006-1.733.018-2.573 0-.852.012-1.787.036-2.807-.395.768-.821 1.362-1.277 1.781-.456.408-.894.714-1.313.918a4.18 4.18 0 0 1-1.422.414c-.863 0-1.619-.216-2.266-.648-.636-.432-1.17-1.043-1.602-1.835-.42-.804-.731-1.763-.935-2.879-.204-1.115-.306-2.368-.306-3.76 0-3.826.264-7.478.792-10.956l4.461.486c-.096.395-.186.821-.27 1.277-.084.456-.161.93-.233 1.421a30.94 30.94 0 0 0-.18 1.476c-.06.503-.114.983-.162 1.439a71.858 71.858 0 0 0-.252 3.292c0 1.104.03 2.07.09 2.897.072.827.198 1.51.378 2.05.192.552.443.96.755 1.224.312.276.714.414 1.206.414.36-.06.701-.306 1.025-.738.144-.192.288-.426.432-.701.156-.288.312-.636.468-1.044.144-.408.288-.893.431-1.457a21.53 21.53 0 0 0 .396-1.925c.036-.924.06-1.763.072-2.519.024-.756.036-1.475.036-2.159 0-.84-.018-1.643-.054-2.41-.036-.756-.09-1.56-.162-2.411zM98.171 14c0 .48-.066.93-.198 1.35a3.55 3.55 0 0 1-.558 1.061c-.228.3-.497.534-.81.702-.311.18-.647.27-1.007.27-.36 0-.695-.066-1.007-.198a2.6 2.6 0 0 1-.81-.486 2.16 2.16 0 0 1-.558-.72 1.978 1.978 0 0 1-.198-.863v-.252c.012-.132.036-.3.072-.504a4.72 4.72 0 0 1 .216-.665c.084-.24.216-.48.396-.72-.576 0-1.031.144-1.367.432-.324.276-.564.66-.72 1.151-.156.48-.258 1.056-.306 1.727a38.74 38.74 0 0 0-.054 2.105v1.296c.708 0 1.416-.024 2.123-.072a66.359 66.359 0 0 0 2.141-.144l-.198 4.174a28.434 28.434 0 0 0-2.033-.18l-2.033-.072c0 1.343.006 2.68.018 4.012l.036 3.832c.012 1.223.018 2.357.018 3.4.012 1.056.018 1.961.018 2.717.012.767.018 1.373.018 1.817v.666l-4.012.197c.06-.84.102-1.775.126-2.806.024-1.044.036-2.141.036-3.292a202.523 202.523 0 0 0-.072-5.325l-.072-2.645c-.024-.864-.042-1.698-.054-2.501-.36.012-.713.036-1.061.072-.348.024-.702.06-1.062.108l-.18-4.174c.372.036.744.066 1.116.09.372.036.744.066 1.115.09v-1.98c0-1.127.114-2.158.342-3.094.228-.935.594-1.733 1.098-2.393a4.943 4.943 0 0 1 1.925-1.565c.791-.372 1.75-.558 2.878-.558.768 0 1.446.12 2.033.36.588.228 1.074.534 1.458.918.395.384.69.81.881 1.277.204.468.306.93.306 1.385zm11.748 25.206-4.57-.054c.024-.468.054-.918.09-1.35.024-.431.054-.845.09-1.24-.396.707-.821 1.247-1.277 1.618a6.248 6.248 0 0 1-1.26.846c-.455.204-.905.33-1.349.378-.863 0-1.619-.216-2.267-.648-.647-.432-1.181-1.043-1.6-1.835-.42-.804-.733-1.763-.936-2.879-.204-1.115-.306-2.368-.306-3.76 0-1.93.06-3.802.18-5.613.12-1.81.323-3.592.611-5.343l4.462.486a54.024 54.024 0 0 0-.648 3.742 73.91 73.91 0 0 0-.323 2.806c-.084.9-.132 1.685-.144 2.357 0 1.104.036 2.07.108 2.897.072.827.198 1.51.377 2.05.18.552.432.96.756 1.224.312.276.714.414 1.205.414.336-.06.672-.294 1.008-.702a4.24 4.24 0 0 0 .432-.683c.156-.276.312-.612.467-1.008a16.9 16.9 0 0 0 .432-1.403c.144-.54.276-1.17.396-1.89a58.4 58.4 0 0 0 .036-2.05v-4.984c0-.995-.012-2.117-.036-3.364l3.994.072c-.06.887-.108 1.709-.144 2.465-.036.755-.06 1.463-.072 2.123a52.656 52.656 0 0 0-.036 1.87 83.827 83.827 0 0 0-.018 1.71c0 .84.006 1.667.018 2.483.012.803.036 1.66.072 2.572.036.912.078 1.907.126 2.987l.126 3.706zm2.5-27.364 4.57.108-.197 3.976c-.06 1.21-.108 2.356-.144 3.436a156.36 156.36 0 0 0-.108 3.076c-.024.972-.042 1.931-.054 2.879-.024.947-.036 1.9-.036 2.86-.012.96-.018 1.967-.018 3.023v3.76c0 1.331.012 2.813.036 4.444l-3.976-.09c.06-1.763.102-3.502.126-5.218a393.118 393.118 0 0 0 .018-8.996c-.012-1.27-.03-2.602-.054-3.993a296.934 296.934 0 0 0-.072-4.39 962.088 962.088 0 0 0-.09-4.875z" fill="#333330" fill-rule="nonzero"/></g><div xmlns="" id="divScriptsUsed" style="display: none"/><script xmlns="" id="globalVarsDetection" src="chrome-extension://cmkdbmfndkfgebldhnkbfhlneefdaaip/js/wrs_env.js"/><deepl-alert xmlns=""/><deepl-alert xmlns=""/><deepl-alert xmlns=""/></svg>