<svg xmlns="http://www.w3.org/2000/svg" width="150" height="50"><g fill="none" fill-rule="evenodd"><path d="M0 0h150v50H0z"/><path d="M14.579 17.63v-1.18a.86.86 0 0 0-.259-.632.86.86 0 0 0-.632-.259H2.178a.86.86 0 0 0-.632.259.86.86 0 0 0-.259.632v17.43c0 .249.087.455.259.618a.838.838 0 0 0 .632.273h1.179c.249 0 .46-.091.632-.273a.813.813 0 0 0 .258-.618v-6.35c0-.25.087-.455.259-.618a.838.838 0 0 1 .632-.273h6.337c.249 0 .46-.082.632-.244a.868.868 0 0 0 .273-.633v-1.178a.81.81 0 0 0-.273-.632.838.838 0 0 0-.632-.273H5.138a.886.886 0 0 1-.632-.244.892.892 0 0 1-.259-.633v-3.405c0-.24.087-.446.259-.618a.86.86 0 0 1 .632-.259h8.55a.86.86 0 0 0 .632-.258.86.86 0 0 0 .259-.632zm13.406-1.179v14.47c0 .249-.091.46-.273.632a.843.843 0 0 1-.618.259h-5.618a.892.892 0 0 1-.633-.259.886.886 0 0 1-.244-.632V16.45c0-.249-.09-.46-.273-.632a.83.83 0 0 0-.632-.259h-1.178c-.24 0-.45.087-.633.259a.886.886 0 0 0-.244.632v17.43c0 .249.082.455.244.618a.868.868 0 0 0 .633.273H30.04c.24 0 .45-.091.632-.273a.813.813 0 0 0 .258-.618V16.45a.86.86 0 0 0-.258-.632.892.892 0 0 0-.632-.259h-1.18c-.24 0-.45.087-.632.259a.886.886 0 0 0-.244.632zm19.398 1.179v-1.18a.889.889 0 0 0-.244-.632.892.892 0 0 0-.633-.259H34.983a.86.86 0 0 0-.633.259.86.86 0 0 0-.258.632v1.179c0 .249.086.46.258.632a.86.86 0 0 0 .633.258h3.39c.25 0 .46.087.633.259a.843.843 0 0 1 .258.618V33.88c0 .249.087.455.26.618a.838.838 0 0 0 .631.273h1.179a.79.79 0 0 0 .617-.273.793.793 0 0 0 .273-.618V19.397c0-.24.082-.446.245-.618a.892.892 0 0 1 .632-.259h3.405c.24 0 .45-.086.633-.258a.886.886 0 0 0 .244-.632zM60.3 16.45v14.47c0 .249-.091.46-.273.632a.843.843 0 0 1-.618.259H53.79a.892.892 0 0 1-.632-.259.886.886 0 0 1-.244-.632V16.45a.837.837 0 0 0-.273-.632.83.83 0 0 0-.632-.259H50.83a.894.894 0 0 0-.632.259.886.886 0 0 0-.244.632v17.43c0 .249.081.455.244.618a.868.868 0 0 0 .632.273h11.524c.25 0 .46-.091.633-.273a.813.813 0 0 0 .258-.618V16.45a.86.86 0 0 0-.258-.632.86.86 0 0 0-.633-.259h-1.178c-.24 0-.45.087-.632.259a.886.886 0 0 0-.244.632zm11.71 2.07h4.685a.86.86 0 0 1 .632.258.843.843 0 0 1 .258.618v3.405c0 .24-.086.45-.258.633a.886.886 0 0 1-.632.244H72.01a.92.92 0 0 1-.632-.244.892.892 0 0 1-.259-.633v-3.405c0-.24.087-.446.259-.618a.892.892 0 0 1 .632-.259m8.377 15.806 1.02-.589a.886.886 0 0 0 .33-1.207h.001l-3.204-5.546a.244.244 0 0 1 0-.23.225.225 0 0 1 .2-.115h.92c.25 0 .456-.082.618-.244a.868.868 0 0 0 .273-.633v-9.31c0-.25-.09-.46-.273-.633a.813.813 0 0 0-.617-.259H69.05a.843.843 0 0 0-.618.259.838.838 0 0 0-.273.632v17.43c0 .249.091.455.273.618a.822.822 0 0 0 .618.273h1.179c.249 0 .46-.091.632-.273a.813.813 0 0 0 .258-.618v-6.35c0-.25.087-.455.259-.618a.868.868 0 0 1 .632-.273h2.802c.086 0 .149.038.187.115l4.167 7.242a.87.87 0 0 0 .546.416.83.83 0 0 0 .675-.086zm9.599-16.165v-2.227c0-.25-.125-.374-.374-.374H85.92c-.249 0-.373.125-.373.374v2.227c0 .24.124.36.373.36.25 0 .374.12.374.359v12.558c0 .25-.125.374-.374.374s-.373.124-.373.373v2.213c0 .25.124.374.373.374h3.693c.25 0 .374-.125.374-.374v-2.213c0-.249-.125-.373-.374-.373s-.373-.125-.373-.374V18.88c0-.24.124-.36.373-.36.25 0 .374-.12.374-.359zm17.89-.531V16.45a.885.885 0 0 0-.245-.632.892.892 0 0 0-.632-.259H95.476a.86.86 0 0 0-.633.259.86.86 0 0 0-.258.632v9.311c0 .24.086.45.258.633a.886.886 0 0 0 .633.244h8.564c.249 0 .455.09.617.273a.793.793 0 0 1 .273.618v3.39c0 .25-.09.46-.273.633a.813.813 0 0 1-.617.259h-8.564a.86.86 0 0 0-.633.258.86.86 0 0 0-.258.633v1.178c0 .249.086.455.258.618a.838.838 0 0 0 .633.273H107c.24 0 .45-.091.632-.273a.837.837 0 0 0 .244-.618v-9.297a.855.855 0 0 0-.244-.632.868.868 0 0 0-.632-.273h-8.564a.886.886 0 0 1-.633-.244.892.892 0 0 1-.258-.633v-3.405c0-.24.086-.446.258-.618a.86.86 0 0 1 .633-.259H107c.24 0 .45-.086.632-.258a.886.886 0 0 0 .244-.632zm16.05 0V16.45a.885.885 0 0 0-.245-.632.892.892 0 0 0-.632-.259h-11.524c-.24 0-.45.087-.632.259a.86.86 0 0 0-.259.632v1.179c0 .249.086.46.259.632a.892.892 0 0 0 .632.258h3.39c.25 0 .46.087.633.259a.843.843 0 0 1 .259.618V33.88c0 .249.086.455.258.618a.838.838 0 0 0 .633.273h1.178a.794.794 0 0 0 .618-.273.793.793 0 0 0 .273-.618V19.397c0-.24.081-.446.244-.618a.892.892 0 0 1 .632-.259h3.406c.24 0 .45-.086.632-.258a.886.886 0 0 0 .244-.632zm6.91.531v-2.227c0-.25-.129-.374-.387-.374h-3.679c-.249 0-.373.125-.373.374v2.227c0 .24.124.36.373.36.25 0 .374.12.374.359v12.558c0 .25-.125.374-.374.374s-.373.124-.373.373v2.213c0 .25.124.374.373.374h3.679c.258 0 .388-.125.388-.374v-2.213c0-.249-.13-.373-.388-.373-.24 0-.36-.125-.36-.374V18.88c0-.24.12-.36.36-.36.258 0 .388-.12.388-.359zm17.904-.531V16.45a.86.86 0 0 0-.258-.632.86.86 0 0 0-.633-.259H136.34a.86.86 0 0 0-.632.259.86.86 0 0 0-.259.632v17.43c0 .249.086.455.259.618a.838.838 0 0 0 .632.273h11.51c.249 0 .46-.091.632-.273a.813.813 0 0 0 .258-.618v-1.178a.86.86 0 0 0-.258-.633.86.86 0 0 0-.633-.258H139.3a.86.86 0 0 1-.632-.259.86.86 0 0 1-.259-.632V19.397a.84.84 0 0 1 .259-.618.86.86 0 0 1 .632-.259h8.55a.86.86 0 0 0 .632-.258.86.86 0 0 0 .258-.632z" fill="#333" fill-rule="nonzero"/></g><div xmlns="" id="divScriptsUsed" style="display: none"/><script xmlns="" id="globalVarsDetection" src="chrome-extension://cmkdbmfndkfgebldhnkbfhlneefdaaip/js/wrs_env.js"/><deepl-alert xmlns=""/><deepl-alert xmlns=""/><deepl-alert xmlns=""/><deepl-alert xmlns=""/></svg>