<svg xmlns="http://www.w3.org/2000/svg" width="150" height="50"><g fill="none" fill-rule="evenodd"><path d="M0 0h150v50H0z"/><path d="M35.22 13.028h-6.023l-8.419 15.526-8.418-15.526H6.3v25.067h5.986V25.524l6.584 12.57h3.817L29.234 25.6v12.496h5.986V13.028zm13.507 5.799c-5.687 0-10.401 3.966-10.401 9.877 0 5.949 4.714 9.915 10.4 9.915 5.575 0 10.29-3.966 10.29-9.915 0-5.911-4.715-9.877-10.29-9.877zm0 14.74c-2.432 0-4.64-1.907-4.64-4.863 0-2.918 2.208-4.864 4.64-4.864 2.32 0 4.527 1.946 4.527 4.864 0 2.956-2.208 4.864-4.527 4.864zm33.148-22.41H75.89v9.653c-1.46-1.31-3.405-2.058-5.837-2.058-4.976 0-9.166 4.04-9.166 9.952 0 5.949 4.19 9.952 9.166 9.952 2.432 0 4.378-.748 5.837-2.058v1.497h5.986V11.157zm-10.588 22.41c-2.619 0-4.527-1.945-4.527-4.863 0-2.88 1.908-4.864 4.527-4.864 2.432 0 4.602 1.983 4.602 4.864 0 2.918-2.17 4.864-4.602 4.864zm33.336-4.863c-.112-6.136-4.378-9.952-9.69-9.952-5.463 0-9.952 4.04-9.952 9.952 0 5.949 4.49 9.952 9.914 9.952 4.303 0 7.707-1.908 9.316-5.874l-5.313-1.085c-1.01 1.833-2.619 2.17-4.003 2.17-2.02 0-3.554-1.384-4.04-3.63h13.768v-1.533zm-9.69-5.088c1.72 0 3.217.935 3.778 2.955h-7.744c.56-1.908 2.282-2.955 3.966-2.955zm25.254-4.565c-3.068 0-5.126 1.609-6.473 3.854v-3.592h-5.986v18.782h5.986V32.22c0-4.864 2.283-7.034 6.473-7.034h1.085l.262-5.986a5.126 5.126 0 0 0-1.347-.15zm15.639-.3c-2.357 0-4.34.861-5.762 2.358v-1.796h-5.986v18.782h5.986v-8.718c0-3.629 1.534-5.238 3.891-5.238 1.908 0 3.218 1.497 3.218 3.704v10.252h5.949V26.57c0-4.714-2.919-7.82-7.296-7.82z" fill="#333" fill-rule="nonzero"/></g><div xmlns="" id="divScriptsUsed" style="display: none"/><script xmlns="" id="globalVarsDetection" src="chrome-extension://cmkdbmfndkfgebldhnkbfhlneefdaaip/js/wrs_env.js"/><deepl-alert xmlns=""/><deepl-alert xmlns=""/><deepl-alert xmlns=""/></svg>