<svg xmlns="http://www.w3.org/2000/svg" width="150" height="50"><g fill="none" fill-rule="evenodd"><path d="M0 0h150v50H0z"/><path d="M5.154 36.83a59.312 59.312 0 0 1 1.108-4.892c.471-1.764 1.23-4.246 2.276-7.446l-2.03.216c.02-.903.871-1.529 2.554-1.877.759-2.318 1.63-4.893 2.615-7.723.02-.062.097-.287.23-.677.134-.39.2-.77.2-1.139 0-.164-.025-.277-.076-.338-.052-.062-.17-.092-.354-.092-.636 0-1.246.328-1.83.984-.585.657-1.062 1.446-1.432 2.37-.369.922-.553 1.733-.553 2.43 0 .39.05.739.153 1.046-.636 0-1.102-.159-1.4-.477-.297-.318-.446-.743-.446-1.277 0-.882.344-1.79 1.031-2.723a8.824 8.824 0 0 1 2.508-2.307c.984-.605 1.856-.908 2.615-.908.513 0 .877.138 1.092.415.216.277.323.631.323 1.062 0 .349-.082.79-.246 1.323l-2.4 7.815a33.676 33.676 0 0 1 1.785-.061c1.6 0 3.344.092 5.23.277a195.885 195.885 0 0 1 1.831-5.785c.585-1.743 1.01-2.892 1.277-3.446.493-1.067 1.057-1.6 1.693-1.6-.41 1.087-.908 2.636-1.493 4.646a242.017 242.017 0 0 0-1.738 6.308c.205 0 .533.02.985.061.615.041 1.056.062 1.323.062-.41.43-.81.702-1.2.815-.39.113-.852.17-1.385.17a99.334 99.334 0 0 0-.954 4.215c-.677 3.22-1.015 5.702-1.015 7.446 0 .37.02.739.061 1.108-.78-.082-1.328-.303-1.646-.662-.318-.359-.477-.938-.477-1.738 0-1.19.246-2.739.739-4.646.328-1.354.871-3.252 1.63-5.693-1.64 0-3.03.016-4.169.046a45.038 45.038 0 0 0-3 .17c-1.764 5.559-2.861 9.077-3.292 10.554-.205.656-.513 1.148-.923 1.476-.41.329-.81.493-1.2.493zm18.77-1.23c-.678 0-1.227-.22-1.647-.662-.42-.44-.63-1.071-.63-1.892 0-1.21.435-2.564 1.307-4.061a13.311 13.311 0 0 1 3.308-3.816c1.333-1.046 2.635-1.569 3.907-1.569.8 0 1.467.215 2 .646.534.43.8.985.8 1.662 0 .471-.133.81-.4 1.015-.266.205-.636.308-1.107.308a4.04 4.04 0 0 0 .153-1.077c0-.513-.123-.928-.369-1.246-.246-.318-.625-.477-1.138-.477-.903 0-1.852.502-2.846 1.507-.995 1.006-1.826 2.206-2.493 3.6-.666 1.395-1 2.595-1 3.6 0 .8.277 1.2.831 1.2.82 0 1.785-.65 2.892-1.953 1.108-1.303 2.298-2.888 3.57-4.754.266.04.538.128.815.261.277.134.415.303.415.508 0 .164-.097.426-.292.785-.195.359-.313.569-.354.63a16.265 16.265 0 0 0-.83 1.585c-.206.462-.308.887-.308 1.277 0 .349.087.661.261.938.175.277.436.416.785.416.595 0 1.343-.426 2.246-1.277s1.795-2.046 2.677-3.585l.308.308a11.36 11.36 0 0 1-1.662 2.908c-.677.85-1.405 1.512-2.185 1.984-.779.472-1.528.708-2.246.708s-1.266-.21-1.646-.63c-.38-.421-.57-.93-.57-1.524 0-.267.032-.564.093-.892-.923 1.23-1.748 2.133-2.477 2.707-.728.575-1.451.862-2.169.862zm21.876-.83c-.697 0-1.23-.18-1.6-.54-.37-.358-.554-.835-.554-1.43 0-.267.046-.58.139-.938.092-.36.19-.713.292-1.062.123-.37.23-.759.323-1.17.092-.41.138-.779.138-1.107 0-1.005-.41-1.508-1.23-1.508-.78 0-1.595.41-2.446 1.231a16.31 16.31 0 0 0-2.277 2.739 87.995 87.995 0 0 0-2.262 3.63c-.349 0-.667-.056-.954-.169a1.484 1.484 0 0 1-.677-.508c0-.102.134-.471.4-1.107a50.09 50.09 0 0 0 1.262-3.585c.328-1.077.502-2.036.523-2.877.144-.164.349-.313.615-.446.267-.133.534-.2.8-.2.554 0 .831.267.831.8 0 .308-.092.846-.277 1.615a29.64 29.64 0 0 1-.708 2.447c.985-1.518 2.031-2.8 3.139-3.847 1.108-1.046 2.195-1.569 3.261-1.569.76 0 1.329.272 1.708.816.38.543.57 1.194.57 1.953 0 .452-.057.883-.17 1.293-.113.41-.282.882-.508 1.415a14.92 14.92 0 0 0-.43 1.17 3.285 3.285 0 0 0-.154.984c0 .78.308 1.17.923 1.17.697 0 1.42-.462 2.17-1.385.748-.923 1.46-2.062 2.138-3.416l.338.4c-1.477 3.467-3.251 5.2-5.323 5.2zm6.215.307c-.594 0-1.128-.22-1.6-.662-.471-.44-.707-1.082-.707-1.923 0-1.128.43-2.446 1.292-3.954a13.89 13.89 0 0 1 3.23-3.861c1.293-1.067 2.544-1.6 3.755-1.6.902 0 1.353.318 1.353.954 0 .082-.02.225-.061.43-.205-.307-.595-.461-1.17-.461-1.025 0-2.02.487-2.984 1.462a11.926 11.926 0 0 0-2.354 3.43c-.605 1.313-.907 2.39-.907 3.231 0 .451.097.81.292 1.077.195.267.467.4.815.4.554 0 1.231-.354 2.031-1.062.8-.707 1.61-1.707 2.43-3 .821-1.292 1.55-2.759 2.185-4.4 1.6-4.143 2.939-7.369 4.016-9.676C64.708 13.154 65.615 12 66.354 12a.57.57 0 0 1 .43.2.72.72 0 0 1 .185.508c0 .307-.164.836-.492 1.584-.328.749-.862 1.903-1.6 3.462-1.518 3.159-2.728 5.892-3.63 8.2-.903 2.308-1.355 4.323-1.355 6.046 0 .677.036 1.133.108 1.37.072.235.272.353.6.353.43 0 .938-.19 1.523-.57.585-.379 1.164-.912 1.739-1.6a10.41 10.41 0 0 0 1.476-2.384l.37.277a10.232 10.232 0 0 1-1.6 2.8c-.677.841-1.4 1.503-2.17 1.985-.769.482-1.502.723-2.2.723-.697 0-1.21-.226-1.538-.677-.328-.451-.492-.995-.492-1.63 0-.698.195-1.796.584-3.293-1.046 1.723-2.128 3.108-3.246 4.154-1.118 1.046-2.128 1.569-3.03 1.569zm21.416.277c-1.108 0-1.662-.995-1.662-2.985 0-.738.072-1.661.216-2.769-.82 1.641-1.636 2.964-2.447 3.97-.81 1.004-1.635 1.507-2.476 1.507-.657 0-1.206-.303-1.647-.908-.44-.605-.661-1.338-.661-2.2 0-.759.159-1.697.477-2.815.318-1.118.697-2.092 1.138-2.923.441-.831.805-1.246 1.093-1.246.164 0 .394.061.692.184.297.123.446.267.446.431-.43.656-.882 1.626-1.354 2.908-.472 1.282-.708 2.374-.708 3.277 0 .471.072.933.216 1.384.143.452.43.677.861.677.636 0 1.344-.549 2.123-1.646.78-1.097 1.61-2.508 2.493-4.23.164-.862.302-1.483.415-1.862.113-.38.226-.626.339-.739.112-.113.271-.169.477-.169.266 0 .482.056.646.17.164.112.246.281.246.507 0 .061-.02.174-.062.338-.225.76-.425 1.764-.6 3.016a24.933 24.933 0 0 0-.261 3.415c0 1.005.225 1.508.677 1.508.574 0 1.323-.641 2.246-1.923s1.764-2.744 2.523-4.385c0-2.605.513-3.908 1.538-3.908.35 0 .62.129.816.385.195.256.292.518.292.785 0 .205-.102.492-.308.861a7.578 7.578 0 0 0-.569 1.4c-.133.462-.2 1.082-.2 1.862 0 .677.098 1.236.292 1.677.195.44.58.661 1.154.661.452 0 .872-.174 1.262-.523.39-.349.78-.933 1.17-1.754l.4.308c-.74 1.723-1.755 2.585-3.047 2.585a2.225 2.225 0 0 1-1.615-.647c-.441-.43-.765-1.076-.97-1.938-.861 1.6-1.8 2.959-2.815 4.077-1.015 1.118-1.964 1.677-2.846 1.677zm15.63-.4c-.697 0-1.246-.185-1.646-.554-.4-.37-.6-.851-.6-1.446 0-.698.298-1.703.893-3.016.266-.676.466-1.215.6-1.615.133-.4.2-.774.2-1.123 0-.513-.118-.918-.354-1.215a3.542 3.542 0 0 0-.785-.739 15.477 15.477 0 0 0-.584-.384 58.378 58.378 0 0 1-1.447 3.369c-.512 1.097-.943 1.943-1.292 2.538l-.277-.523a42.768 42.768 0 0 0 2.493-5.846 1.007 1.007 0 0 1-.308-.738c0-.37.077-.718.23-1.047a2.28 2.28 0 0 1 .554-.769c.216-.184.385-.277.508-.277.287 0 .43.246.43.739 0 .082-.05.266-.153.554a5.203 5.203 0 0 0-.185.584c0 .205.088.395.262.57.174.174.456.394.846.66.636.452 1.133.898 1.492 1.34.36.44.539 1.01.539 1.707 0 .451-.072.898-.215 1.339-.144.44-.36 1.02-.647 1.738-.45.985-.677 1.692-.677 2.123 0 .615.308.923.924.923.615 0 1.276-.246 1.984-.738a9.629 9.629 0 0 0 1.954-1.831c.595-.728 1.026-1.4 1.292-2.015l.4.307c-.636 1.416-1.559 2.667-2.769 3.754-1.21 1.087-2.43 1.63-3.661 1.63zm11.293-14.092c-.37 0-.672-.088-.908-.262-.236-.174-.354-.426-.354-.754 0-.41.246-.78.739-1.108.492-.328.995-.492 1.507-.492.677 0 1.016.318 1.016.954 0 .39-.21.764-.63 1.123-.421.36-.878.539-1.37.539m-3.692 14.092c-.76 0-1.344-.241-1.754-.723-.41-.482-.616-1.103-.616-1.862 0-.8.231-1.907.693-3.323.461-1.415 1.036-2.656 1.723-3.723.687-1.067 1.359-1.6 2.015-1.6.185 0 .344.062.477.185s.2.287.2.492c0 .287-.328.974-.985 2.062-.677 1.128-1.215 2.138-1.615 3.03-.4.893-.6 1.739-.6 2.539 0 .718.118 1.205.354 1.461.236.257.62.385 1.154.385 1.6 0 3.18-1.57 4.738-4.708l.277.308c-.574 1.723-1.42 3.067-2.538 4.03-1.118.965-2.293 1.447-3.523 1.447zm7.815.615c-1.826 0-2.739-1.015-2.739-3.046 0-.882.16-1.974.477-3.277a35.144 35.144 0 0 1 1.308-4.138c-.492-.082-.861-.164-1.108-.246v-.554c.739.082 1.19.123 1.354.123.903-2.339 1.872-4.364 2.908-6.077 1.036-1.713 1.851-2.57 2.446-2.57.164 0 .313.062.446.185.134.123.2.287.2.493 0 .266-.128.656-.384 1.169-.257.513-.693 1.302-1.308 2.369-.103.205-.42.774-.954 1.708a34.829 34.829 0 0 0-1.446 2.815h1.138c1.703 0 3.17-.061 4.4-.185v.554c-2.236.246-4.04.37-5.415.37h-.462c-1.128 2.584-1.692 4.82-1.692 6.707 0 .882.133 1.513.4 1.893.267.379.708.569 1.323.569 1.046 0 2.082-.467 3.108-1.4 1.026-.934 1.938-2.22 2.738-3.862l.4.308c-.759 1.785-1.784 3.246-3.077 4.385-1.292 1.138-2.646 1.707-4.061 1.707zm8.77 0c-1.826 0-2.74-1.015-2.74-3.046 0-.882.16-1.974.478-3.277a35.144 35.144 0 0 1 1.307-4.138c-.492-.082-.861-.164-1.107-.246v-.554c.738.082 1.19.123 1.353.123.903-2.339 1.872-4.364 2.908-6.077 1.036-1.713 1.851-2.57 2.446-2.57.164 0 .313.062.446.185.134.123.2.287.2.493 0 .266-.128.656-.384 1.169-.257.513-.692 1.302-1.308 2.369-.102.205-.42.774-.954 1.708a34.828 34.828 0 0 0-1.446 2.815h1.139c1.702 0 3.169-.061 4.4-.185v.554c-2.236.246-4.041.37-5.416.37h-.461c-1.129 2.584-1.693 4.82-1.693 6.707 0 .882.134 1.513.4 1.893.267.379.708.569 1.323.569 1.047 0 2.083-.467 3.108-1.4 1.026-.934 1.939-2.22 2.739-3.862l.4.308c-.76 1.785-1.785 3.246-3.077 4.385-1.293 1.138-2.646 1.707-4.062 1.707zm9.476-.061c-1.21 0-2.138-.334-2.785-1-.646-.667-.969-1.523-.969-2.57 0-1.21.4-2.512 1.2-3.907.8-1.395 1.81-2.57 3.031-3.523 1.22-.954 2.415-1.431 3.585-1.431 1.271 0 1.907.626 1.907 1.877 0 1.005-.38 1.943-1.138 2.815-.76.872-1.733 1.585-2.923 2.139-1.19.554-2.38.892-3.57 1.015a4.824 4.824 0 0 0-.123 1.108c0 .738.185 1.354.554 1.846.37.492.995.738 1.877.738 1.252 0 2.513-.523 3.785-1.569 1.272-1.046 2.308-2.338 3.108-3.877l.369.277c-.82 1.826-1.96 3.292-3.416 4.4-1.456 1.108-2.953 1.662-4.492 1.662m-1.508-5.17a16.065 16.065 0 0 0 2.708-1.292 9.935 9.935 0 0 0 2.415-1.954c.667-.748 1-1.533 1-2.354 0-.246-.046-.425-.138-.538-.092-.113-.262-.17-.508-.17-.636 0-1.328.319-2.077.955-.748.636-1.436 1.446-2.061 2.43-.626.985-1.072 1.96-1.339 2.923zm18.37 4.431c-.698 0-1.231-.18-1.6-.538-.37-.36-.554-.836-.554-1.431 0-.267.046-.58.138-.938.093-.36.19-.713.293-1.062.123-.37.23-.759.323-1.17.092-.41.138-.779.138-1.107 0-1.005-.41-1.508-1.23-1.508-.78 0-1.596.41-2.447 1.231a16.31 16.31 0 0 0-2.277 2.739 87.995 87.995 0 0 0-2.261 3.63c-.349 0-.667-.056-.954-.169a1.484 1.484 0 0 1-.677-.508c0-.102.133-.471.4-1.107a50.09 50.09 0 0 0 1.261-3.585c.329-1.077.503-2.036.524-2.877.143-.164.348-.313.615-.446s.533-.2.8-.2c.554 0 .83.267.83.8 0 .308-.092.846-.276 1.615a29.64 29.64 0 0 1-.708 2.447c.985-1.518 2.03-2.8 3.139-3.847 1.107-1.046 2.194-1.569 3.261-1.569.76 0 1.328.272 1.708.816.38.543.569 1.194.569 1.953 0 .452-.056.883-.17 1.293-.112.41-.281.882-.507 1.415a14.92 14.92 0 0 0-.43 1.17 3.285 3.285 0 0 0-.155.984c0 .78.308 1.17.924 1.17.697 0 1.42-.462 2.169-1.385.748-.923 1.461-2.062 2.138-3.416l.339.4c-1.477 3.467-3.252 5.2-5.323 5.2z" fill="#333" fill-rule="nonzero"/></g><div xmlns="" id="divScriptsUsed" style="display: none"/><script xmlns="" id="globalVarsDetection" src="chrome-extension://cmkdbmfndkfgebldhnkbfhlneefdaaip/js/wrs_env.js"/><deepl-alert xmlns=""/><deepl-alert xmlns=""/><deepl-alert xmlns=""/></svg>