<svg xmlns="http://www.w3.org/2000/svg" width="150" height="50"><g fill="none" fill-rule="evenodd"><path d="M0 0h150v50H0z"/><path d="M32.708 29.81c-.072.852-.108 1.95-.108 3.294 0 2.448.084 4.464.252 6.048-1.632-.072-4.38-.108-8.244-.108-5.616 0-9.816.036-12.6.108v-.72c.768-.036 1.326-.132 1.674-.288.348-.144.582-.42.702-.828.12-.42.18-1.08.18-1.98V17.48c0-.9-.06-1.554-.18-1.962-.132-.42-.372-.702-.72-.846-.348-.156-.9-.252-1.656-.288v-.72c2.784.072 6.984.108 12.6.108 3.528 0 6.036-.036 7.524-.108-.168 2.256-.252 4.272-.252 6.048 0 1.116.036 1.986.108 2.61h-.828c-.42-2.796-1.218-4.8-2.394-6.012-1.176-1.212-2.586-1.818-4.23-1.818h-.468c-.66 0-1.14.054-1.44.162a.971.971 0 0 0-.594.612c-.108.312-.162.81-.162 1.494v9.216h.36c.852 0 1.62-.24 2.304-.72a5.896 5.896 0 0 0 1.71-1.818c.444-.732.738-1.47.882-2.214h.828a60.434 60.434 0 0 0-.126 3.492l.018 1.62c0 1.032.072 2.736.216 5.112h-.828a6.368 6.368 0 0 0-.9-2.43 5.227 5.227 0 0 0-1.728-1.71c-.708-.408-1.5-.612-2.376-.612h-.36v9.36c0 .696.054 1.194.162 1.494.108.312.306.516.594.612.3.108.78.162 1.44.162h1.188c.864 0 1.734-.276 2.61-.828.876-.552 1.674-1.464 2.394-2.736.72-1.272 1.26-2.922 1.62-4.95h.828zm10.836 6.012c0 .66.06 1.176.18 1.548.132.384.348.648.648.792.288.156.684.234 1.188.234v.756c-2.58-.096-4.284-.144-5.112-.144-.84 0-2.64.048-5.4.144v-.756c.504 0 .9-.078 1.188-.234.3-.144.516-.408.648-.792.12-.372.18-.888.18-1.548V15.32c0-1.116-.15-1.92-.45-2.412-.312-.504-.834-.756-1.566-.756v-.756c.744.072 1.488.108 2.232.108 2.52 0 4.608-.168 6.264-.504v24.822zm10.188-7.794a16.61 16.61 0 0 0-.036 1.296c0 2.316.402 3.96 1.206 4.932.804.984 1.788 1.476 2.952 1.476 1.74 0 3.192-.804 4.356-2.412l.612.234a10.906 10.906 0 0 1-1.476 2.97 7.714 7.714 0 0 1-2.502 2.268c-1.02.576-2.202.864-3.546.864-2.52 0-4.536-.78-6.048-2.34-1.524-1.56-2.286-4.056-2.286-7.488 0-2.22.396-4.068 1.188-5.544.804-1.476 1.902-2.568 3.294-3.276 1.38-.696 2.976-1.044 4.788-1.044 4.536 0 6.804 2.688 6.804 8.064h-9.306m4.05-.684c.024-1.908-.114-3.474-.414-4.698-.3-1.224-.768-1.836-1.404-1.836-.66 0-1.188.51-1.584 1.53-.396 1.032-.654 2.7-.774 5.004h4.176zM78.5 34.112c1.584 0 2.862.33 3.834.99.972.66 1.458 1.734 1.458 3.222 0 1.284-.396 2.502-1.188 3.654-.804 1.164-2.004 2.112-3.6 2.844-1.596.732-3.552 1.098-5.868 1.098-2.076 0-3.744-.144-5.004-.432-1.26-.288-2.148-.654-2.664-1.098-.528-.444-.792-.93-.792-1.458 0-.66.24-1.098.72-1.314.48-.216 1.356-.396 2.628-.54 1.284-.132 2.148-.462 2.592-.99h-1.188a6.279 6.279 0 0 1-1.89-.306c-.648-.204-1.212-.588-1.692-1.152-.48-.552-.72-1.314-.72-2.286 0-.804.15-1.5.45-2.088.3-.6.78-1.164 1.44-1.692.672-.516 1.596-1.05 2.772-1.602-1.392-.42-2.472-1.068-3.24-1.944-.768-.876-1.152-1.974-1.152-3.294 0-1.272.366-2.34 1.098-3.204.72-.864 1.71-1.506 2.97-1.926 1.272-.42 2.736-.63 4.392-.63.768 0 1.488.042 2.16.126a7.414 7.414 0 0 1-.036-.738c0-1.428.342-2.574 1.026-3.438.672-.876 1.686-1.314 3.042-1.314.888 0 1.626.21 2.214.63.6.432.9 1.026.9 1.782 0 .444-.132.84-.396 1.188-.264.36-.618.642-1.062.846a3.538 3.538 0 0 1-1.494.306c-.828 0-1.488-.15-1.98-.45-.504-.312-.918-.786-1.242-1.422-.168.48-.252 1.104-.252 1.872 0 .288.018.57.054.846 1.728.336 3.078.966 4.05 1.89.984.924 1.476 2.136 1.476 3.636 0 1.272-.36 2.34-1.08 3.204-.72.864-1.716 1.506-2.988 1.926-1.26.42-2.724.63-4.392.63-1.248 0-2.382-.114-3.402-.342-.504.324-.864.618-1.08.882a1.338 1.338 0 0 0-.324.9c0 .792.426 1.188 1.278 1.188H78.5m-4.644-13.5c-.6 0-1.05.39-1.35 1.17-.312.792-.468 2.106-.468 3.942 0 1.848.156 3.162.468 3.942.3.78.75 1.17 1.35 1.17.612 0 1.074-.39 1.386-1.17.312-.78.468-2.094.468-3.942 0-1.848-.156-3.162-.468-3.942-.312-.78-.774-1.17-1.386-1.17m-2.52 19.476c-.168.348-.288.75-.36 1.206a7.262 7.262 0 0 0-.108 1.134c0 .912.276 1.62.828 2.124.552.504 1.362.756 2.43.756.924 0 1.74-.168 2.448-.504a4.073 4.073 0 0 0 1.638-1.44c.396-.612.594-1.32.594-2.124 0-.384-.126-.672-.378-.864-.252-.192-.678-.288-1.278-.288h-5.814zm23.166-16.452c0-.768-.192-1.452-.576-2.052-.384-.6-1.086-.9-2.106-.9-.3 0-.624.054-.972.162-.348.12-.654.27-.918.45 1.608.6 2.412 1.686 2.412 3.258 0 .552-.144 1.062-.432 1.53a2.989 2.989 0 0 1-1.224 1.08c-.528.276-1.134.414-1.818.414-.588 0-1.104-.138-1.548-.414a2.76 2.76 0 0 1-1.026-1.134 3.393 3.393 0 0 1-.378-1.602c0-.732.204-1.374.612-1.926.396-.564.936-1.026 1.62-1.386 1.512-.768 3.432-1.152 5.76-1.152 1.38 0 2.544.132 3.492.396s1.746.732 2.394 1.404c.468.492.78 1.116.936 1.872.156.756.234 1.818.234 3.186v9.63c0 .576.042.978.126 1.206.084.228.222.342.414.342a.976.976 0 0 0 .522-.144c.156-.084.36-.216.612-.396l.342.612a5.043 5.043 0 0 1-1.962 1.026c-.756.204-1.656.306-2.7.306-1.272 0-2.202-.258-2.79-.774-.6-.504-.906-1.158-.918-1.962-.504.84-1.218 1.506-2.142 1.998-.912.492-1.92.738-3.024.738-1.416 0-2.526-.378-3.33-1.134-.804-.744-1.206-1.746-1.206-3.006 0-1.224.372-2.25 1.116-3.078.732-.816 1.884-1.482 3.456-1.998 1.284-.456 2.232-.816 2.844-1.08a5.745 5.745 0 0 0 1.548-.954c.42-.372.63-.81.63-1.314v-3.204m0 4.698c-.18.288-.648.81-1.404 1.566-1.176 1.14-1.764 2.496-1.764 4.068 0 1.704.606 2.556 1.818 2.556.504 0 .954-.204 1.35-.612v-7.578zm17.982-5.67c1.092-1.8 3-2.7 5.724-2.7 1.908 0 3.264.48 4.068 1.44.36.432.624 1.014.792 1.746.168.732.252 1.704.252 2.916v9.756c0 .66.066 1.176.198 1.548.132.384.342.648.63.792.288.156.684.234 1.188.234v.756c-2.58-.096-4.26-.144-5.04-.144-.828 0-2.532.048-5.112.144v-.756c.42 0 .75-.078.99-.234.228-.144.396-.402.504-.774.108-.372.162-.894.162-1.566V24.104c0-.768-.144-1.338-.432-1.71-.276-.372-.72-.558-1.332-.558-.444 0-.864.114-1.26.342-.396.216-.72.522-.972.918-.24.396-.36.84-.36 1.332v11.394c0 .66.048 1.176.144 1.548.108.384.282.648.522.792.24.156.57.234.99.234v.756c-2.436-.096-4.02-.144-4.752-.144-.84 0-2.64.048-5.4.144v-.756c.504 0 .9-.078 1.188-.234.3-.144.516-.408.648-.792.12-.372.18-.888.18-1.548v-11.43c0-1.116-.15-1.926-.45-2.43-.3-.492-.822-.738-1.566-.738v-.756c.756.072 1.5.108 2.232.108 2.496 0 4.584-.168 6.264-.504v2.592zm22.32-2.16h3.528v.72h-3.528v14.904c0 .468.084.804.252 1.008.156.192.432.288.828.288.3 0 .624-.084.972-.252.348-.168.672-.432.972-.792l.54.432c-1.104 1.896-2.808 2.844-5.112 2.844-1.656 0-2.892-.408-3.708-1.224-.492-.492-.822-1.11-.99-1.854-.156-.756-.234-1.806-.234-3.15V21.224h-2.736v-.72h2.736V16.22c1.296 0 2.466-.126 3.51-.378a10.81 10.81 0 0 0 2.97-1.206v5.868z" fill="#333" fill-rule="nonzero"/></g><div xmlns="" id="divScriptsUsed" style="display: none"/><script xmlns="" id="globalVarsDetection" src="chrome-extension://cmkdbmfndkfgebldhnkbfhlneefdaaip/js/wrs_env.js"/><deepl-alert xmlns=""/><deepl-alert xmlns=""/><deepl-alert xmlns=""/></svg>