<svg xmlns="http://www.w3.org/2000/svg" width="150" height="50"><g fill="none" fill-rule="evenodd"><path d="M0 0h150v50H0z"/><path d="M41.72 22.92c-3.16-.52-4.8-1.56-4.8-3.76 0-2.36 1.84-3.8 5.2-3.8 4.08 0 6.16 2.08 7.48 4.48H54V11.8h-4.12v2.36c-1.84-2-4.6-2.96-8-2.96-6.2 0-10 3.24-10 8.2 0 4.12 2.6 6.92 8.04 7.76l5.24.88c3.28.52 4.28 2.12 4.28 3.68 0 2.08-2.04 3.44-5.08 3.44-4.44 0-6.36-1.84-8.64-5.04h-4.48V39h4.48v-2.84c1.84 2.08 4.64 3.4 8.72 3.4 6.2 0 9.96-3.08 9.96-8.08 0-4.52-3.12-7-8.48-7.88l-4.2-.68Zm25.8 11.84h-3.08V10.6h-7.6v4.24h3v19.92h-3V39h10.68v-4.24Zm21.72-10.44h3.04v-4.24h-7.64v1.32c-1.56-1.12-3.52-1.76-5.8-1.76-5.28 0-9.52 4.4-9.52 9.92 0 5.48 4.24 9.88 9.52 9.88 2.28 0 4.24-.64 5.8-1.76V39h7.64v-4.24h-3.04V24.32Zm-9.72 11.12c-3.24 0-5.6-2.76-5.6-5.88 0-3.16 2.36-5.92 5.6-5.92 1.8 0 3.48.6 5.12 2.2v7.4c-1.64 1.6-3.32 2.2-5.12 2.2Zm28.32-15.8c-2.32 0-4.28.68-5.84 1.8V10.6h-7.6v4.24h3v19.92h-3V39h7.6v-1.36c1.56 1.12 3.52 1.8 5.84 1.8 5.28 0 9.52-4.4 9.52-9.92 0-5.48-4.24-9.88-9.52-9.88Zm-.72 15.8c-1.76 0-3.48-.6-5.12-2.24v-7.32c1.64-1.64 3.36-2.24 5.12-2.24 3.28 0 5.6 2.76 5.6 5.88 0 3.16-2.32 5.92-5.6 5.92Z" fill="#333" fill-rule="nonzero"/></g><div xmlns="" id="divScriptsUsed" style="display: none"/><script xmlns="" id="globalVarsDetection" src="chrome-extension://cmkdbmfndkfgebldhnkbfhlneefdaaip/js/wrs_env.js"/><deepl-alert xmlns=""/><deepl-alert xmlns=""/><deepl-alert xmlns=""/></svg>