<svg width="42" height="42" viewBox="0 0 52 52" fill="none" xmlns="http://www.w3.org/2000/svg">
<path d="M35.75 42.25C37.5449 42.25 39 40.7949 39 39C39 37.2051 37.5449 35.75 35.75 35.75C33.9551 35.75 32.5 37.2051 32.5 39C32.5 40.7949 33.9551 42.25 35.75 42.25Z" stroke="#6CC551" stroke-width="2" stroke-miterlimit="10"/>
<path d="M21.125 42.25C22.9199 42.25 24.375 40.7949 24.375 39C24.375 37.2051 22.9199 35.75 21.125 35.75C19.3301 35.75 17.875 37.2051 17.875 39C17.875 40.7949 19.3301 42.25 21.125 42.25Z" stroke="#6CC551" stroke-width="2" stroke-miterlimit="10"/>
<path d="M41.6943 16.25L37.7585 30.875H17.5191L13.2584 13.8369C12.8976 12.3906 11.5976 11.375 10.1059 11.375H6.5C5.603 11.375 4.875 12.103 4.875 13C4.875 13.897 5.603 14.625 6.5 14.625H10.1059L14.365 31.6631C14.7274 33.1094 16.0274 34.125 17.5191 34.125H37.7585C39.2243 34.125 40.508 33.1435 40.8948 31.7297L45.1165 16.25H41.6943Z" fill="#6CC551"/>
<path d="M27.625 11.375V21.125" stroke="#6CC551" stroke-width="2" stroke-miterlimit="10"/>
<path d="M34.125 19.5L27.625 26L21.125 19.5H34.125Z" fill="#6CC551"/>
</svg>
