<svg width="42" height="42" viewBox="0 0 42 42" fill="none" xmlns="http://www.w3.org/2000/svg">
<g clip-path="url(#clip0_1838_638)">
<path d="M37.1911 0H34.8583V0.00671893C34.8583 0.229465 34.7698 0.443088 34.6123 0.600594C34.4548 0.758099 34.2412 0.846584 34.0185 0.846584H7.98263C7.75988 0.846584 7.54626 0.758099 7.38875 0.600594C7.23125 0.443088 7.14276 0.229465 7.14276 0.00671893V0H1.68364C1.23814 0 0.810899 0.176971 0.495888 0.491982C0.180877 0.806993 0.00390625 1.23424 0.00390625 1.67973L0.00390625 40.3203C0.00390625 40.7658 0.180877 41.193 0.495888 41.508C0.810899 41.823 1.23814 42 1.68364 42H40.3175C40.7629 42 41.1902 41.823 41.5052 41.508C41.8202 41.193 41.9972 40.7658 41.9972 40.3203V4.83973C42.0178 4.80235 37.1948 0.0298152 37.1911 0Z" fill="#23475F"/>
<path d="M34.0362 22.2635H7.96682C7.74407 22.2635 7.53045 22.352 7.37294 22.5095C7.21544 22.667 7.12695 22.8806 7.12695 23.1034V42.0003H34.8761V23.1034C34.8761 22.6389 34.5003 22.2635 34.0362 22.2635ZM8.01847 18.0642H33.9846C34.2073 18.0642 34.421 17.9757 34.5785 17.8182C34.736 17.6607 34.8245 17.447 34.8245 17.2243V0.233398C34.7756 0.409455 34.6705 0.564685 34.5251 0.675389C34.3798 0.786093 34.2022 0.846188 34.0194 0.8465H7.98362C7.59896 0.8465 7.27771 0.586142 7.17861 0.233398V17.2239C7.17855 17.3342 7.20023 17.4435 7.24242 17.5454C7.2846 17.6474 7.34645 17.74 7.42445 17.818C7.50244 17.8961 7.59505 17.958 7.69697 18.0002C7.7989 18.0424 7.90814 18.0642 8.01847 18.0642Z" fill="#1C3C50"/>
<path d="M9.24221 23.5098H32.7584C32.9812 23.5098 33.1948 23.5983 33.3523 23.7558C33.5098 23.9133 33.5983 24.1269 33.5983 24.3496V39.9002C33.5983 40.1229 33.5098 40.3365 33.3523 40.494C33.1948 40.6515 32.9812 40.74 32.7584 40.74H9.24221C8.7786 40.74 8.40234 40.5737 8.40234 40.1101V24.3496C8.40234 24.1269 8.49083 23.9133 8.64833 23.7558C8.80584 23.5983 9.01946 23.5098 9.24221 23.5098Z" fill="#EBF0F1"/>
<path d="M10.502 32.3418H31.4986V32.7617H10.502V32.3418ZM10.502 36.5411H31.4986V36.9611H10.502V36.5411Z" fill="#BCC4C8"/>
<path d="M2.94338 35.2812H4.20318C4.42593 35.2812 4.63955 35.3697 4.79705 35.5272C4.95456 35.6847 5.04305 35.8984 5.04305 36.1211V37.3809C5.04305 37.6037 4.95456 37.8173 4.79705 37.9748C4.63955 38.1323 4.42593 38.2208 4.20318 38.2208H2.94338C2.72064 38.2208 2.50701 38.1323 2.34951 37.9748C2.192 37.8173 2.10352 37.6037 2.10352 37.3809V36.1211C2.10352 35.8984 2.192 35.6847 2.34951 35.5272C2.50701 35.3697 2.72064 35.2812 2.94338 35.2812ZM37.7978 35.2812H39.0576C39.2804 35.2812 39.494 35.3697 39.6515 35.5272C39.809 35.6847 39.8975 35.8984 39.8975 36.1211V37.3809C39.8975 37.6037 39.809 37.8173 39.6515 37.9748C39.494 38.1323 39.2804 38.2208 39.0576 38.2208H37.7978C37.5751 38.2208 37.3614 38.1323 37.2039 37.9748C37.0464 37.8173 36.9579 37.6037 36.9579 37.3809V36.1211C36.9579 35.8984 37.0464 35.6847 37.2039 35.5272C37.3614 35.3697 37.5751 35.2812 37.7978 35.2812Z" fill="#1C3C50"/>
<path d="M15.541 0.834961V15.9635C15.541 16.1862 15.6295 16.3998 15.787 16.5573C15.9445 16.7148 16.1581 16.8033 16.3809 16.8033H32.7583C32.981 16.8033 33.1946 16.7148 33.3521 16.5573C33.5096 16.3998 33.5981 16.1862 33.5981 15.9635V0.834961C33.5981 0.8379 15.5486 0.8379 15.541 0.834961ZM31.0785 13.0244C31.0785 13.2471 30.99 13.4607 30.8325 13.6182C30.675 13.7757 30.4614 13.8642 30.2387 13.8642H27.7191C27.4963 13.8642 27.2827 13.7757 27.1252 13.6182C26.9677 13.4607 26.8792 13.2471 26.8792 13.0244V4.61436C26.8792 4.39161 26.9677 4.17799 27.1252 4.02048C27.2827 3.86298 27.4963 3.77449 27.7191 3.77449H30.2387C30.4614 3.77449 30.675 3.86298 30.8325 4.02048C30.99 4.17799 31.0785 4.39161 31.0785 4.61436V13.0244Z" fill="#BCC4C8"/>
<path d="M32.7584 23.5098H9.24221C9.01946 23.5098 8.80584 23.5983 8.64833 23.7558C8.49083 23.9133 8.40234 24.1269 8.40234 24.3496V28.562H33.5983V24.3496C33.5983 24.1269 33.5098 23.9133 33.3523 23.7558C33.1948 23.5983 32.9812 23.5098 32.7584 23.5098Z" fill="#FF9D00"/>
</g>
<defs>
<clipPath id="clip0_1838_638">
<rect width="42" height="42" rx="5" fill="white"/>
</clipPath>
</defs>
</svg>
