<svg width="45" height="45" viewBox="0 0 45 45" fill="none" xmlns="http://www.w3.org/2000/svg">
<g filter="url(#filter0_d_1881_718)">
<path d="M27.9393 29.7072L29.707 27.9395L21.542 19.7744L19.7743 21.5421L27.9393 29.7072Z" fill="#386895"/>
<path d="M17.1232 25.3051C21.6419 25.3051 25.3051 21.6419 25.3051 17.1232C25.3051 12.6045 21.6419 8.94141 17.1232 8.94141C12.6045 8.94141 8.94141 12.6045 8.94141 17.1232C8.94141 21.6419 12.6045 25.3051 17.1232 25.3051Z" fill="#273B7A"/>
<path d="M17.123 23.373C20.5748 23.373 23.373 20.5748 23.373 17.123C23.373 13.6713 20.5748 10.873 17.123 10.873C13.6713 10.873 10.873 13.6713 10.873 17.123C10.873 20.5748 13.6713 23.373 17.123 23.373Z" fill="#38C6D9"/>
<path d="M18.938 20.072H18.134C18.11 19.928 18.05 19.67 17.99 19.466L17.348 17.234C17.282 17 17.228 16.772 17.174 16.466C17.108 16.808 17.048 17.042 16.994 17.234L16.358 19.466C16.286 19.736 16.238 19.928 16.22 20.072H15.422C15.392 19.922 15.392 19.922 15.26 19.454L14.306 16.01C14.204 15.662 14.144 15.476 14.066 15.296H15.026C15.038 15.5 15.068 15.68 15.134 15.944L15.692 18.23C15.734 18.416 15.8 18.722 15.836 18.932C15.914 18.56 15.956 18.392 16.004 18.224L16.67 15.908C16.742 15.656 16.784 15.458 16.802 15.296H17.54C17.558 15.44 17.612 15.674 17.678 15.896L18.35 18.206C18.392 18.362 18.422 18.482 18.518 18.932C18.548 18.794 18.548 18.794 18.584 18.584C18.602 18.488 18.65 18.254 18.662 18.2L19.22 15.938C19.28 15.71 19.316 15.464 19.322 15.296H20.282C20.198 15.5 20.144 15.662 20.048 16.01L19.088 19.448C19.046 19.616 19.016 19.724 19.004 19.778C18.956 19.946 18.956 19.946 18.938 20.072Z" fill="black"/>
</g>
<defs>
<filter id="filter0_d_1881_718" x="-4" y="0" width="53" height="53" filterUnits="userSpaceOnUse" color-interpolation-filters="sRGB">
<feFlood flood-opacity="0" result="BackgroundImageFix"/>
<feColorMatrix in="SourceAlpha" type="matrix" values="0 0 0 0 0 0 0 0 0 0 0 0 0 0 0 0 0 0 127 0" result="hardAlpha"/>
<feOffset dy="4"/>
<feGaussianBlur stdDeviation="2"/>
<feComposite in2="hardAlpha" operator="out"/>
<feColorMatrix type="matrix" values="0 0 0 0 0 0 0 0 0 0 0 0 0 0 0 0 0 0 0.25 0"/>
<feBlend mode="normal" in2="BackgroundImageFix" result="effect1_dropShadow_1881_718"/>
<feBlend mode="normal" in="SourceGraphic" in2="effect1_dropShadow_1881_718" result="shape"/>
</filter>
</defs>
</svg>
