<svg width="254" height="24" viewBox="0 0 254 24" fill="none" xmlns="http://www.w3.org/2000/svg">
<path d="M10.5469 21.1591C9.03646 21.1591 7.69176 20.9531 6.51278 20.5412C5.33381 20.134 4.33712 19.5374 3.52273 18.7514C2.70833 17.9607 2.08807 16.9972 1.66193 15.8608C1.2358 14.7244 1.02273 13.4318 1.02273 11.983C1.02273 10.553 1.2358 9.25568 1.66193 8.09091C2.0928 6.92614 2.72017 5.92708 3.54403 5.09375C4.3679 4.25568 5.37405 3.61174 6.5625 3.16193C7.75568 2.71212 9.11458 2.48722 10.6392 2.48722C12.0502 2.48722 13.3097 2.69318 14.4176 3.10511C15.5303 3.51705 16.4725 4.10417 17.2443 4.86648C18.0208 5.62405 18.6103 6.52604 19.0128 7.57244C19.42 8.61411 19.6212 9.76705 19.6165 11.0312C19.6212 11.9025 19.5455 12.7027 19.3892 13.4318C19.233 14.161 18.9867 14.7978 18.6506 15.3423C18.3191 15.8821 17.8835 16.3106 17.3438 16.6278C16.804 16.9403 16.1506 17.1179 15.3835 17.1605C14.8343 17.2031 14.3892 17.1629 14.0483 17.0398C13.7074 16.9167 13.447 16.7344 13.267 16.4929C13.0919 16.2467 12.9782 15.9602 12.9261 15.6335H12.8409C12.7273 15.9176 12.5047 16.1757 12.1733 16.4077C11.8419 16.6349 11.437 16.8125 10.9588 16.9403C10.4853 17.0634 9.98106 17.1084 9.44602 17.0753C8.88731 17.0421 8.35701 16.9119 7.85511 16.6847C7.35795 16.4574 6.91525 16.1283 6.52699 15.6974C6.14347 15.2666 5.84044 14.7339 5.6179 14.0994C5.40009 13.465 5.28883 12.7311 5.28409 11.8977C5.28883 11.0739 5.40483 10.3565 5.6321 9.74574C5.86411 9.13494 6.16951 8.62121 6.5483 8.20455C6.93182 7.78788 7.35795 7.46117 7.8267 7.22443C8.29545 6.98769 8.76657 6.83617 9.24006 6.76989C9.77509 6.68939 10.2817 6.68939 10.7599 6.76989C11.2382 6.85038 11.6406 6.98059 11.9673 7.16051C12.2988 7.34044 12.5047 7.53456 12.5852 7.7429H12.6847V6.94744H14.9077V13.8793C14.9124 14.206 14.9858 14.4593 15.1278 14.6392C15.2699 14.8191 15.4616 14.9091 15.7031 14.9091C16.0298 14.9091 16.3021 14.7647 16.5199 14.4759C16.7424 14.187 16.9081 13.7443 17.017 13.1477C17.1307 12.5511 17.1875 11.7912 17.1875 10.8679C17.1875 9.97775 17.0691 9.1965 16.8324 8.52415C16.6004 7.84706 16.2737 7.27178 15.8523 6.7983C15.4356 6.32008 14.9503 5.93182 14.3963 5.63352C13.8423 5.33523 13.241 5.11742 12.5923 4.98011C11.9484 4.8428 11.2855 4.77415 10.6037 4.77415C9.42472 4.77415 8.39489 4.95407 7.5142 5.31392C6.63352 5.66903 5.89962 6.16856 5.3125 6.8125C4.72538 7.45644 4.28504 8.21165 3.99148 9.07812C3.70265 9.93987 3.55587 10.8797 3.55114 11.8977C3.55587 13.0199 3.71212 14.0142 4.01989 14.8807C4.33239 15.7424 4.79167 16.4669 5.39773 17.054C6.00379 17.6411 6.75189 18.0862 7.64205 18.3892C8.5322 18.6922 9.55492 18.8438 10.7102 18.8438C11.2547 18.8438 11.7874 18.8059 12.3082 18.7301C12.8291 18.6496 13.3002 18.5549 13.7216 18.446C14.143 18.3324 14.4815 18.2235 14.7372 18.1193L15.4403 20.179C15.142 20.3494 14.7372 20.508 14.2259 20.6548C13.7192 20.8063 13.1463 20.9271 12.5071 21.017C11.8726 21.1117 11.2192 21.1591 10.5469 21.1591ZM10.2202 14.7386C10.7978 14.7386 11.2571 14.6274 11.598 14.4048C11.9437 14.1823 12.1899 13.8532 12.3366 13.4176C12.4882 12.9773 12.5592 12.4351 12.5497 11.7912C12.545 11.223 12.4716 10.7424 12.3295 10.3494C12.1922 9.9517 11.9531 9.65104 11.6122 9.44744C11.276 9.23911 10.8073 9.13494 10.206 9.13494C9.6804 9.13494 9.23295 9.24621 8.86364 9.46875C8.49905 9.69129 8.2197 10.0038 8.02557 10.4062C7.83617 10.804 7.73911 11.2727 7.73438 11.8125C7.73911 12.3144 7.8196 12.7902 7.97585 13.2401C8.1321 13.6851 8.39015 14.0473 8.75 14.3267C9.10985 14.6013 9.59991 14.7386 10.2202 14.7386ZM21.7844 19V16.7841L26.962 11.9901C27.4023 11.5639 27.7717 11.1804 28.07 10.8395C28.373 10.4986 28.6026 10.1648 28.7589 9.83807C28.9151 9.50663 28.9933 9.14915 28.9933 8.76562C28.9933 8.33949 28.8962 7.97254 28.7021 7.66477C28.5079 7.35227 28.2428 7.11316 27.9066 6.94744C27.5704 6.77699 27.1893 6.69176 26.7631 6.69176C26.3181 6.69176 25.9298 6.78172 25.5984 6.96165C25.2669 7.14157 25.0112 7.39962 24.8313 7.7358C24.6514 8.07197 24.5614 8.47206 24.5614 8.93608H21.6424C21.6424 7.98437 21.8578 7.15814 22.2887 6.45739C22.7196 5.75663 23.3233 5.21449 24.0998 4.83097C24.8763 4.44744 25.7712 4.25568 26.7844 4.25568C27.8261 4.25568 28.7328 4.44034 29.5046 4.80966C30.2811 5.17424 30.8848 5.68087 31.3157 6.32955C31.7466 6.97822 31.962 7.72159 31.962 8.55966C31.962 9.1089 31.8531 9.65104 31.6353 10.1861C31.4222 10.7211 31.0411 11.3153 30.4918 11.9688C29.9426 12.6174 29.1684 13.3963 28.1694 14.3054L26.0458 16.3864V16.4858H32.1538V19H21.7844ZM40.0852 19.3196C38.8636 19.3149 37.8125 19.0142 36.9318 18.4176C36.0559 17.821 35.3812 16.9569 34.9077 15.8253C34.4389 14.6937 34.2069 13.3324 34.2116 11.7415C34.2116 10.1553 34.446 8.8035 34.9148 7.68608C35.3883 6.56865 36.063 5.71875 36.9389 5.13636C37.8196 4.54924 38.8684 4.25568 40.0852 4.25568C41.3021 4.25568 42.3485 4.54924 43.2244 5.13636C44.1051 5.72348 44.7822 6.57576 45.2557 7.69318C45.7292 8.80587 45.9635 10.1553 45.9588 11.7415C45.9588 13.3371 45.7221 14.7008 45.2486 15.8324C44.7798 16.964 44.1075 17.8281 43.2315 18.4247C42.3556 19.0213 41.3068 19.3196 40.0852 19.3196ZM40.0852 16.7699C40.9186 16.7699 41.5838 16.3509 42.081 15.5128C42.5781 14.6747 42.8243 13.4176 42.8196 11.7415C42.8196 10.6383 42.706 9.7197 42.4787 8.9858C42.2562 8.25189 41.9389 7.70028 41.527 7.33097C41.1198 6.96165 40.6392 6.77699 40.0852 6.77699C39.2566 6.77699 38.5938 7.19129 38.0966 8.01989C37.5994 8.84848 37.3485 10.089 37.3438 11.7415C37.3438 12.8589 37.455 13.7917 37.6776 14.5398C37.9048 15.2831 38.2244 15.8419 38.6364 16.2159C39.0483 16.5852 39.5312 16.7699 40.0852 16.7699ZM48.1516 19V16.7841L53.3292 11.9901C53.7695 11.5639 54.1388 11.1804 54.4371 10.8395C54.7402 10.4986 54.9698 10.1648 55.1261 9.83807C55.2823 9.50663 55.3604 9.14915 55.3604 8.76562C55.3604 8.33949 55.2634 7.97254 55.0692 7.66477C54.8751 7.35227 54.61 7.11316 54.2738 6.94744C53.9376 6.77699 53.5565 6.69176 53.1303 6.69176C52.6853 6.69176 52.297 6.78172 51.9656 6.96165C51.6341 7.14157 51.3784 7.39962 51.1985 7.7358C51.0186 8.07197 50.9286 8.47206 50.9286 8.93608H48.0096C48.0096 7.98437 48.225 7.15814 48.6559 6.45739C49.0868 5.75663 49.6905 5.21449 50.467 4.83097C51.2435 4.44744 52.1384 4.25568 53.1516 4.25568C54.1933 4.25568 55.1 4.44034 55.8718 4.80966C56.6483 5.17424 57.252 5.68087 57.6829 6.32955C58.1138 6.97822 58.3292 7.72159 58.3292 8.55966C58.3292 9.1089 58.2203 9.65104 58.0025 10.1861C57.7894 10.7211 57.4083 11.3153 56.859 11.9688C56.3098 12.6174 55.5356 13.3963 54.5366 14.3054L52.413 16.3864V16.4858H58.521V19H48.1516ZM60.2166 16.4432V14.0213L66.2891 4.45455H68.3771V7.80682H67.1413L63.3132 13.8651V13.9787H71.9425V16.4432H60.2166ZM67.1982 19V15.7045L67.255 14.6321V4.45455H70.1385V19H67.1982ZM91.5394 9.54688H88.4286C88.3718 9.14441 88.2558 8.78693 88.0806 8.47443C87.9054 8.1572 87.6805 7.88731 87.4059 7.66477C87.1313 7.44223 86.814 7.27178 86.4542 7.15341C86.0991 7.03504 85.7132 6.97585 85.2965 6.97585C84.5437 6.97585 83.8879 7.16288 83.3292 7.53693C82.7705 7.90625 82.3372 8.44602 82.0295 9.15625C81.7217 9.86174 81.5678 10.7187 81.5678 11.7273C81.5678 12.7642 81.7217 13.6354 82.0295 14.3409C82.342 15.0464 82.7776 15.5791 83.3363 15.9389C83.895 16.2988 84.5413 16.4787 85.2752 16.4787C85.6871 16.4787 86.0683 16.4242 86.4187 16.3153C86.7738 16.2064 87.0887 16.0478 87.3633 15.8395C87.6379 15.6264 87.8652 15.3684 88.0451 15.0653C88.2298 14.7623 88.3576 14.4167 88.4286 14.0284L91.5394 14.0426C91.4589 14.7102 91.2577 15.3542 90.9357 15.9744C90.6185 16.59 90.19 17.1416 89.6502 17.6293C89.1152 18.1122 88.476 18.4957 87.7326 18.7798C86.994 19.0592 86.1583 19.1989 85.2255 19.1989C83.9281 19.1989 82.7681 18.9053 81.7454 18.3182C80.7274 17.7311 79.9225 16.8812 79.3306 15.7685C78.7435 14.6558 78.4499 13.3087 78.4499 11.7273C78.4499 10.1411 78.7482 8.79167 79.3448 7.67898C79.9414 6.56629 80.7511 5.71875 81.7738 5.13636C82.7965 4.54924 83.9471 4.25568 85.2255 4.25568C86.0683 4.25568 86.8496 4.37405 87.5692 4.6108C88.2937 4.84754 88.9353 5.19318 89.494 5.64773C90.0527 6.09754 90.5072 6.64915 90.8576 7.30256C91.2127 7.95597 91.44 8.70407 91.5394 9.54688ZM98.6168 19.2131C97.5136 19.2131 96.5595 18.9787 95.7546 18.5099C94.9544 18.0365 94.3365 17.3783 93.9009 16.5355C93.4653 15.688 93.2475 14.7055 93.2475 13.5881C93.2475 12.4612 93.4653 11.4763 93.9009 10.6335C94.3365 9.78598 94.9544 9.12784 95.7546 8.65909C96.5595 8.18561 97.5136 7.94886 98.6168 7.94886C99.7201 7.94886 100.672 8.18561 101.472 8.65909C102.277 9.12784 102.897 9.78598 103.333 10.6335C103.768 11.4763 103.986 12.4612 103.986 13.5881C103.986 14.7055 103.768 15.688 103.333 16.5355C102.897 17.3783 102.277 18.0365 101.472 18.5099C100.672 18.9787 99.7201 19.2131 98.6168 19.2131ZM98.631 16.8693C99.1329 16.8693 99.552 16.7273 99.8881 16.4432C100.224 16.1544 100.478 15.7614 100.648 15.2642C100.823 14.767 100.911 14.2012 100.911 13.5668C100.911 12.9323 100.823 12.3665 100.648 11.8693C100.478 11.3722 100.224 10.9792 99.8881 10.6903C99.552 10.4015 99.1329 10.2571 98.631 10.2571C98.1244 10.2571 97.6983 10.4015 97.3526 10.6903C97.0117 10.9792 96.7537 11.3722 96.5785 11.8693C96.408 12.3665 96.3228 12.9323 96.3228 13.5668C96.3228 14.2012 96.408 14.767 96.5785 15.2642C96.7537 15.7614 97.0117 16.1544 97.3526 16.4432C97.6983 16.7273 98.1244 16.8693 98.631 16.8693ZM105.953 23.0909V8.09091H108.936V9.9233H109.071C109.204 9.62973 109.396 9.33144 109.647 9.02841C109.902 8.72064 110.234 8.46496 110.641 8.26136C111.053 8.05303 111.564 7.94886 112.175 7.94886C112.971 7.94886 113.704 8.1572 114.377 8.57386C115.049 8.9858 115.587 9.60843 115.989 10.4418C116.391 11.2704 116.593 12.3097 116.593 13.5597C116.593 14.7765 116.396 15.804 116.003 16.642C115.615 17.4754 115.085 18.1075 114.412 18.5384C113.745 18.9645 112.997 19.1776 112.168 19.1776C111.581 19.1776 111.081 19.0805 110.669 18.8864C110.262 18.6922 109.928 18.4484 109.668 18.1548C109.408 17.8565 109.209 17.5559 109.071 17.2528H108.979V23.0909H105.953ZM108.915 13.5455C108.915 14.1941 109.005 14.7599 109.185 15.2429C109.365 15.7259 109.625 16.1023 109.966 16.3722C110.307 16.6373 110.721 16.7699 111.209 16.7699C111.702 16.7699 112.118 16.6349 112.459 16.3651C112.8 16.0904 113.058 15.7116 113.233 15.2287C113.413 14.741 113.503 14.1799 113.503 13.5455C113.503 12.9157 113.416 12.3617 113.24 11.8835C113.065 11.4053 112.807 11.0312 112.466 10.7614C112.125 10.4915 111.706 10.3565 111.209 10.3565C110.717 10.3565 110.3 10.4867 109.959 10.7472C109.623 11.0076 109.365 11.3769 109.185 11.8551C109.005 12.3333 108.915 12.8968 108.915 13.5455ZM120.126 23.0909C119.743 23.0909 119.383 23.0601 119.047 22.9986C118.715 22.9418 118.44 22.8684 118.223 22.7784L118.904 20.5199C119.26 20.6288 119.579 20.688 119.863 20.6974C120.152 20.7069 120.401 20.6406 120.609 20.4986C120.822 20.3565 120.995 20.1151 121.127 19.7741L121.305 19.3125L117.392 8.09091H120.574L122.832 16.1023H122.946L125.225 8.09091H128.429L124.189 20.179C123.985 20.7661 123.708 21.2775 123.358 21.7131C123.012 22.1534 122.574 22.492 122.044 22.7287C121.513 22.9702 120.874 23.0909 120.126 23.0909ZM129.977 19V8.09091H132.91V9.99432H133.024C133.223 9.31723 133.556 8.80587 134.025 8.46023C134.494 8.10985 135.034 7.93466 135.645 7.93466C135.796 7.93466 135.959 7.94413 136.135 7.96307C136.31 7.98201 136.464 8.00805 136.596 8.04119V10.7259C136.454 10.6832 136.258 10.6454 136.007 10.6122C135.756 10.5791 135.526 10.5625 135.318 10.5625C134.873 10.5625 134.475 10.6596 134.125 10.8537C133.779 11.0431 133.504 11.3082 133.301 11.6491C133.102 11.9901 133.002 12.383 133.002 12.8281V19H129.977ZM138.161 19V8.09091H141.186V19H138.161ZM139.68 6.68466C139.231 6.68466 138.845 6.53551 138.523 6.23722C138.205 5.93419 138.047 5.57197 138.047 5.15057C138.047 4.7339 138.205 4.37642 138.523 4.07812C138.845 3.77509 139.231 3.62358 139.68 3.62358C140.13 3.62358 140.514 3.77509 140.831 4.07812C141.153 4.37642 141.314 4.7339 141.314 5.15057C141.314 5.57197 141.153 5.93419 140.831 6.23722C140.514 6.53551 140.13 6.68466 139.68 6.68466ZM148.525 23.3182C147.544 23.3182 146.704 23.1832 146.003 22.9134C145.307 22.6482 144.753 22.286 144.341 21.8267C143.929 21.3674 143.662 20.8513 143.539 20.2784L146.337 19.902C146.422 20.1198 146.557 20.3234 146.742 20.5128C146.926 20.7022 147.17 20.8537 147.473 20.9673C147.781 21.0857 148.155 21.1449 148.596 21.1449C149.254 21.1449 149.796 20.9839 150.222 20.6619C150.653 20.3447 150.868 19.812 150.868 19.0639V17.0682H150.74C150.608 17.3712 150.409 17.6577 150.144 17.9276C149.879 18.1974 149.538 18.4176 149.121 18.5881C148.704 18.7585 148.207 18.8438 147.63 18.8438C146.81 18.8438 146.065 18.6544 145.392 18.2756C144.725 17.892 144.192 17.3073 143.794 16.5213C143.401 15.7306 143.205 14.7315 143.205 13.5241C143.205 12.2884 143.406 11.2562 143.809 10.4276C144.211 9.59896 144.746 8.97869 145.414 8.56676C146.086 8.15483 146.822 7.94886 147.623 7.94886C148.233 7.94886 148.745 8.05303 149.157 8.26136C149.569 8.46496 149.9 8.72064 150.151 9.02841C150.407 9.33144 150.603 9.62973 150.74 9.9233H150.854V8.09091H153.858V19.1065C153.858 20.0346 153.631 20.8111 153.176 21.4361C152.722 22.0611 152.092 22.5298 151.287 22.8423C150.487 23.1596 149.566 23.3182 148.525 23.3182ZM148.588 16.571C149.076 16.571 149.488 16.4503 149.824 16.2088C150.165 15.9626 150.426 15.6122 150.605 15.1577C150.79 14.6984 150.882 14.1491 150.882 13.5099C150.882 12.8707 150.792 12.3168 150.613 11.848C150.433 11.3745 150.172 11.0076 149.831 10.7472C149.49 10.4867 149.076 10.3565 148.588 10.3565C148.091 10.3565 147.672 10.4915 147.331 10.7614C146.99 11.0265 146.732 11.3958 146.557 11.8693C146.382 12.3428 146.294 12.8897 146.294 13.5099C146.294 14.1397 146.382 14.6842 146.557 15.1435C146.737 15.598 146.995 15.9508 147.331 16.2017C147.672 16.4479 148.091 16.571 148.588 16.571ZM159.292 12.6932V19H156.266V4.45455H159.206V10.0156H159.334C159.58 9.37169 159.978 8.86742 160.527 8.50284C161.077 8.13352 161.766 7.94886 162.594 7.94886C163.352 7.94886 164.012 8.11458 164.576 8.44602C165.144 8.77273 165.584 9.24384 165.897 9.85938C166.214 10.4702 166.37 11.2017 166.365 12.054V19H163.34V12.5938C163.345 11.9214 163.174 11.3982 162.828 11.0241C162.488 10.6501 162.009 10.4631 161.394 10.4631C160.982 10.4631 160.617 10.5507 160.3 10.7259C159.988 10.901 159.741 11.1567 159.561 11.4929C159.386 11.8243 159.296 12.2244 159.292 12.6932ZM174.549 8.09091V10.3636H167.979V8.09091H174.549ZM169.471 5.47727H172.496V15.6477C172.496 15.9271 172.539 16.1449 172.624 16.3011C172.71 16.4527 172.828 16.5592 172.979 16.6207C173.136 16.6823 173.316 16.7131 173.519 16.7131C173.661 16.7131 173.803 16.7012 173.945 16.6776C174.087 16.6491 174.196 16.6278 174.272 16.6136L174.748 18.8651C174.596 18.9124 174.383 18.9669 174.109 19.0284C173.834 19.0947 173.5 19.1349 173.107 19.1491C172.378 19.1776 171.739 19.0805 171.19 18.858C170.645 18.6354 170.221 18.2898 169.918 17.821C169.615 17.3523 169.466 16.7604 169.471 16.0455V5.47727ZM183.713 19H180.417L185.439 4.45455H189.402L194.416 19H191.12L187.477 7.77841H187.363L183.713 19ZM183.507 13.2827H191.291V15.6832H183.507V13.2827ZM199.242 4.45455V19H196.167V4.45455H199.242ZM206.401 19V4.45455H209.476V16.4645H215.712V19H206.401ZM222.621 19.2131C221.518 19.2131 220.563 18.9787 219.759 18.5099C218.958 18.0365 218.34 17.3783 217.905 16.5355C217.469 15.688 217.251 14.7055 217.251 13.5881C217.251 12.4612 217.469 11.4763 217.905 10.6335C218.34 9.78598 218.958 9.12784 219.759 8.65909C220.563 8.18561 221.518 7.94886 222.621 7.94886C223.724 7.94886 224.676 8.18561 225.476 8.65909C226.281 9.12784 226.901 9.78598 227.337 10.6335C227.772 11.4763 227.99 12.4612 227.99 13.5881C227.99 14.7055 227.772 15.688 227.337 16.5355C226.901 17.3783 226.281 18.0365 225.476 18.5099C224.676 18.9787 223.724 19.2131 222.621 19.2131ZM222.635 16.8693C223.137 16.8693 223.556 16.7273 223.892 16.4432C224.228 16.1544 224.482 15.7614 224.652 15.2642C224.827 14.767 224.915 14.2012 224.915 13.5668C224.915 12.9323 224.827 12.3665 224.652 11.8693C224.482 11.3722 224.228 10.9792 223.892 10.6903C223.556 10.4015 223.137 10.2571 222.635 10.2571C222.128 10.2571 221.702 10.4015 221.357 10.6903C221.016 10.9792 220.758 11.3722 220.582 11.8693C220.412 12.3665 220.327 12.9323 220.327 13.5668C220.327 14.2012 220.412 14.767 220.582 15.2642C220.758 15.7614 221.016 16.1544 221.357 16.4432C221.702 16.7273 222.128 16.8693 222.635 16.8693ZM234.872 23.3182C233.892 23.3182 233.052 23.1832 232.351 22.9134C231.655 22.6482 231.101 22.286 230.689 21.8267C230.277 21.3674 230.009 20.8513 229.886 20.2784L232.685 19.902C232.77 20.1198 232.905 20.3234 233.089 20.5128C233.274 20.7022 233.518 20.8537 233.821 20.9673C234.129 21.0857 234.503 21.1449 234.943 21.1449C235.601 21.1449 236.143 20.9839 236.57 20.6619C237 20.3447 237.216 19.812 237.216 19.0639V17.0682H237.088C236.955 17.3712 236.757 17.6577 236.491 17.9276C236.226 18.1974 235.885 18.4176 235.469 18.5881C235.052 18.7585 234.555 18.8438 233.977 18.8438C233.158 18.8438 232.412 18.6544 231.74 18.2756C231.072 17.892 230.54 17.3073 230.142 16.5213C229.749 15.7306 229.553 14.7315 229.553 13.5241C229.553 12.2884 229.754 11.2562 230.156 10.4276C230.559 9.59896 231.094 8.97869 231.761 8.56676C232.434 8.15483 233.17 7.94886 233.97 7.94886C234.581 7.94886 235.092 8.05303 235.504 8.26136C235.916 8.46496 236.248 8.72064 236.499 9.02841C236.754 9.33144 236.951 9.62973 237.088 9.9233H237.202V8.09091H240.206V19.1065C240.206 20.0346 239.979 20.8111 239.524 21.4361C239.07 22.0611 238.44 22.5298 237.635 22.8423C236.835 23.1596 235.914 23.3182 234.872 23.3182ZM234.936 16.571C235.424 16.571 235.836 16.4503 236.172 16.2088C236.513 15.9626 236.773 15.6122 236.953 15.1577C237.138 14.6984 237.23 14.1491 237.23 13.5099C237.23 12.8707 237.14 12.3168 236.96 11.848C236.78 11.3745 236.52 11.0076 236.179 10.7472C235.838 10.4867 235.424 10.3565 234.936 10.3565C234.439 10.3565 234.02 10.4915 233.679 10.7614C233.338 11.0265 233.08 11.3958 232.905 11.8693C232.73 12.3428 232.642 12.8897 232.642 13.5099C232.642 14.1397 232.73 14.6842 232.905 15.1435C233.085 15.598 233.343 15.9508 233.679 16.2017C234.02 16.4479 234.439 16.571 234.936 16.571ZM247.543 19.2131C246.439 19.2131 245.485 18.9787 244.68 18.5099C243.88 18.0365 243.262 17.3783 242.827 16.5355C242.391 15.688 242.173 14.7055 242.173 13.5881C242.173 12.4612 242.391 11.4763 242.827 10.6335C243.262 9.78598 243.88 9.12784 244.68 8.65909C245.485 8.18561 246.439 7.94886 247.543 7.94886C248.646 7.94886 249.598 8.18561 250.398 8.65909C251.203 9.12784 251.823 9.78598 252.259 10.6335C252.694 11.4763 252.912 12.4612 252.912 13.5881C252.912 14.7055 252.694 15.688 252.259 16.5355C251.823 17.3783 251.203 18.0365 250.398 18.5099C249.598 18.9787 248.646 19.2131 247.543 19.2131ZM247.557 16.8693C248.059 16.8693 248.478 16.7273 248.814 16.4432C249.15 16.1544 249.403 15.7614 249.574 15.2642C249.749 14.767 249.837 14.2012 249.837 13.5668C249.837 12.9323 249.749 12.3665 249.574 11.8693C249.403 11.3722 249.15 10.9792 248.814 10.6903C248.478 10.4015 248.059 10.2571 247.557 10.2571C247.05 10.2571 246.624 10.4015 246.278 10.6903C245.938 10.9792 245.679 11.3722 245.504 11.8693C245.334 12.3665 245.249 12.9323 245.249 13.5668C245.249 14.2012 245.334 14.767 245.504 15.2642C245.679 15.7614 245.938 16.1544 246.278 16.4432C246.624 16.7273 247.05 16.8693 247.557 16.8693Z" fill="white"/>
</svg>
