<svg width="400" height="400" viewBox="0 0 400 400" fill="none" xmlns="http://www.w3.org/2000/svg">
<path d="M386.207 31.0342H13.793C6.175 31.0342 0 37.2092 0 44.8272V265.517H400V44.8272C400 37.2092 393.825 31.0342 386.207 31.0342ZM379.31 244.827H20.6898V51.724H379.31V244.827Z" fill="#464655"/>
<path d="M158.62 137.932C160.526 137.932 162.068 139.474 162.068 141.38H172.412V131.036H158.62C156.713 131.036 155.171 129.494 155.171 127.587C155.171 125.681 156.713 124.139 158.62 124.139H172.412V79.3115H110.344V141.38H155.171C155.172 139.474 156.714 137.932 158.62 137.932Z" fill="white"/>
<path d="M20.6898 244.828H379.31V51.7246H20.6898V244.828ZM172.413 227.586H158.62C156.714 227.586 155.172 226.044 155.172 224.138C155.172 222.232 156.714 220.689 158.62 220.689H172.413C174.32 220.689 175.862 222.232 175.862 224.138C175.862 226.044 174.319 227.586 172.413 227.586ZM158.62 193.104C160.526 193.104 162.068 194.646 162.068 196.552V210.345C162.068 212.251 160.526 213.793 158.62 213.793C156.713 213.793 155.171 212.251 155.171 210.345V196.552C155.172 194.646 156.714 193.104 158.62 193.104ZM155.172 182.759V168.966C155.172 167.06 156.714 165.518 158.62 165.518C160.527 165.518 162.069 167.06 162.069 168.966V182.759C162.069 184.665 160.527 186.207 158.62 186.207C156.714 186.207 155.172 184.665 155.172 182.759ZM199.999 227.586H186.206C184.3 227.586 182.758 226.044 182.758 224.138C182.758 222.232 184.3 220.689 186.206 220.689H199.999C201.905 220.689 203.448 222.232 203.448 224.138C203.448 226.044 201.905 227.586 199.999 227.586ZM258.619 210.345C258.619 212.251 257.077 213.793 255.171 213.793C253.265 213.793 251.723 212.251 251.723 210.345V196.552C251.723 194.646 253.265 193.104 255.171 193.104C257.077 193.104 258.619 194.646 258.619 196.552V210.345ZM258.619 182.759C258.619 184.665 257.077 186.207 255.171 186.207C253.265 186.207 251.723 184.665 251.723 182.759V168.966C251.723 167.06 253.265 165.518 255.171 165.518C257.077 165.518 258.619 167.06 258.619 168.966V182.759ZM258.619 155.173C258.619 157.079 257.077 158.621 255.171 158.621C253.265 158.621 251.723 157.079 251.723 155.173V141.38C251.723 139.474 253.265 137.932 255.171 137.932C257.077 137.932 258.619 139.474 258.619 141.38V155.173ZM289.655 162.069V113.793V72.4145C289.655 68.6059 292.744 65.5176 296.552 65.5176H358.621C362.43 65.5176 365.518 68.6059 365.518 72.4145V113.794V162.07V224.139C365.518 227.947 362.43 231.036 358.621 231.036H296.552C292.744 231.036 289.655 227.947 289.655 224.139V162.069ZM241.378 124.139H255.171C257.077 124.139 258.619 125.681 258.619 127.587C258.619 129.493 257.077 131.036 255.171 131.036H241.378C239.472 131.036 237.93 129.493 237.93 127.587C237.93 125.681 239.473 124.139 241.378 124.139ZM241.378 220.69H255.171C257.077 220.69 258.619 222.232 258.619 224.139C258.619 226.045 257.077 227.587 255.171 227.587H241.378C239.472 227.587 237.93 226.045 237.93 224.139C237.93 222.232 239.473 220.69 241.378 220.69ZM213.792 124.139H227.585C229.491 124.139 231.034 125.681 231.034 127.587C231.034 129.493 229.491 131.036 227.585 131.036H213.792C211.886 131.036 210.344 129.493 210.344 127.587C210.344 125.681 211.886 124.139 213.792 124.139ZM213.792 220.69H227.585C229.491 220.69 231.034 222.232 231.034 224.139C231.034 226.045 229.491 227.587 227.585 227.587H213.792C211.886 227.587 210.344 226.045 210.344 224.139C210.344 222.232 211.886 220.69 213.792 220.69ZM96.5508 72.4145C96.5508 68.6027 99.639 65.5176 103.448 65.5176H179.309C183.118 65.5176 186.206 68.602 186.206 72.4145V124.139H199.999C201.905 124.139 203.448 125.681 203.448 127.587C203.448 129.493 201.905 131.036 199.999 131.036H186.206V148.277C186.206 149.025 186.084 149.743 185.864 150.417L203.962 166.631C205.461 167.974 205.07 170.418 203.227 171.228L196.37 174.238L202.495 188.189C203.259 189.932 202.464 191.967 200.723 192.734C200.272 192.929 199.8 193.024 199.339 193.024C198.009 193.024 196.746 192.256 196.177 190.963L190.052 177.011L183.191 180.021C181.348 180.831 179.284 179.464 179.311 177.451L179.601 155.159C179.503 155.164 179.408 155.174 179.309 155.174H162.068C162.068 157.08 160.526 158.622 158.62 158.622C156.713 158.622 155.171 157.08 155.171 155.174H103.447C99.6383 155.174 96.55 152.089 96.55 148.277L96.5508 72.4145ZM34.4828 72.4145C34.4828 68.6059 37.5711 65.5176 41.3797 65.5176H62.0695C65.8781 65.5176 68.9664 68.6059 68.9664 72.4145V224.139C68.9664 227.947 65.8781 231.036 62.0695 231.036H41.3797C37.5711 231.036 34.4828 227.947 34.4828 224.139V72.4145Z" fill="white"/>
<path d="M0 293.104C0 300.721 6.175 306.896 13.793 306.896H144.827H255.172H386.206C393.824 306.896 399.999 300.721 399.999 293.104V265.518H0V293.104ZM200 275.862C205.713 275.862 210.345 280.494 210.345 286.207C210.345 291.919 205.712 296.551 200 296.551C194.287 296.551 189.655 291.919 189.655 286.207C189.655 280.494 194.287 275.862 200 275.862Z" fill="#BEC8DC"/>
<path d="M138.793 355.172H261.207L256.897 320.689H143.103L138.793 355.172Z" fill="#AFBBD0"/>
<path d="M137.931 355.173C134.123 355.173 131.034 358.261 131.034 362.07C131.034 365.878 134.123 368.967 137.931 368.967H262.07C265.878 368.967 268.966 365.878 268.966 362.07C268.966 358.261 265.878 355.173 262.07 355.173H261.208H138.794H137.931Z" fill="#BEC8DC"/>
<path d="M143.103 320.689H256.897L255.173 306.896H144.827L143.103 320.689Z" fill="#96A5B9"/>
<path d="M200 296.551C205.713 296.551 210.345 291.92 210.345 286.207C210.345 280.494 205.713 275.862 200 275.862C194.287 275.862 189.656 280.494 189.656 286.207C189.656 291.92 194.287 296.551 200 296.551Z" fill="#96A5B9"/>
<path d="M41.3797 231.035H62.0695C65.8781 231.035 68.9664 227.946 68.9664 224.138V72.4145C68.9664 68.6059 65.8781 65.5176 62.0695 65.5176H41.3797C37.5711 65.5176 34.4828 68.6059 34.4828 72.4145V224.139C34.4828 227.947 37.5703 231.035 41.3797 231.035ZM48.2758 79.3105H55.1726C58.9812 79.3105 62.0695 82.3988 62.0695 86.2074C62.0695 90.016 58.9812 93.1043 55.1726 93.1043H48.2758C44.4672 93.1043 41.3789 90.016 41.3789 86.2074C41.3797 82.3988 44.4672 79.3105 48.2758 79.3105ZM48.2758 100H55.1726C58.9812 100 62.0695 103.089 62.0695 106.897C62.0695 110.706 58.9812 113.794 55.1726 113.794H48.2758C44.4672 113.794 41.3789 110.706 41.3789 106.897C41.3797 103.089 44.4672 100 48.2758 100ZM48.2758 120.69H55.1726C58.9812 120.69 62.0695 123.779 62.0695 127.587C62.0695 131.396 58.9812 134.484 55.1726 134.484H48.2758C44.4672 134.484 41.3789 131.396 41.3789 127.587C41.3789 123.779 44.4672 120.69 48.2758 120.69ZM48.2758 141.38H55.1726C58.9812 141.38 62.0695 144.468 62.0695 148.277C62.0695 152.086 58.9812 155.174 55.1726 155.174H48.2758C44.4672 155.174 41.3789 152.086 41.3789 148.277C41.3789 144.468 44.4672 141.38 48.2758 141.38ZM48.2758 162.069H55.1726C58.9812 162.069 62.0695 165.157 62.0695 168.966C62.0695 172.775 58.9812 175.863 55.1726 175.863H48.2758C44.4672 175.863 41.3789 172.775 41.3789 168.966C41.3789 165.157 44.4672 162.069 48.2758 162.069ZM41.3797 196.552C41.3797 192.743 44.4679 189.655 48.2765 189.655H55.1734C58.982 189.655 62.0703 192.743 62.0703 196.552V210.345C62.0703 214.154 58.982 217.242 55.1734 217.242H48.2765C44.4679 217.242 41.3797 214.154 41.3797 210.345V196.552Z" fill="#BEC8DC"/>
<path d="M48.2758 93.1033H55.1727C58.9813 93.1033 62.0695 90.015 62.0695 86.2064C62.0695 82.3979 58.9813 79.3096 55.1727 79.3096H48.2758C44.4672 79.3096 41.3789 82.3979 41.3789 86.2064C41.3797 90.0158 44.4672 93.1033 48.2758 93.1033Z" fill="#E4EAF6"/>
<path d="M48.2758 113.793H55.1727C58.9813 113.793 62.0695 110.704 62.0695 106.896C62.0695 103.087 58.9813 99.999 55.1727 99.999H48.2758C44.4672 99.999 41.3789 103.087 41.3789 106.896C41.3797 110.705 44.4672 113.793 48.2758 113.793Z" fill="#96A5B9"/>
<path d="M48.2758 134.483H55.1727C58.9813 134.483 62.0695 131.395 62.0695 127.586C62.0695 123.778 58.9813 120.689 55.1727 120.689H48.2758C44.4672 120.689 41.3789 123.778 41.3789 127.586C41.3789 131.395 44.4672 134.483 48.2758 134.483Z" fill="#E4EAF6"/>
<path d="M48.2758 155.173H55.1727C58.9813 155.173 62.0695 152.084 62.0695 148.276C62.0695 144.467 58.9813 141.379 55.1727 141.379H48.2758C44.4672 141.379 41.3789 144.467 41.3789 148.276C41.3789 152.084 44.4672 155.173 48.2758 155.173Z" fill="#E4EAF6"/>
<path d="M48.2758 175.862H55.1727C58.9813 175.862 62.0695 172.774 62.0695 168.965C62.0695 165.157 58.9813 162.068 55.1727 162.068H48.2758C44.4672 162.068 41.3789 165.157 41.3789 168.965C41.3789 172.774 44.4672 175.862 48.2758 175.862Z" fill="#E4EAF6"/>
<path d="M48.2758 217.241H55.1727C58.9813 217.241 62.0695 214.153 62.0695 210.344V196.551C62.0695 192.743 58.9813 189.654 55.1727 189.654H48.2758C44.4672 189.654 41.3789 192.743 41.3789 196.551V210.344C41.3797 214.153 44.4664 217.241 48.2758 217.241Z" fill="#96A5B9"/>
<path d="M365.517 72.4145C365.517 68.6059 362.429 65.5176 358.62 65.5176H296.552C292.743 65.5176 289.655 68.6059 289.655 72.4145V113.794H365.516V72.4145H365.517ZM355.173 106.897H327.587H320.69H300C298.095 106.897 296.552 105.354 296.552 103.449C296.552 101.544 298.095 100 300 100H320.69H327.587H355.173C357.077 100 358.621 101.544 358.621 103.449C358.621 105.354 357.077 106.897 355.173 106.897ZM355.173 93.1035H348.276H341.379H300C298.095 93.1035 296.552 91.5598 296.552 89.6551C296.552 87.7504 298.095 86.2066 300 86.2066H341.38H348.277H355.173C357.078 86.2066 358.622 87.7504 358.622 89.6551C358.622 91.5598 357.077 93.1035 355.173 93.1035ZM355.173 79.3105H313.793H306.896H300C298.095 79.3105 296.552 77.7668 296.552 75.8621C296.552 73.9574 298.095 72.4137 300 72.4137H306.897H313.794H355.173C357.078 72.4137 358.622 73.9574 358.622 75.8621C358.622 77.7668 357.077 79.3105 355.173 79.3105Z" fill="#BEC8DC"/>
<path d="M296.551 231.035H358.62C362.429 231.035 365.517 227.947 365.517 224.138V162.069H289.655V224.138C289.655 227.947 292.743 231.035 296.551 231.035ZM327.586 168.966H355.172C357.076 168.966 358.62 170.51 358.62 172.415C358.62 174.319 357.076 175.863 355.172 175.863H327.586C325.681 175.863 324.137 174.319 324.137 172.415C324.137 170.51 325.682 168.966 327.586 168.966ZM327.586 182.759H355.172C357.076 182.759 358.62 184.303 358.62 186.208C358.62 188.112 357.076 189.656 355.172 189.656H327.586C325.681 189.656 324.137 188.112 324.137 186.208C324.138 184.303 325.682 182.759 327.586 182.759ZM327.586 196.552H355.172C357.076 196.552 358.62 198.096 358.62 200.001C358.62 201.905 357.076 203.449 355.172 203.449H327.586C325.681 203.449 324.137 201.905 324.137 200.001C324.138 198.096 325.682 196.552 327.586 196.552ZM327.586 210.345H355.172C357.076 210.345 358.62 211.889 358.62 213.794C358.62 215.698 357.076 217.242 355.172 217.242H327.586C325.681 217.242 324.137 215.698 324.137 213.794C324.138 211.89 325.682 210.345 327.586 210.345ZM313.793 168.966C315.698 168.966 317.241 170.51 317.241 172.415C317.241 174.319 315.698 175.863 313.793 175.863C311.888 175.863 310.344 174.319 310.344 172.415C310.344 170.51 311.889 168.966 313.793 168.966ZM313.793 182.759C315.698 182.759 317.241 184.303 317.241 186.208C317.241 188.112 315.698 189.656 313.793 189.656C311.888 189.656 310.344 188.112 310.344 186.208C310.344 184.303 311.889 182.759 313.793 182.759ZM313.793 196.552C315.698 196.552 317.241 198.096 317.241 200.001C317.241 201.905 315.698 203.449 313.793 203.449C311.888 203.449 310.344 201.905 310.344 200.001C310.344 198.096 311.889 196.552 313.793 196.552ZM313.793 210.345C315.698 210.345 317.241 211.889 317.241 213.794C317.241 215.698 315.698 217.242 313.793 217.242C311.888 217.242 310.344 215.698 310.344 213.794C310.344 211.89 311.889 210.345 313.793 210.345ZM300 168.966C301.905 168.966 303.448 170.51 303.448 172.415C303.448 174.319 301.905 175.863 300 175.863C298.095 175.863 296.551 174.319 296.551 172.415C296.551 170.51 298.095 168.966 300 168.966ZM300 182.759C301.905 182.759 303.448 184.303 303.448 186.208C303.448 188.112 301.905 189.656 300 189.656C298.095 189.656 296.551 188.112 296.551 186.208C296.551 184.303 298.095 182.759 300 182.759ZM300 196.552C301.905 196.552 303.448 198.096 303.448 200.001C303.448 201.905 301.905 203.449 300 203.449C298.095 203.449 296.551 201.905 296.551 200.001C296.551 198.096 298.095 196.552 300 196.552ZM300 210.345C301.905 210.345 303.448 211.889 303.448 213.794C303.448 215.698 301.905 217.242 300 217.242C298.095 217.242 296.551 215.698 296.551 213.794C296.551 211.89 298.095 210.345 300 210.345Z" fill="#BEC8DC"/>
<path d="M365.517 113.793H289.656V162.069H365.517V113.793ZM306.897 155.173H300C298.095 155.173 296.552 153.629 296.552 151.724C296.552 149.82 298.095 148.276 300 148.276H306.897C308.802 148.276 310.345 149.82 310.345 151.724C310.345 153.629 308.801 155.173 306.897 155.173ZM306.897 141.38H300C298.095 141.38 296.552 139.836 296.552 137.931C296.552 136.027 298.095 134.483 300 134.483H306.897C308.802 134.483 310.345 136.027 310.345 137.931C310.345 139.836 308.801 141.38 306.897 141.38ZM306.897 127.586H300C298.095 127.586 296.552 126.042 296.552 124.137C296.552 122.233 298.095 120.689 300 120.689H306.897C308.802 120.689 310.345 122.233 310.345 124.137C310.345 126.042 308.801 127.586 306.897 127.586ZM355.173 155.173H320.69C318.785 155.173 317.241 153.629 317.241 151.724C317.241 149.82 318.785 148.276 320.69 148.276H355.173C357.077 148.276 358.621 149.82 358.621 151.724C358.621 153.629 357.077 155.173 355.173 155.173ZM355.173 141.38H320.69C318.785 141.38 317.241 139.836 317.241 137.931C317.241 136.027 318.785 134.483 320.69 134.483H355.173C357.077 134.483 358.621 136.027 358.621 137.931C358.621 139.836 357.077 141.38 355.173 141.38ZM355.173 127.586H320.69C318.785 127.586 317.241 126.042 317.241 124.137C317.241 122.233 318.785 120.689 320.69 120.689H355.173C357.077 120.689 358.621 122.233 358.621 124.137C358.621 126.042 357.077 127.586 355.173 127.586Z" fill="#96A5B9"/>
<path d="M355.173 72.4141H313.793C315.698 72.4141 317.241 73.9578 317.241 75.8625C317.241 77.7672 315.698 79.3109 313.793 79.3109H355.173C357.077 79.3109 358.621 77.7672 358.621 75.8625C358.621 73.9578 357.077 72.4141 355.173 72.4141Z" fill="#96A5B9"/>
<path d="M303.449 75.8615C303.449 73.9568 304.992 72.4131 306.897 72.4131H300C298.095 72.4131 296.552 73.9568 296.552 75.8615C296.552 77.7662 298.095 79.31 300 79.31H306.897C304.992 79.31 303.449 77.7662 303.449 75.8615Z" fill="#96A5B9"/>
<path d="M355.173 100H327.587C329.491 100 331.035 101.544 331.035 103.448C331.035 105.353 329.491 106.897 327.587 106.897H355.173C357.077 106.897 358.621 105.353 358.621 103.448C358.621 101.544 357.077 100 355.173 100Z" fill="#96A5B9"/>
<path d="M317.241 103.448C317.241 101.544 318.785 100 320.69 100H300C298.095 100 296.552 101.544 296.552 103.448C296.552 105.353 298.095 106.897 300 106.897H320.69C318.785 106.897 317.241 105.352 317.241 103.448Z" fill="#96A5B9"/>
<path d="M355.173 120.689H320.69C318.785 120.689 317.241 122.233 317.241 124.138C317.241 126.043 318.785 127.586 320.69 127.586H355.173C357.077 127.586 358.621 126.043 358.621 124.138C358.621 122.233 357.077 120.689 355.173 120.689Z" fill="#BEC8DC"/>
<path d="M337.931 89.6555C337.931 87.7508 339.475 86.207 341.38 86.207H300C298.095 86.207 296.552 87.7508 296.552 89.6555C296.552 91.5602 298.095 93.1039 300 93.1039H341.38C339.475 93.1031 337.931 91.5594 337.931 89.6555Z" fill="#96A5B9"/>
<path d="M355.173 86.207H348.276C350.18 86.207 351.724 87.7508 351.724 89.6555C351.724 91.5602 350.18 93.1039 348.276 93.1039H355.173C357.077 93.1039 358.621 91.5602 358.621 89.6555C358.621 87.7508 357.077 86.207 355.173 86.207Z" fill="#96A5B9"/>
<path d="M317.241 75.8615C317.241 73.9568 315.698 72.4131 313.793 72.4131H306.896C304.991 72.4131 303.448 73.9568 303.448 75.8615C303.448 77.7662 304.991 79.31 306.896 79.31H313.793C315.698 79.31 317.241 77.7662 317.241 75.8615Z" fill="#E4EAF6"/>
<path d="M331.034 103.448C331.034 101.544 329.491 100 327.586 100H320.689C318.784 100 317.241 101.544 317.241 103.448C317.241 105.353 318.784 106.897 320.689 106.897H327.586C329.491 106.897 331.034 105.352 331.034 103.448Z" fill="#E4EAF6"/>
<path d="M306.897 120.689H300C298.095 120.689 296.552 122.233 296.552 124.138C296.552 126.043 298.095 127.586 300 127.586H306.897C308.802 127.586 310.345 126.043 310.345 124.138C310.345 122.233 308.801 120.689 306.897 120.689Z" fill="#E4EAF6"/>
<path d="M355.173 134.482H320.69C318.785 134.482 317.241 136.026 317.241 137.931C317.241 139.836 318.785 141.379 320.69 141.379H355.173C357.077 141.379 358.621 139.836 358.621 137.931C358.621 136.026 357.077 134.482 355.173 134.482Z" fill="#BEC8DC"/>
<path d="M306.897 134.482H300C298.095 134.482 296.552 136.026 296.552 137.931C296.552 139.836 298.095 141.379 300 141.379H306.897C308.802 141.379 310.345 139.836 310.345 137.931C310.345 136.026 308.801 134.482 306.897 134.482Z" fill="#E4EAF6"/>
<path d="M355.173 148.275H320.69C318.785 148.275 317.241 149.819 317.241 151.724C317.241 153.629 318.785 155.172 320.69 155.172H355.173C357.077 155.172 358.621 153.629 358.621 151.724C358.621 149.819 357.077 148.275 355.173 148.275Z" fill="#BEC8DC"/>
<path d="M306.897 148.275H300C298.095 148.275 296.552 149.819 296.552 151.724C296.552 153.629 298.095 155.172 300 155.172H306.897C308.802 155.172 310.345 153.629 310.345 151.724C310.345 149.819 308.801 148.275 306.897 148.275Z" fill="#E4EAF6"/>
<path d="M300 189.655C301.905 189.655 303.448 188.111 303.448 186.206C303.448 184.302 301.905 182.758 300 182.758C298.095 182.758 296.552 184.302 296.552 186.206C296.552 188.11 298.095 189.655 300 189.655Z" fill="#E4EAF6"/>
<path d="M300 175.862C301.905 175.862 303.448 174.318 303.448 172.413C303.448 170.509 301.905 168.965 300 168.965C298.095 168.965 296.552 170.509 296.552 172.413C296.552 174.318 298.095 175.862 300 175.862Z" fill="#E4EAF6"/>
<path d="M300 217.241C301.905 217.241 303.448 215.697 303.448 213.792C303.448 211.888 301.905 210.344 300 210.344C298.095 210.344 296.552 211.888 296.552 213.792C296.552 215.697 298.095 217.241 300 217.241Z" fill="#E4EAF6"/>
<path d="M300 203.448C301.905 203.448 303.448 201.904 303.448 199.999C303.448 198.095 301.905 196.551 300 196.551C298.095 196.551 296.552 198.095 296.552 199.999C296.552 201.904 298.095 203.448 300 203.448Z" fill="#E4EAF6"/>
<path d="M313.793 189.656C315.698 189.656 317.241 188.112 317.241 186.207C317.241 184.303 315.698 182.759 313.793 182.759C311.888 182.759 310.344 184.303 310.344 186.207C310.344 188.111 311.889 189.656 313.793 189.656Z" fill="#96A5B9"/>
<path d="M313.793 175.862C315.698 175.862 317.241 174.318 317.241 172.413C317.241 170.509 315.698 168.965 313.793 168.965C311.888 168.965 310.344 170.509 310.344 172.413C310.344 174.318 311.889 175.862 313.793 175.862Z" fill="#96A5B9"/>
<path d="M313.793 217.242C315.698 217.242 317.241 215.698 317.241 213.793C317.241 211.888 315.698 210.345 313.793 210.345C311.888 210.345 310.344 211.888 310.344 213.793C310.344 215.698 311.889 217.242 313.793 217.242Z" fill="#96A5B9"/>
<path d="M313.793 203.449C315.698 203.449 317.241 201.905 317.241 200C317.241 198.096 315.698 196.552 313.793 196.552C311.888 196.552 310.344 198.096 310.344 200C310.344 201.905 311.889 203.449 313.793 203.449Z" fill="#96A5B9"/>
<path d="M327.586 189.656H355.172C357.077 189.656 358.62 188.112 358.62 186.207C358.62 184.303 357.077 182.759 355.172 182.759H327.586C325.681 182.759 324.137 184.303 324.137 186.207C324.138 188.111 325.682 189.656 327.586 189.656Z" fill="#96A5B9"/>
<path d="M327.586 175.862H355.172C357.077 175.862 358.62 174.318 358.62 172.413C358.62 170.509 357.077 168.965 355.172 168.965H327.586C325.681 168.965 324.137 170.509 324.137 172.413C324.137 174.318 325.682 175.862 327.586 175.862Z" fill="#96A5B9"/>
<path d="M327.586 217.242H355.172C357.077 217.242 358.62 215.698 358.62 213.793C358.62 211.888 357.077 210.345 355.172 210.345H327.586C325.681 210.345 324.137 211.888 324.137 213.793C324.138 215.698 325.682 217.242 327.586 217.242Z" fill="#96A5B9"/>
<path d="M327.586 203.449H355.172C357.077 203.449 358.62 201.905 358.62 200C358.62 198.096 357.077 196.552 355.172 196.552H327.586C325.681 196.552 324.137 198.096 324.137 200C324.138 201.905 325.682 203.449 327.586 203.449Z" fill="#96A5B9"/>
<path d="M351.724 89.6555C351.724 87.7508 350.18 86.207 348.276 86.207H341.379C339.474 86.207 337.93 87.7508 337.93 89.6555C337.93 91.5602 339.474 93.1039 341.379 93.1039H348.276C350.18 93.1031 351.724 91.5594 351.724 89.6555Z" fill="#E4EAF6"/>
<path d="M103.448 155.173H155.172V141.38H110.344V79.3113H172.412V124.139C174.319 124.139 175.861 125.681 175.861 127.587C175.861 129.493 174.319 131.036 172.412 131.036V141.38H162.068V155.173H179.309C179.408 155.173 179.503 155.163 179.601 155.158L179.655 151.014C179.687 148.637 182.5 147.403 184.27 148.988L185.865 150.416C186.084 149.742 186.207 149.024 186.207 148.276V131.035C184.301 131.035 182.759 129.493 182.759 127.586C182.759 125.68 184.301 124.138 186.207 124.138V72.4145C186.207 68.6027 183.119 65.5176 179.31 65.5176H103.448C99.6398 65.5176 96.5515 68.602 96.5515 72.4145V148.276C96.5507 152.089 99.639 155.173 103.448 155.173Z" fill="#FF6469"/>
<path d="M158.62 186.207C160.526 186.207 162.068 184.665 162.068 182.759V168.966C162.068 167.06 160.526 165.518 158.62 165.518C156.713 165.518 155.171 167.06 155.171 168.966V182.759C155.172 184.665 156.714 186.207 158.62 186.207Z" fill="#96A5B9"/>
<path d="M241.378 227.586H255.171C257.077 227.586 258.62 226.044 258.62 224.138C258.62 222.232 257.077 220.689 255.171 220.689H241.378C239.472 220.689 237.93 222.232 237.93 224.138C237.93 226.044 239.473 227.586 241.378 227.586Z" fill="#96A5B9"/>
<path d="M255.172 193.104C253.266 193.104 251.724 194.646 251.724 196.552V210.345C251.724 212.251 253.266 213.793 255.172 213.793C257.078 213.793 258.62 212.251 258.62 210.345V196.552C258.62 194.646 257.077 193.104 255.172 193.104Z" fill="#96A5B9"/>
<path d="M241.378 131.035H255.171C257.077 131.035 258.62 129.492 258.62 127.586C258.62 125.68 257.077 124.138 255.171 124.138H241.378C239.472 124.138 237.93 125.68 237.93 127.586C237.93 129.492 239.473 131.035 241.378 131.035Z" fill="#96A5B9"/>
<path d="M255.172 137.932C253.266 137.932 251.724 139.474 251.724 141.38V155.173C251.724 157.079 253.266 158.621 255.172 158.621C257.078 158.621 258.62 157.079 258.62 155.173V141.38C258.62 139.474 257.077 137.932 255.172 137.932Z" fill="#96A5B9"/>
<path d="M199.999 220.69H186.206C184.3 220.69 182.758 222.233 182.758 224.139C182.758 226.045 184.3 227.587 186.206 227.587H199.999C201.905 227.587 203.448 226.045 203.448 224.139C203.448 222.233 201.905 220.69 199.999 220.69Z" fill="#96A5B9"/>
<path d="M158.62 137.932C156.713 137.932 155.171 139.474 155.171 141.38V155.173C155.171 157.079 156.713 158.621 158.62 158.621C160.526 158.621 162.068 157.079 162.068 155.173V141.38C162.068 139.474 160.526 137.932 158.62 137.932Z" fill="#96A5B9"/>
<path d="M172.413 220.69H158.62C156.714 220.69 155.172 222.233 155.172 224.139C155.172 226.045 156.714 227.587 158.62 227.587H172.413C174.32 227.587 175.862 226.045 175.862 224.139C175.862 222.233 174.319 220.69 172.413 220.69Z" fill="#96A5B9"/>
<path d="M155.172 210.345C155.172 212.251 156.714 213.793 158.62 213.793C160.527 213.793 162.069 212.251 162.069 210.345V196.552C162.069 194.646 160.527 193.104 158.62 193.104C156.714 193.104 155.172 194.646 155.172 196.552V210.345Z" fill="#96A5B9"/>
<path d="M255.172 165.518C253.266 165.518 251.724 167.06 251.724 168.966V182.759C251.724 184.665 253.266 186.207 255.172 186.207C257.078 186.207 258.62 184.665 258.62 182.759V168.966C258.62 167.06 257.077 165.518 255.172 165.518Z" fill="#96A5B9"/>
<path d="M213.792 131.035H227.585C229.491 131.035 231.034 129.492 231.034 127.586C231.034 125.68 229.491 124.138 227.585 124.138H213.792C211.886 124.138 210.344 125.68 210.344 127.586C210.344 129.492 211.886 131.035 213.792 131.035Z" fill="#96A5B9"/>
<path d="M155.172 127.586C155.172 129.492 156.714 131.035 158.62 131.035H172.413C174.32 131.035 175.862 129.492 175.862 127.586C175.862 125.68 174.32 124.138 172.413 124.138H158.62C156.714 124.138 155.172 125.681 155.172 127.586Z" fill="#96A5B9"/>
<path d="M213.792 227.586H227.585C229.491 227.586 231.034 226.044 231.034 224.138C231.034 222.232 229.491 220.689 227.585 220.689H213.792C211.886 220.689 210.344 222.232 210.344 224.138C210.344 226.044 211.886 227.586 213.792 227.586Z" fill="#96A5B9"/>
<path d="M182.758 127.586C182.758 129.492 184.3 131.035 186.206 131.035H199.999C201.905 131.035 203.448 129.492 203.448 127.586C203.448 125.68 201.905 124.138 199.999 124.138H186.206C184.3 124.138 182.758 125.681 182.758 127.586Z" fill="#96A5B9"/>
<path d="M179.655 151.013L179.6 155.157L179.31 177.45C179.284 179.463 181.347 180.83 183.191 180.02L190.051 177.009L196.177 190.961C196.745 192.254 198.009 193.022 199.338 193.022C199.799 193.022 200.271 192.928 200.722 192.732C202.463 191.964 203.257 189.931 202.494 188.187L196.369 174.236L203.227 171.226C205.07 170.417 205.46 167.974 203.961 166.629L185.863 150.415L184.269 148.987C182.499 147.401 179.685 148.636 179.655 151.013Z" fill="#464655"/>
</svg>
