<svg width="118" height="118" viewBox="0 0 118 118" fill="none" xmlns="http://www.w3.org/2000/svg">
<g clip-path="url(#clip0_1901_6542)">
<path d="M117.698 82.226L113.953 74.1515C113.418 72.9841 112.251 72.2545 110.986 72.2545H93.1344V67.4876H101.914C103.714 67.4876 105.198 66.0283 105.198 64.2043C105.198 62.4045 103.738 60.9209 101.914 60.9209H93.1344V55.8136H110.986C112.275 55.8136 113.418 55.0596 113.953 53.9165L117.674 45.8177C118.428 44.1639 117.723 42.2182 116.069 41.4642C114.415 40.7103 112.469 41.4399 111.716 43.0694L108.87 49.2712H93.1344V43.8477H101.914C103.714 43.8477 105.198 42.3884 105.198 40.5644C105.198 38.7646 103.738 37.2811 101.914 37.2811H93.1344V34.3382C93.1344 29.1336 88.9026 24.9017 83.6979 24.9017H80.1957V16.0733C80.1957 14.2735 78.7364 12.7899 76.9124 12.7899C75.0883 12.7899 73.629 14.2492 73.629 16.0733V24.9017H68.2055V9.11749L74.383 6.27195C76.0368 5.518 76.7421 3.57233 75.9882 1.91851C75.2342 0.264694 73.2886 -0.440611 71.6347 0.313336L63.5602 4.03443C62.3928 4.56949 61.6632 5.73689 61.6632 7.00157V24.8774H56.5558V16.0733C56.5558 14.2735 55.0965 12.7899 53.2725 12.7899C51.4727 12.7899 49.9892 14.2492 49.9892 16.0733V24.9017H45.2223V7.0259C45.2223 5.73689 44.4683 4.59381 43.3252 4.05875L35.2264 0.337657C33.5726 -0.41629 31.6269 0.313336 30.873 1.94283C30.119 3.59665 30.8243 5.54232 32.4781 6.29627L38.6556 9.14181V24.9261H34.3508C29.5839 24.9261 25.0846 28.6958 24.8414 31.6873C24.8414 31.7602 24.8414 31.8575 24.8414 31.9305V37.3054H16.0615C14.2618 37.3054 12.7782 38.7646 12.7782 40.5887C12.7782 42.3884 14.2375 43.872 16.0615 43.872H24.8414V49.2712H9.10577L6.26023 43.0937C5.50628 41.4399 3.56061 40.7346 1.90679 41.4886C0.252975 42.2425 -0.45233 44.1882 0.301617 45.842L4.02271 53.9165C4.55777 55.0839 5.72517 55.8136 6.98986 55.8136H24.8414V60.9209H16.0615C14.2618 60.9209 12.7782 62.3802 12.7782 64.2043C12.7782 66.004 14.2375 67.4876 16.0615 67.4876H24.8414V72.2545H7.01418C5.72517 72.2545 4.58209 73.0084 4.04703 74.1515L0.325938 82.2503C-0.428009 83.9042 0.277296 85.8498 1.93112 86.6038C3.58493 87.3577 5.5306 86.6281 6.28455 84.9986L9.13009 78.8211H24.8657V81.3018C24.9873 90.033 30.0704 93.1218 34.3752 93.1218H38.68V108.906L32.4781 111.727C30.8243 112.481 30.119 114.427 30.873 116.081C31.6269 117.734 33.5726 118.44 35.2264 117.686L43.3252 113.965C44.4926 113.43 45.2223 112.262 45.2223 110.998V93.1218H49.9892V101.95C49.9892 103.75 51.4484 105.234 53.2725 105.234C55.0722 105.234 56.5558 103.774 56.5558 101.95V93.1218H61.6632V110.998C61.6632 112.287 62.4171 113.43 63.5602 113.965L71.6591 117.686C73.3129 118.44 75.2585 117.71 76.0125 116.081C76.7664 114.427 76.0611 112.481 74.4073 111.727L68.2298 108.882V93.0975H73.6534V101.926C73.6534 103.726 75.1126 105.209 76.9367 105.209C78.7607 105.209 80.22 103.75 80.22 101.926V93.0975H83.7222C88.9269 93.0975 93.1587 88.8656 93.1587 83.661V78.7968H108.894L111.74 84.9743C112.494 86.6281 114.439 87.3334 116.093 86.5795C117.747 85.8255 118.452 83.8798 117.698 82.226ZM86.5921 83.661H86.5677C86.5677 85.2418 85.2787 86.5551 83.6736 86.5551H34.3752C31.7728 86.5551 31.4323 82.8097 31.408 81.2289V32.7574C31.9187 32.271 33.0618 31.444 34.3752 31.444H83.6979C85.2787 31.444 86.5921 32.7331 86.5921 34.3382V83.661Z" fill="url(#paint0_linear_1901_6542)"/>
<g clip-path="url(#clip1_1901_6542)">
<path d="M76.1278 53.145H75.0653V48.0181C75.0653 47.9859 75.0603 47.9539 75.0565 47.9213C75.0548 47.7179 74.9897 47.518 74.8502 47.3595L66.3182 37.6141C66.3157 37.6116 66.313 37.6106 66.3113 37.6081C66.2606 37.5513 66.2013 37.504 66.1385 37.4631C66.1199 37.4507 66.1013 37.4403 66.0817 37.4293C66.0275 37.3999 65.9699 37.3751 65.9106 37.3573C65.8945 37.3531 65.8801 37.3464 65.8641 37.3422C65.7995 37.3269 65.7326 37.3174 65.665 37.3174H44.6973C43.7398 37.3174 42.9621 38.0961 42.9621 39.0527V53.1449H41.8998C40.53 53.1449 39.4194 54.2551 39.4194 55.6252V68.5229C39.4194 69.8917 40.53 71.0031 41.8998 71.0031H42.9621V79.8321C42.9621 80.7888 43.7398 81.5674 44.6973 81.5674H73.3297C74.2863 81.5674 75.065 80.7888 75.065 79.8321V71.0031H76.1274C77.4967 71.0031 78.6074 69.8917 78.6074 68.523V55.6253C78.6075 54.2552 77.4976 53.145 76.1278 53.145ZM73.3297 79.3618H44.6973V71.0031H73.3297V79.3618ZM49.7054 68.196L53.7555 54.9419H57.6877L61.7977 68.196H58.5738L57.5503 64.7936H53.7555L52.8117 68.196H49.7054ZM63.5669 68.196V54.9419H66.5766V68.196H63.5669ZM73.3297 53.145H44.6973V39.0527H64.7972V47.9308C64.7972 48.4104 65.1861 48.7984 65.6649 48.7984H73.3297V53.145Z" fill="black"/>
<path d="M56.2787 59.2976C56.0431 58.5112 55.8072 57.5278 55.6102 56.7412H55.5708C55.3746 57.5278 55.1776 58.5308 54.9615 59.2976L54.175 62.1099H57.1051L56.2787 59.2976Z" fill="black"/>
</g>
</g>
<defs>
<linearGradient id="paint0_linear_1901_6542" x1="59" y1="0.0117187" x2="59" y2="117.987" gradientUnits="userSpaceOnUse">
<stop stop-color="#0000FF"/>
<stop offset="1" stop-color="#8980FF"/>
</linearGradient>
<clipPath id="clip0_1901_6542">
<rect width="118" height="118" fill="white"/>
</clipPath>
<clipPath id="clip1_1901_6542">
<rect width="44.25" height="44.25" fill="white" transform="translate(36.875 36.875)"/>
</clipPath>
</defs>
</svg>
