<svg width="45" height="45" viewBox="0 0 45 45" fill="none" xmlns="http://www.w3.org/2000/svg">
<path d="M45 22.5C45 34.9271 34.9287 45 22.5036 45C10.0713 45.0073 0 34.9271 0 22.5C0 10.0729 10.0713 0 22.4964 0C34.9215 0 45 10.0729 45 22.5Z" fill="white"/>
<path d="M35.105 15.066C35.105 14.9348 35.0977 14.9276 34.9665 14.9348C34.6386 14.9348 34.3106 14.8984 33.99 14.8474C32.8094 14.6725 28.9981 12.6681 28.3495 9.38819C28.3349 9.3226 28.1892 8.51356 28.1965 8.1637C28.1965 8.01064 28.1965 8.01064 28.0434 8.00335C28.007 8.00335 27.9706 8.00335 27.9341 8.00335C26.4402 8.00335 24.9463 8.00335 23.4523 8.00335C23.1535 8.00335 23.1973 7.96691 23.1973 8.26575C23.1973 14.7453 23.1973 21.2249 23.1973 27.7045C23.1973 27.945 23.19 28.1856 23.1463 28.4261C22.9203 29.6797 22.2791 30.6637 21.1932 31.3343C20.2531 31.9173 19.2329 32.0777 18.1471 31.8663C17.8046 31.8007 17.4839 31.6695 17.1633 31.5456C17.1341 31.5238 17.1123 31.4946 17.0831 31.4727C16.9738 31.3853 16.8572 31.3051 16.7406 31.2249C15.356 30.2701 14.7001 28.9363 14.9042 27.2745C15.1082 25.5908 16.0774 24.4392 17.6734 23.8488C18.1471 23.6739 18.6499 23.601 19.16 23.6302C19.488 23.6448 19.8159 23.6885 20.1365 23.7832C20.2459 23.8124 20.3042 23.7759 20.3114 23.6593C20.3114 23.6156 20.3114 23.5792 20.3114 23.5354C20.3114 22.3692 20.2677 19.8328 20.2604 19.8255C20.2604 19.4902 20.2604 19.155 20.2677 18.8197C20.2677 18.7249 20.224 18.7031 20.1438 18.6958C19.539 18.6229 18.9414 18.6083 18.3293 18.652C17.4912 18.7104 16.6823 18.8853 15.888 19.1695C14.6272 19.6214 13.5268 20.3211 12.5722 21.2541C11.756 22.0558 11.1074 22.9815 10.641 24.031C10.1892 25.0296 9.92683 26.0792 9.86124 27.1724C9.83209 27.6462 9.83938 28.12 9.8831 28.601C9.9414 29.257 10.0653 29.9057 10.2693 30.5325C10.845 32.3401 11.8872 33.8197 13.3738 34.9931C13.5268 35.1098 13.6726 35.241 13.8475 35.3211C13.9203 35.3867 14.0005 35.4523 14.0734 35.5252C14.3139 35.7074 14.5689 35.8605 14.8386 35.9917C16.5001 36.8153 18.2491 37.1433 20.0928 36.9173C22.4831 36.6258 24.4799 35.5617 26.0467 33.7395C27.526 32.0194 28.2402 30.0004 28.2548 27.7483C28.2766 24.5194 28.262 21.2905 28.262 18.069C28.262 17.9888 28.2183 17.8794 28.3058 17.843C28.3714 17.8138 28.4369 17.9013 28.5025 17.945C29.705 18.7322 31.0021 19.308 32.4013 19.6287C33.2175 19.8182 34.041 19.9276 34.8791 19.9276C35.1414 19.9276 35.1778 19.913 35.1778 19.6506C35.1633 18.5063 35.105 15.3722 35.105 15.066Z" fill="black"/>
</svg>
