<svg width="45" height="45" viewBox="0 0 45 45" fill="none" xmlns="http://www.w3.org/2000/svg">
<path d="M44.9916 22.4584C44.9916 34.8596 34.9195 44.9169 22.5 44.9169C10.0721 44.9252 0 34.8679 0 22.4584C0 10.0573 10.0721 0 22.4917 0C34.9195 0 44.9916 10.0573 44.9916 22.4584Z" fill="black"/>
<path d="M22.5166 0C10.0805 0 0 10.0656 0 22.4834C0 32.0087 5.92674 40.1542 14.3091 43.4291C14.101 41.6504 13.9345 38.9158 14.384 36.9708C14.7919 35.217 17.0144 25.7915 17.0144 25.7915C17.0144 25.7915 16.3485 24.4366 16.3485 22.4584C16.3485 19.3332 18.1631 16.9976 20.4273 16.9976C22.3585 16.9976 23.2824 18.4438 23.2824 20.1644C23.2824 22.0927 22.0588 24.9769 21.4095 27.6616C20.8685 29.8975 22.5416 31.7344 24.7475 31.7344C28.7514 31.7344 31.8229 27.512 31.8229 21.4444C31.8229 16.0584 27.9522 12.3014 22.4084 12.3014C15.9989 12.3014 12.2364 17.0973 12.2364 22.0512C12.2364 23.9712 12.9772 26.0491 13.9012 27.1795C14.0843 27.404 14.101 27.6034 14.051 27.8279C13.8846 28.5344 13.4933 30.0637 13.4184 30.3796C13.3268 30.7868 13.0854 30.8783 12.6609 30.6788C9.84738 29.3655 8.08268 25.2761 8.08268 21.968C8.08268 14.8781 13.2353 8.36997 22.9661 8.36997C30.7658 8.36997 36.8424 13.9222 36.8424 21.3613C36.8424 29.1162 31.9478 35.35 25.172 35.35C22.8912 35.35 20.7436 34.1697 20.0194 32.7567C20.0194 32.7567 18.8873 37.0456 18.6126 38.1012C18.1132 40.0628 16.7397 42.5065 15.8157 44.0026C17.9301 44.6509 20.1526 45 22.4833 45C34.9195 45 45 34.9344 45 22.5166C45.0249 10.0656 34.9445 0 22.5166 0Z" fill="white"/>
</svg>
