<svg width="45" height="45" viewBox="0 0 45 45" fill="none" xmlns="http://www.w3.org/2000/svg">
<path d="M45 22.5C45 34.9271 34.9287 45 22.5036 45C10.0713 45.0073 0 34.9271 0 22.5C0 10.0729 10.0713 0 22.4964 0C34.9215 0 45 10.0729 45 22.5Z" fill="white"/>
<path d="M28.5084 28.9664L29.4995 22.6326H23.2906V18.4489C23.2906 16.6851 24.1578 14.965 26.927 14.965H29.9586V9.4256C29.9586 9.4256 27.357 8.98828 24.872 8.98828C19.6833 8.98828 16.2946 12.1005 16.2946 17.7419V22.2973H10.625V28.9664H16.2946V44.2798C17.4315 44.4548 18.6048 44.5495 19.7926 44.5495C20.9805 44.5495 22.1537 44.4548 23.2906 44.2798V28.9664H28.5084Z" fill="black"/>
</svg>
