<svg width="45" height="45" viewBox="0 0 45 45" fill="none" xmlns="http://www.w3.org/2000/svg">
<path d="M22.5 0C34.9271 0 45 10.0729 45 22.5C45 34.9271 34.9271 45 22.5 45C10.0729 45 0 34.9271 0 22.5C0 10.0729 10.0729 0 22.5 0Z" fill="white"/>
<path d="M22.5017 8.33203C18.6533 8.33203 18.1722 8.34661 16.6635 8.41949C15.1547 8.48509 14.127 8.72562 13.2232 9.07547C12.2903 9.4399 11.5031 9.92095 10.7159 10.7081C9.92877 11.4953 9.44043 12.2825 9.08328 13.2154C8.73343 14.1192 8.49291 15.1469 8.42731 16.6556C8.36171 18.1644 8.33984 18.6527 8.33984 22.4938C8.33984 26.3422 8.35442 26.8233 8.42731 28.332C8.49291 29.8408 8.73343 30.8685 9.08328 31.7723C9.44772 32.7052 9.92877 33.4924 10.7159 34.2796C11.5031 35.0667 12.2903 35.5551 13.2232 35.9122C14.127 36.2621 15.1547 36.5026 16.6635 36.5682C18.1722 36.6338 18.6605 36.6556 22.5017 36.6556C26.35 36.6556 26.8311 36.6411 28.3398 36.5682C29.8486 36.5026 30.8763 36.2621 31.7801 35.9122C32.713 35.5478 33.5002 35.0667 34.2874 34.2796C35.0745 33.4924 35.5629 32.7052 35.92 31.7723C36.2699 30.8685 36.5104 29.8408 36.576 28.332C36.6416 26.8233 36.6635 26.3349 36.6635 22.4938C36.6635 18.6527 36.6489 18.1644 36.576 16.6556C36.5104 15.1469 36.2699 14.1192 35.92 13.2154C35.5556 12.2825 35.0745 11.4953 34.2874 10.7081C33.5002 9.92095 32.713 9.43261 31.7801 9.07547C30.8763 8.72562 29.8486 8.48509 28.3398 8.41949C26.8311 8.3539 26.35 8.33203 22.5017 8.33203ZM22.5017 10.8903C26.2845 10.8903 26.7291 10.9049 28.2232 10.9705C29.6008 11.0361 30.3515 11.2621 30.8544 11.4589C31.5177 11.714 31.9914 12.0201 32.4871 12.5157C32.9827 13.0113 33.2888 13.4851 33.5439 14.1411C33.7407 14.644 33.9667 15.3874 34.0323 16.7723C34.0979 18.2664 34.1124 18.711 34.1124 22.4938C34.1124 26.2766 34.0979 26.7212 34.0323 28.2154C33.9667 29.593 33.7407 30.3437 33.5439 30.8466C33.2888 31.5099 32.9827 31.9836 32.4871 32.4793C31.9914 32.9749 31.5177 33.281 30.8544 33.5361C30.3515 33.7329 29.6081 33.9589 28.2232 34.0245C26.7291 34.09 26.2845 34.1046 22.5017 34.1046C18.7189 34.1046 18.267 34.09 16.7801 34.0245C15.4025 33.9589 14.6518 33.7329 14.1489 33.5361C13.4856 33.281 13.0119 32.9749 12.5162 32.4793C12.0206 31.9836 11.7145 31.5099 11.4594 30.8466C11.2626 30.351 11.0366 29.6003 10.971 28.2154C10.9054 26.7212 10.8909 26.2766 10.8909 22.4938C10.8909 18.711 10.9054 18.2664 10.971 16.7723C11.0366 15.3874 11.2626 14.644 11.4594 14.1411C11.7145 13.4778 12.0206 13.0113 12.5162 12.5157C13.0119 12.0201 13.4856 11.714 14.1489 11.4589C14.6445 11.2621 15.3952 11.0361 16.7801 10.9705C18.2742 10.9049 18.7189 10.8903 22.5017 10.8903Z" fill="black"/>
<path d="M22.4987 27.2236C19.8893 27.2236 17.7756 25.1099 17.7756 22.5006C17.7756 19.8913 19.8893 17.7776 22.4987 17.7776C25.108 17.7776 27.2217 19.8913 27.2217 22.5006C27.2217 25.1099 25.108 27.2236 22.4987 27.2236ZM22.4987 15.2266C18.4826 15.2266 15.2246 18.4846 15.2246 22.5006C15.2246 26.5167 18.4826 29.7747 22.4987 29.7747C26.5147 29.7747 29.7727 26.5167 29.7727 22.5006C29.7727 18.4846 26.522 15.2266 22.4987 15.2266Z" fill="black"/>
<path d="M31.7625 14.9424C31.7625 15.8827 31.0045 16.6407 30.0642 16.6407C29.124 16.6407 28.366 15.8827 28.366 14.9424C28.366 14.0022 29.124 13.2442 30.0642 13.2442C31.0045 13.2369 31.7625 14.0022 31.7625 14.9424Z" fill="black"/>
</svg>
