<svg width="45" height="45" viewBox="0 0 45 45" fill="none" xmlns="http://www.w3.org/2000/svg">
<path d="M45 22.5C45 34.9271 34.9287 45 22.5036 45C10.0785 45 0 34.9271 0 22.5C0 10.0729 10.0713 0 22.4964 0C34.9215 0 45 10.0729 45 22.5Z" fill="white"/>
<path d="M19.5753 27.0059V18.0044L27.3656 22.5015L19.5753 27.0059ZM36.8684 15.2857C36.5259 13.9957 35.5057 12.9752 34.2158 12.6327C31.8765 12.0059 22.4976 12.0059 22.4976 12.0059C22.4976 12.0059 13.1186 12.0059 10.7794 12.6327C9.48947 12.9752 8.46923 13.9957 8.12672 15.2857C7.5 17.6254 7.5 22.5088 7.5 22.5088C7.5 22.5088 7.5 27.3922 8.12672 29.7318C8.46923 31.0219 9.48947 32.0423 10.7794 32.3849C13.1186 33.0117 22.4976 33.0117 22.4976 33.0117C22.4976 33.0117 31.8765 33.0117 34.2158 32.3849C35.5057 32.0423 36.5259 31.0219 36.8684 29.7318C37.4951 27.3922 37.4951 22.5088 37.4951 22.5088C37.4951 22.5088 37.4951 17.6181 36.8684 15.2857Z" fill="black"/>
</svg>
