<svg width="110" height="55" viewBox="0 0 110 55" fill="none" xmlns="http://www.w3.org/2000/svg">
<g filter="url(#filter0_d_2047_542)">
<path d="M9.54297 8.75C9.54297 6.98828 9.57878 4.98665 9.65039 2.74512C9.66471 2.20085 10.8607 1.8571 13.2383 1.71387C13.2812 1.5778 13.2812 1.40951 13.2383 1.20898C11.362 1.26628 9.89746 1.29492 8.84473 1.29492C7.96387 1.29492 6.71419 1.26628 5.0957 1.20898C5.03841 1.33789 5.03841 1.50618 5.0957 1.71387C6.74284 1.87142 7.57357 2.21517 7.58789 2.74512C7.65951 4.42806 7.69531 6.42969 7.69531 8.75C7.69531 11.0202 7.65234 13.2796 7.56641 15.5283C7.55208 16.0583 6.72135 16.402 5.07422 16.5596C5.03125 16.7386 5.03125 16.9069 5.07422 17.0645C6.45638 17.0215 9.66829 17 14.71 17C16.4287 17 17.7178 16.6777 18.5771 16.0332C19.4365 15.3887 20.2386 14.3037 20.9834 12.7783C20.9261 12.6566 20.8008 12.5599 20.6074 12.4883C20.3281 13.0039 20.0202 13.4622 19.6836 13.8633C19.347 14.2643 18.903 14.6689 18.3516 15.0771C17.8001 15.4782 17.1126 15.7897 16.2891 16.0117C15.4727 16.2337 14.5452 16.3447 13.5068 16.3447H9.62891C9.57161 13.8311 9.54297 11.2995 9.54297 8.75ZM11.1758 9.54492C11.1758 11.5072 11.2044 13.627 11.2617 15.9043H13.4854C16.665 15.9043 18.9746 14.583 20.4141 11.9404C21.0156 12.1624 21.3952 12.4417 21.5527 12.7783C20.5286 14.4756 19.9271 16.0296 19.748 17.4404H11.0791C8.25033 17.4404 6.14844 17.4619 4.77344 17.5049C4.62305 17.0394 4.61589 16.5846 4.75195 16.1406C6.32031 15.9831 7.11165 15.7718 7.12598 15.5068C7.21191 13.2581 7.25488 11.0059 7.25488 8.75C7.25488 6.44401 7.21908 4.44954 7.14746 2.7666C7.13314 2.50163 6.33464 2.29036 4.75195 2.13281C4.63021 1.66016 4.64453 1.19824 4.79492 0.74707C6.04102 0.818685 7.64518 0.854492 9.60742 0.854492C9.90104 0.854492 10.4883 0.847331 11.3691 0.833008C12.25 0.818685 13.0199 0.811523 13.6787 0.811523C13.8148 1.21973 13.8219 1.66016 13.7002 2.13281C12.1175 2.29036 11.319 2.50163 11.3047 2.7666C11.2188 4.55697 11.1758 6.81641 11.1758 9.54492ZM28.46 7.93359C29.1976 7.93359 29.7812 8.28809 30.2109 8.99707C30.6478 9.69889 30.8662 10.791 30.8662 12.2734C30.8662 13.7559 30.6478 14.848 30.2109 15.5498C29.7812 16.2516 29.1976 16.6025 28.46 16.6025C28.0518 16.6025 27.6794 16.5166 27.3428 16.3447C27.0133 16.1729 26.7305 15.9079 26.4941 15.5498C26.265 15.1917 26.0859 14.7441 25.957 14.207C25.8281 13.6628 25.7637 13.0182 25.7637 12.2734C25.7637 11.5358 25.8281 10.8949 25.957 10.3506C26.0859 9.79915 26.265 9.34798 26.4941 8.99707C26.7305 8.639 27.0133 8.37402 27.3428 8.20215C27.6794 8.02311 28.0518 7.93359 28.46 7.93359ZM28.46 17.3115C29.126 17.3115 29.724 17.1862 30.2539 16.9355C30.7839 16.6849 31.235 16.3376 31.6074 15.8936C31.987 15.4424 32.277 14.9089 32.4775 14.293C32.6781 13.6771 32.7783 13.0039 32.7783 12.2734C32.7783 11.543 32.6781 10.8698 32.4775 10.2539C32.277 9.63802 31.987 9.10807 31.6074 8.66406C31.235 8.21289 30.7839 7.86198 30.2539 7.61133C29.724 7.36068 29.126 7.23535 28.46 7.23535C27.751 7.23535 27.11 7.36068 26.5371 7.61133C25.9642 7.86198 25.4772 8.20931 25.0762 8.65332C24.6823 9.09733 24.3779 9.63086 24.1631 10.2539C23.9482 10.8698 23.8408 11.543 23.8408 12.2734C23.8408 13.0111 23.9482 13.6878 24.1631 14.3037C24.3779 14.9196 24.6823 15.4531 25.0762 15.9043C25.4772 16.3483 25.9642 16.6956 26.5371 16.9463C27.11 17.1898 27.751 17.3115 28.46 17.3115ZM28.8359 6.79492C29.7025 6.79492 30.4723 6.92741 31.1455 7.19238C31.8258 7.45736 32.3988 7.83333 32.8643 8.32031C33.3298 8.80013 33.6842 9.37663 33.9277 10.0498C34.1712 10.723 34.293 11.4642 34.293 12.2734C34.293 13.0755 34.1712 13.8132 33.9277 14.4863C33.6842 15.1595 33.3298 15.7396 32.8643 16.2266C32.4059 16.7064 31.8366 17.0788 31.1562 17.3438C30.4759 17.6159 29.7025 17.752 28.8359 17.752C27.9766 17.752 27.2067 17.6159 26.5264 17.3438C25.8532 17.0788 25.2839 16.7064 24.8184 16.2266C24.36 15.7396 24.0091 15.1631 23.7656 14.4971C23.5221 13.8239 23.4004 13.0827 23.4004 12.2734C23.4004 11.4642 23.5221 10.723 23.7656 10.0498C24.0091 9.37663 24.3636 8.80013 24.8291 8.32031C25.2946 7.83333 25.8639 7.45736 26.5371 7.19238C27.2103 6.92741 27.9766 6.79492 28.8359 6.79492ZM27.2783 12.2734C27.2783 14.5866 27.7975 15.8685 28.8359 16.1191C29.8958 15.8685 30.4258 14.5866 30.4258 12.2734C30.4258 9.98177 29.8958 8.69629 28.8359 8.41699C27.7975 8.69629 27.2783 9.98177 27.2783 12.2734ZM38.7295 10.7695C38.7295 9.77409 38.9157 9.05436 39.2881 8.61035C39.6676 8.15918 40.1439 7.93359 40.7168 7.93359C41.1393 7.93359 41.5296 8.1377 41.8877 8.5459C42.2529 8.94694 42.4355 9.6237 42.4355 10.5762C42.4355 12.6172 41.877 13.6377 40.7598 13.6377C39.4062 13.6377 38.7295 12.6816 38.7295 10.7695ZM38.6865 19.8574C38.6865 19.0697 39.1413 18.4323 40.0508 17.9453C40.6237 17.888 41.5046 17.8594 42.6934 17.8594C43.5456 17.8594 44.1149 18.0169 44.4014 18.332C44.6878 18.6471 44.8311 19.1055 44.8311 19.707C44.8311 20.2227 44.5553 20.7562 44.0039 21.3076C43.4525 21.8662 42.6289 22.1455 41.5332 22.1455C40.5449 22.1455 39.8216 21.9199 39.3633 21.4688C38.9121 21.0247 38.6865 20.4876 38.6865 19.8574ZM45.5938 7.69727C45.7871 7.71159 45.8838 7.81185 45.8838 7.99805C45.8838 8.23438 45.737 8.37402 45.4434 8.41699C45.1927 8.44564 44.8848 8.38835 44.5195 8.24512C44.3262 8.1735 44.0791 8.07324 43.7783 7.94434C43.4775 7.80827 43.2663 7.71517 43.1445 7.66504C43.0228 7.60775 42.8545 7.54329 42.6396 7.47168C42.4248 7.40007 42.2386 7.35352 42.0811 7.33203C41.9307 7.31055 41.7409 7.28906 41.5117 7.26758C41.2897 7.24609 41.0391 7.23535 40.7598 7.23535C39.6712 7.23535 38.7474 7.60059 37.9883 8.33105C37.2363 9.06152 36.8604 9.86719 36.8604 10.748C36.8604 12.1732 37.5085 13.2438 38.8047 13.96C37.6445 14.8265 37.0645 15.6035 37.0645 16.291C37.0645 17.1576 37.752 17.6947 39.127 17.9023C37.7233 18.6615 37.0215 19.571 37.0215 20.6309C37.0215 21.3184 37.3438 21.8913 37.9883 22.3496C38.6328 22.8151 39.5781 23.0479 40.8242 23.0479C42.3066 23.0479 43.5599 22.5573 44.584 21.5762C45.6152 20.5951 46.1309 19.596 46.1309 18.5791C46.1309 16.9391 45.1318 16.1191 43.1338 16.1191C42.9118 16.1191 42.6182 16.1263 42.2529 16.1406C41.8877 16.1549 41.637 16.1621 41.501 16.1621C40.4053 16.1621 39.6318 16.0905 39.1807 15.9473C38.7367 15.7969 38.5146 15.5605 38.5146 15.2383C38.5146 14.8301 38.8298 14.4935 39.46 14.2285C39.8968 14.3001 40.3587 14.3359 40.8457 14.3359C41.8125 14.3359 42.6289 13.9993 43.2949 13.3262C43.9681 12.653 44.3047 11.7435 44.3047 10.5977C44.3047 9.68815 44.1328 9.00065 43.7891 8.53516L43.8428 8.48145C43.9574 8.56022 44.1113 8.67122 44.3047 8.81445C44.5052 8.95052 44.6556 9.0472 44.7559 9.10449C44.8633 9.16178 44.9993 9.21908 45.1641 9.27637C45.3359 9.33366 45.5042 9.3623 45.6689 9.3623C45.9411 9.3623 46.1702 9.25846 46.3564 9.05078C46.5426 8.83594 46.6357 8.58171 46.6357 8.28809C46.6357 7.98014 46.5462 7.72233 46.3672 7.51465C46.1953 7.2998 45.9375 7.19238 45.5938 7.19238C45.4935 7.37858 45.4935 7.54688 45.5938 7.69727ZM45.7334 9.80273C45.7907 10.0391 45.8193 10.304 45.8193 10.5977C45.8193 11.8724 45.4111 12.8893 44.5947 13.6484C43.7855 14.4004 42.7936 14.7764 41.6191 14.7764H40.2764C40.0687 15.0127 40.0078 15.224 40.0938 15.4102C40.1868 15.5892 40.3587 15.6787 40.6094 15.6787H44.208C46.4997 15.6787 47.6455 16.6455 47.6455 18.5791C47.6455 19.0947 47.4915 19.6354 47.1836 20.2012C46.8757 20.7669 46.446 21.2933 45.8945 21.7803C45.3431 22.2744 44.6198 22.6826 43.7246 23.0049C42.8294 23.3271 41.8626 23.4883 40.8242 23.4883C39.4277 23.4883 38.3714 23.2161 37.6553 22.6719C36.9391 22.1348 36.5811 21.4544 36.5811 20.6309C36.5811 19.7214 37.0573 18.8763 38.0098 18.0957C37.0859 17.7734 36.624 17.1719 36.624 16.291C36.624 15.5319 37.0931 14.762 38.0312 13.9814C36.957 13.208 36.4199 12.1302 36.4199 10.748C36.4199 9.76693 36.8424 8.86458 37.6875 8.04102C38.5326 7.21029 39.5566 6.79492 40.7598 6.79492C41.6549 6.79492 42.3138 6.84147 42.7363 6.93457C43.166 7.02767 43.7031 7.20671 44.3477 7.47168C44.6699 6.99186 45.0853 6.75195 45.5938 6.75195C46.0951 6.75195 46.4674 6.89876 46.7109 7.19238C46.9544 7.486 47.0762 7.85124 47.0762 8.28809C47.0762 8.71061 46.9544 9.06868 46.7109 9.3623C46.4674 9.65592 46.1416 9.80273 45.7334 9.80273ZM40.2119 19.8574C40.2119 20.3158 40.3444 20.7168 40.6094 21.0605C40.8815 21.4043 41.3184 21.612 41.9199 21.6836C42.7435 21.612 43.3594 21.3577 43.7676 20.9209C44.1829 20.4912 44.3906 20.0866 44.3906 19.707C44.3906 19.263 44.2904 18.9157 44.0898 18.665C43.8893 18.4215 43.5062 18.2998 42.9404 18.2998C42.2601 18.2998 41.5905 18.3285 40.9316 18.3857C40.4518 18.7939 40.2119 19.2845 40.2119 19.8574ZM40.2549 10.7695C40.2549 12.123 40.5485 12.9108 41.1357 13.1328C41.7087 12.9108 41.9951 12.0586 41.9951 10.5762C41.9951 9.40169 41.6943 8.69629 41.0928 8.45996C40.5342 8.69629 40.2549 9.46615 40.2549 10.7695ZM53.9404 7.93359C54.6781 7.93359 55.2617 8.28809 55.6914 8.99707C56.1283 9.69889 56.3467 10.791 56.3467 12.2734C56.3467 13.7559 56.1283 14.848 55.6914 15.5498C55.2617 16.2516 54.6781 16.6025 53.9404 16.6025C53.5322 16.6025 53.1598 16.5166 52.8232 16.3447C52.4938 16.1729 52.2109 15.9079 51.9746 15.5498C51.7454 15.1917 51.5664 14.7441 51.4375 14.207C51.3086 13.6628 51.2441 13.0182 51.2441 12.2734C51.2441 11.5358 51.3086 10.8949 51.4375 10.3506C51.5664 9.79915 51.7454 9.34798 51.9746 8.99707C52.2109 8.639 52.4938 8.37402 52.8232 8.20215C53.1598 8.02311 53.5322 7.93359 53.9404 7.93359ZM53.9404 17.3115C54.6064 17.3115 55.2044 17.1862 55.7344 16.9355C56.2643 16.6849 56.7155 16.3376 57.0879 15.8936C57.4674 15.4424 57.7575 14.9089 57.958 14.293C58.1585 13.6771 58.2588 13.0039 58.2588 12.2734C58.2588 11.543 58.1585 10.8698 57.958 10.2539C57.7575 9.63802 57.4674 9.10807 57.0879 8.66406C56.7155 8.21289 56.2643 7.86198 55.7344 7.61133C55.2044 7.36068 54.6064 7.23535 53.9404 7.23535C53.2314 7.23535 52.5905 7.36068 52.0176 7.61133C51.4447 7.86198 50.9577 8.20931 50.5566 8.65332C50.1628 9.09733 49.8584 9.63086 49.6436 10.2539C49.4287 10.8698 49.3213 11.543 49.3213 12.2734C49.3213 13.0111 49.4287 13.6878 49.6436 14.3037C49.8584 14.9196 50.1628 15.4531 50.5566 15.9043C50.9577 16.3483 51.4447 16.6956 52.0176 16.9463C52.5905 17.1898 53.2314 17.3115 53.9404 17.3115ZM54.3164 6.79492C55.1829 6.79492 55.9528 6.92741 56.626 7.19238C57.3063 7.45736 57.8792 7.83333 58.3447 8.32031C58.8102 8.80013 59.1647 9.37663 59.4082 10.0498C59.6517 10.723 59.7734 11.4642 59.7734 12.2734C59.7734 13.0755 59.6517 13.8132 59.4082 14.4863C59.1647 15.1595 58.8102 15.7396 58.3447 16.2266C57.8864 16.7064 57.3171 17.0788 56.6367 17.3438C55.9564 17.6159 55.1829 17.752 54.3164 17.752C53.457 17.752 52.6872 17.6159 52.0068 17.3438C51.3337 17.0788 50.7643 16.7064 50.2988 16.2266C49.8405 15.7396 49.4896 15.1631 49.2461 14.4971C49.0026 13.8239 48.8809 13.0827 48.8809 12.2734C48.8809 11.4642 49.0026 10.723 49.2461 10.0498C49.4896 9.37663 49.8441 8.80013 50.3096 8.32031C50.7751 7.83333 51.3444 7.45736 52.0176 7.19238C52.6908 6.92741 53.457 6.79492 54.3164 6.79492ZM52.7588 12.2734C52.7588 14.5866 53.278 15.8685 54.3164 16.1191C55.3763 15.8685 55.9062 14.5866 55.9062 12.2734C55.9062 9.98177 55.3763 8.69629 54.3164 8.41699C53.278 8.69629 52.7588 9.98177 52.7588 12.2734ZM84.6416 16.5596C84.2406 16.5381 83.8503 16.5094 83.4707 16.4736C83.0983 16.4307 82.7581 16.3734 82.4502 16.3018C82.1423 16.2301 81.8809 16.137 81.666 16.0225C81.4583 15.9007 81.3223 15.7503 81.2578 15.5713L75.3174 0.897461C75.1956 0.904622 75.0775 0.954753 74.9629 1.04785C74.9128 1.93587 74.6406 2.64844 74.1465 3.18555L74.3936 3.81934L69.8604 15.2168C69.5739 15.9329 68.693 16.3805 67.2178 16.5596C67.1748 16.6598 67.1533 16.7493 67.1533 16.8281C67.1533 16.9141 67.1748 17 67.2178 17.0859C68.0342 17.0573 68.6895 17.0358 69.1836 17.0215C69.6849 17.0072 70.0286 17 70.2148 17C70.3796 17 70.752 17.0072 71.332 17.0215C71.9193 17.0358 72.7142 17.0573 73.7168 17.0859C73.7598 17 73.7812 16.9141 73.7812 16.8281C73.7812 16.7493 73.7598 16.6598 73.7168 16.5596C73.1224 16.5023 72.639 16.4414 72.2666 16.377C71.8942 16.3053 71.6042 16.2301 71.3965 16.1514C71.1888 16.0726 71.0492 15.9867 70.9775 15.8936C70.9059 15.7933 70.8701 15.6823 70.8701 15.5605C70.8701 15.4818 70.8844 15.403 70.9131 15.3242L72.4814 11.3926C73.2764 11.3783 73.9173 11.3675 74.4043 11.3604C74.8984 11.3532 75.2386 11.3496 75.4248 11.3496C75.833 11.3496 76.1947 11.3532 76.5098 11.3604C76.832 11.3604 77.1077 11.3639 77.3369 11.3711L78.8945 15.3242C78.9303 15.4316 78.9482 15.514 78.9482 15.5713C78.9482 15.7646 78.848 15.9365 78.6475 16.0869C78.4541 16.2373 78.2142 16.3411 77.9277 16.3984L76.7676 16.5596C76.7246 16.6598 76.7031 16.7493 76.7031 16.8281C76.7031 16.9141 76.7246 17 76.7676 17.0859C77.3763 17.0645 77.9922 17.0465 78.6152 17.0322C79.2454 17.0179 79.89 17.0107 80.5488 17.0107C81.2077 17.0107 81.8737 17.0179 82.5469 17.0322C83.2272 17.0465 83.9255 17.0645 84.6416 17.0859C84.6917 16.9857 84.7168 16.8997 84.7168 16.8281C84.7168 16.7852 84.7096 16.7422 84.6953 16.6992C84.681 16.6562 84.6631 16.6097 84.6416 16.5596ZM75.4248 10.5117C74.3864 10.5117 73.5306 10.4974 72.8574 10.4688L74.8984 5.20508H74.9414L76.9932 10.4902C76.6064 10.5046 76.0837 10.5117 75.4248 10.5117ZM74.9199 6.33301L73.4912 10.0498C74.3577 10.0928 75.3102 10.0999 76.3486 10.0713L74.9199 6.33301ZM84.9746 16.1621C85.1536 16.5918 85.1465 17.0465 84.9531 17.5264H76.4346C76.2627 17.0322 76.2627 16.5775 76.4346 16.1621C77.2152 16.1191 77.7666 16.0404 78.0889 15.9258C78.4111 15.804 78.5221 15.6107 78.4219 15.3457L77.0146 11.79C75.6898 11.7399 74.2718 11.7542 72.7607 11.833L71.375 15.3887C71.332 15.5104 71.3643 15.6214 71.4717 15.7217C71.5863 15.8148 71.7689 15.89 72.0195 15.9473C72.2702 16.0046 72.5638 16.0511 72.9004 16.0869C73.237 16.1227 73.6165 16.1478 74.0391 16.1621C74.2181 16.5918 74.2109 17.0465 74.0176 17.5264C71.6686 17.4404 69.3018 17.4404 66.917 17.5264C66.7236 17.0465 66.7165 16.5918 66.8955 16.1621C68.3708 15.9902 69.2051 15.668 69.3984 15.1953L73.9316 3.79785C73.903 3.74056 73.8457 3.61165 73.7598 3.41113C73.681 3.20345 73.6344 3.06738 73.6201 3.00293C74.1787 2.43717 74.4867 1.70671 74.5439 0.811523C75.1742 0.503581 75.9154 0.328125 76.7676 0.285156L82.7939 15.2383C82.93 15.5749 83.1449 15.8005 83.4385 15.915C83.7321 16.0225 84.2441 16.1048 84.9746 16.1621ZM91.0762 15.5283C91.0189 12.5348 90.9902 10.2754 90.9902 8.75C90.9902 6.98828 91.026 4.98665 91.0977 2.74512C91.112 2.20085 92.3079 1.8571 94.6855 1.71387C94.7285 1.5778 94.7285 1.40951 94.6855 1.20898C92.8092 1.26628 91.3447 1.29492 90.292 1.29492C89.4111 1.29492 88.1615 1.26628 86.543 1.20898C86.4857 1.33789 86.4857 1.50618 86.543 1.71387C88.1901 1.87142 89.0208 2.21517 89.0352 2.74512C89.1068 4.42806 89.1426 6.42969 89.1426 8.75C89.1426 11.0202 89.0996 13.2796 89.0137 15.5283C88.9993 16.0583 88.1686 16.402 86.5215 16.5596C86.4642 16.6742 86.4642 16.8424 86.5215 17.0645C87.7389 17.0215 88.9886 17 90.2705 17C91.7959 17 93.2604 17.0215 94.6641 17.0645C94.7214 16.9499 94.7214 16.7816 94.6641 16.5596C92.2865 16.4163 91.0905 16.0726 91.0762 15.5283ZM86.1992 2.13281C86.0775 1.66016 86.0918 1.19824 86.2422 0.74707C86.8724 0.74707 87.7246 0.764974 88.7988 0.800781C89.8802 0.836589 90.6322 0.854492 91.0547 0.854492C91.3626 0.854492 91.957 0.847331 92.8379 0.833008C93.7188 0.818685 94.4814 0.811523 95.126 0.811523C95.262 1.21973 95.2692 1.66016 95.1475 2.13281C93.5648 2.29036 92.7663 2.50163 92.752 2.7666C92.666 4.55697 92.623 6.81641 92.623 9.54492C92.623 12.1803 92.6589 14.1676 92.7305 15.5068C92.7305 15.5498 92.7484 15.5928 92.7842 15.6357C92.82 15.6787 92.8701 15.7145 92.9346 15.7432C93.0062 15.7718 93.0778 15.804 93.1494 15.8398C93.221 15.8685 93.3177 15.8971 93.4395 15.9258C93.5684 15.9544 93.6758 15.9795 93.7617 16.001C93.8477 16.0225 93.9622 16.0439 94.1055 16.0654C94.2559 16.0869 94.374 16.1048 94.46 16.1191C94.5531 16.1335 94.6748 16.1478 94.8252 16.1621C94.9827 16.1764 95.0902 16.1908 95.1475 16.2051C95.2692 16.6061 95.2477 17.0465 95.083 17.5264C92.4404 17.4691 90.8363 17.4404 90.2705 17.4404C89.8838 17.4404 88.5339 17.4691 86.2207 17.5264C86.0417 17.0322 86.0417 16.5703 86.2207 16.1406C87.7747 15.9831 88.5589 15.7718 88.5732 15.5068C88.6592 13.7165 88.7021 11.4642 88.7021 8.75C88.7021 6.44401 88.6663 4.44954 88.5947 2.7666C88.5804 2.50163 87.7819 2.29036 86.1992 2.13281ZM9.69336 31.1113C10.474 31.0182 11.2975 30.9717 12.1641 30.9717C13.1165 30.9717 13.9688 31.1221 14.7207 31.4229C15.4798 31.7236 16.0921 32.1104 16.5576 32.583C17.0303 33.0485 17.417 33.5999 17.7178 34.2373C18.0186 34.8747 18.2262 35.5085 18.3408 36.1387C18.4626 36.7617 18.5234 37.4027 18.5234 38.0615C18.5234 40.2314 17.9147 41.9681 16.6973 43.2715C15.4798 44.5749 13.7253 45.2266 11.4336 45.2266L9.67188 45.2051C9.60026 42.2331 9.56445 40.013 9.56445 38.5449C9.56445 35.888 9.60742 33.4102 9.69336 31.1113ZM12.0029 46.4404C9.60384 46.4404 7.20833 46.4691 4.81641 46.5264C4.63737 46.0322 4.63737 45.5703 4.81641 45.1406C6.37044 44.9831 7.15462 44.7718 7.16895 44.5068C7.25488 42.2581 7.29785 40.0059 7.29785 37.75C7.29785 35.444 7.26204 33.4495 7.19043 31.7666C7.17611 31.5016 6.3776 31.2904 4.79492 31.1328C4.67318 30.6745 4.6875 30.2126 4.83789 29.7471C5.71875 29.7614 8.46159 29.7686 13.0664 29.7686C14.0618 29.7686 14.9749 29.8294 15.8057 29.9512C16.6436 30.0729 17.4958 30.32 18.3623 30.6924C19.2288 31.0576 19.9593 31.5374 20.5537 32.1318C21.1481 32.7262 21.6315 33.5283 22.0039 34.5381C22.3763 35.5479 22.5625 36.7295 22.5625 38.083C22.5625 39.3721 22.3441 40.5143 21.9072 41.5098C21.4704 42.5052 20.8975 43.3073 20.1885 43.916C19.4867 44.5247 18.6595 45.026 17.707 45.4199C16.7546 45.8066 15.8164 46.0716 14.8926 46.2148C13.9688 46.3652 13.0055 46.4404 12.0029 46.4404ZM11.3477 31.498C11.2617 34.0117 11.2188 36.3607 11.2188 38.5449C11.2188 40.321 11.2474 42.4014 11.3047 44.7861C13.5605 44.7288 15.2542 44.0951 16.3857 42.8848C17.5173 41.6745 18.083 40.0667 18.083 38.0615C18.083 37.2809 17.9899 36.5361 17.8037 35.8271C17.6175 35.111 17.3203 34.4163 16.9121 33.7432C16.5039 33.07 15.9059 32.5257 15.1182 32.1104C14.3376 31.6878 13.4173 31.4622 12.3574 31.4336C12.0065 31.4336 11.6699 31.4551 11.3477 31.498ZM5.11719 46.0645C6.6569 46.0215 8.69792 46 11.2402 46C12.1497 46 13.027 45.932 13.8721 45.7959C14.7243 45.6527 15.5872 45.3949 16.4609 45.0225C17.3346 44.6501 18.0902 44.1774 18.7275 43.6045C19.3649 43.0316 19.8877 42.2689 20.2959 41.3164C20.7113 40.3639 20.9189 39.279 20.9189 38.0615C20.9189 32.8265 18.0436 30.209 12.293 30.209C11.763 30.209 11.0111 30.2197 10.0371 30.2412C9.06315 30.2627 8.17871 30.2734 7.38379 30.2734C6.59603 30.2734 5.84766 30.252 5.13867 30.209C5.08138 30.3379 5.08138 30.5062 5.13867 30.7139C6.78581 30.8714 7.61654 31.2152 7.63086 31.7451C7.70247 33.4281 7.73828 35.4297 7.73828 37.75C7.73828 40.0202 7.69531 42.2796 7.60938 44.5283C7.59505 45.0583 6.76432 45.402 5.11719 45.5596C5.04557 45.7243 5.04557 45.8926 5.11719 46.0645ZM33.9062 30.2949H28.5029C27.6077 30.2949 26.3509 30.2663 24.7324 30.209V30.7139C26.3796 30.8714 27.2103 31.2152 27.2246 31.7451C27.2962 33.4281 27.332 35.4297 27.332 37.75C27.332 40.0202 27.2891 42.2796 27.2031 44.5283C27.1888 45.0583 26.3581 45.402 24.7109 45.5596C24.6823 45.8102 24.6823 45.9785 24.7109 46.0645C26.0931 46.0215 29.305 46 34.3467 46C36.1084 46 37.4333 45.6992 38.3213 45.0977C39.2093 44.4961 40.0114 43.4613 40.7275 41.9932C40.6702 41.8786 40.5449 41.7855 40.3516 41.7139C39.0482 44.1344 36.6455 45.3447 33.1436 45.3447H29.2656C29.194 42.2152 29.1582 39.9271 29.1582 38.4805L32.6602 38.459C32.9681 38.459 33.2546 38.5091 33.5195 38.6094C33.7917 38.7096 34.0065 38.8135 34.1641 38.9209C34.3288 39.0212 34.5186 39.2181 34.7334 39.5117C34.9482 39.8053 35.0986 40.0202 35.1846 40.1562C35.2705 40.2852 35.4209 40.5573 35.6357 40.9727C35.8506 41.388 35.9938 41.6566 36.0654 41.7783C36.2874 41.6852 36.4271 41.5885 36.4844 41.4883C35.7682 40.2708 35.4102 39.1501 35.4102 38.126C35.4102 37.682 35.5104 37.1413 35.7109 36.5039C35.9186 35.8665 36.1764 35.2829 36.4844 34.7529C36.4271 34.6527 36.2874 34.5596 36.0654 34.4736C36.0081 34.5739 35.8936 34.7887 35.7217 35.1182C35.557 35.4476 35.446 35.6624 35.3887 35.7627C35.3385 35.8558 35.2347 36.0312 35.0771 36.2891C34.9268 36.5469 34.8086 36.7188 34.7227 36.8047C34.6367 36.8906 34.5078 37.0195 34.3359 37.1914C34.1712 37.3561 34.0101 37.4707 33.8525 37.5352C33.7021 37.5924 33.5231 37.6462 33.3154 37.6963C33.1077 37.7464 32.8893 37.7715 32.6602 37.7715C31.1204 37.7715 29.9531 37.7572 29.1582 37.7285C29.1582 35.9954 29.2012 33.736 29.2871 30.9502H32.7031C36.2051 30.9502 38.6077 32.1605 39.9111 34.5811C40.1045 34.5094 40.2298 34.4128 40.2871 34.291C39.571 32.8301 38.7689 31.7988 37.8809 31.1973C36.9928 30.5957 35.668 30.2949 33.9062 30.2949ZM35.3887 34.8281L35.8506 33.9258C36.4521 34.1406 36.8317 34.4163 36.9893 34.7529C36.667 35.3115 36.3949 35.9167 36.1729 36.5684C35.958 37.2129 35.8506 37.7321 35.8506 38.126C35.8506 39.0785 36.2301 40.1992 36.9893 41.4883C36.8174 41.8535 36.4521 42.1328 35.8936 42.3262C35.6286 41.8893 35.4352 41.5527 35.3135 41.3164C35.0199 40.8294 34.7871 40.4678 34.6152 40.2314C34.4505 39.988 34.1999 39.7445 33.8633 39.501C33.5267 39.2575 33.1543 39.1286 32.7461 39.1143H30.8125C30.8125 40.6969 30.8411 42.627 30.8984 44.9043H33.1221C34.9411 44.9043 36.4199 44.5498 37.5586 43.8408C38.7044 43.1247 39.571 42.2295 40.1582 41.1553C40.7598 41.3773 41.1393 41.6566 41.2969 41.9932C40.3587 43.5472 39.8037 45.0296 39.6318 46.4404H30.7158C27.887 46.4404 25.7852 46.4619 24.4102 46.5049C24.2598 46.0394 24.2526 45.5846 24.3887 45.1406C25.957 44.9831 26.7484 44.7718 26.7627 44.5068C26.8486 42.2581 26.8916 40.0059 26.8916 37.75C26.8916 35.444 26.8558 33.4495 26.7842 31.7666C26.7699 31.5016 25.9714 31.2904 24.3887 31.1328C24.2526 30.6315 24.2669 30.1696 24.4316 29.7471C26.6302 29.8187 28.0876 29.8545 28.8037 29.8545H39.1914C39.3633 31.2581 39.9219 32.737 40.8672 34.291C40.7025 34.6348 40.3193 34.9141 39.7178 35.1289C39.1305 34.0618 38.264 33.1738 37.1182 32.4648C35.9795 31.7487 34.5007 31.3906 32.6816 31.3906H30.9199C30.8483 33.9616 30.8125 35.9346 30.8125 37.3096C31.2637 37.3239 31.9154 37.3311 32.7676 37.3311C33.3691 37.3311 33.849 37.1305 34.207 36.7295C34.5651 36.3213 34.959 35.6875 35.3887 34.8281ZM49.332 29.4141C50.3561 29.4141 51.2979 29.5573 52.1572 29.8438C53.0166 30.1302 53.79 30.3164 54.4775 30.4023C54.098 31.7344 54.0837 33.1702 54.4346 34.71C54.0693 35.0179 53.6504 35.1969 53.1777 35.2471C53.1204 35.111 53.0166 34.8281 52.8662 34.3984C52.723 33.9616 52.5833 33.6035 52.4473 33.3242C52.3184 33.0449 52.1357 32.7262 51.8994 32.3682C51.6702 32.0101 51.3623 31.7272 50.9756 31.5195C50.596 31.3047 50.1592 31.1579 49.665 31.0791C48.9417 31.1436 48.3831 31.3656 47.9893 31.7451C47.5954 32.1247 47.3984 32.6152 47.3984 33.2168C47.3984 33.8327 47.556 34.3411 47.8711 34.7422C48.1862 35.1361 48.5944 35.4333 49.0957 35.6338C49.6042 35.8271 50.1628 35.999 50.7715 36.1494C51.3802 36.2926 51.9854 36.4717 52.5869 36.6865C53.1885 36.8942 53.7399 37.1699 54.2412 37.5137C54.7497 37.8503 55.1615 38.3551 55.4766 39.0283C55.7917 39.7015 55.9492 40.5215 55.9492 41.4883C55.9492 42.6628 55.609 43.6725 54.9287 44.5176C54.2484 45.3626 53.4463 45.9678 52.5225 46.333C51.5986 46.6982 50.6533 46.8809 49.6865 46.8809C47.5596 46.8809 45.4541 46.4118 43.3701 45.4736C43.4131 44.5498 43.4346 43.984 43.4346 43.7764C43.4346 42.6162 43.3236 41.3701 43.1016 40.0381C43.7461 39.7301 44.4658 39.7158 45.2607 39.9951C45.5257 41.6208 46.0378 42.8669 46.7969 43.7334C47.5632 44.5999 48.401 45.0833 49.3105 45.1836C50.1628 45.1263 50.818 44.8506 51.2764 44.3564C51.7419 43.8551 51.9746 43.2214 51.9746 42.4551C51.9746 41.8105 51.8242 41.2663 51.5234 40.8223C51.2227 40.3711 50.8252 40.0238 50.3311 39.7803C49.8369 39.5296 49.2998 39.304 48.7197 39.1035C48.1468 38.903 47.5667 38.6917 46.9795 38.4697C46.3923 38.2406 45.8516 37.9684 45.3574 37.6533C44.8704 37.3382 44.4766 36.8978 44.1758 36.332C43.875 35.7663 43.7246 35.0788 43.7246 34.2695C43.7246 33.5391 43.8392 32.8838 44.0684 32.3037C44.3047 31.7236 44.609 31.2581 44.9814 30.9072C45.361 30.5563 45.8014 30.2627 46.3027 30.0264C46.8112 29.79 47.3125 29.6289 47.8066 29.543C48.3079 29.457 48.8164 29.4141 49.332 29.4141ZM49.332 29.8545C48.7305 29.8545 48.1468 29.9261 47.5811 30.0693C47.0153 30.2054 46.4639 30.431 45.9268 30.7461C45.3968 31.0612 44.9707 31.5231 44.6484 32.1318C44.3262 32.7406 44.165 33.4531 44.165 34.2695C44.165 34.9928 44.3154 35.6159 44.6162 36.1387C44.917 36.6543 45.3109 37.0553 45.7979 37.3418C46.292 37.6283 46.8327 37.8825 47.4199 38.1045C48.0072 38.3193 48.5872 38.5378 49.1602 38.7598C49.7402 38.9818 50.2773 39.2324 50.7715 39.5117C51.2656 39.791 51.6631 40.1813 51.9639 40.6826C52.2646 41.1768 52.415 41.7676 52.415 42.4551C52.415 43.4076 52.1107 44.1774 51.502 44.7646C50.8932 45.3519 50.0303 45.6455 48.9131 45.6455C47.8389 45.6455 46.8398 45.1979 45.916 44.3027C44.9922 43.4076 44.3835 42.0684 44.0898 40.2852C43.9466 40.1921 43.7783 40.1921 43.585 40.2852C43.7783 41.4095 43.875 42.5732 43.875 43.7764C43.875 44.113 43.8607 44.5892 43.832 45.2051C45.6081 46.0286 47.3018 46.4404 48.9131 46.4404C50.2451 46.4404 51.4769 46.0465 52.6084 45.2588C53.7399 44.4639 54.3057 43.3538 54.3057 41.9287C54.3057 41.1195 54.1481 40.4355 53.833 39.877C53.5179 39.3112 53.1061 38.8708 52.5977 38.5557C52.0892 38.2406 51.5306 37.9684 50.9219 37.7393C50.3132 37.5101 49.708 37.2952 49.1064 37.0947C48.5049 36.887 47.9499 36.6579 47.4414 36.4072C46.9401 36.1566 46.5319 35.8021 46.2168 35.3438C45.9017 34.8783 45.7441 34.3161 45.7441 33.6572C45.7441 32.7334 46.0557 31.9958 46.6787 31.4443C47.3018 30.8929 48.1862 30.6172 49.332 30.6172C51.3229 30.6172 52.6943 31.9958 53.4463 34.7529C53.6683 34.7887 53.8223 34.7386 53.9082 34.6025C53.6719 32.8551 53.1527 31.627 52.3506 30.918C51.5557 30.209 50.5495 29.8545 49.332 29.8545ZM62.6738 44.5283C62.6165 41.5348 62.5879 39.2754 62.5879 37.75C62.5879 35.9883 62.6237 33.9867 62.6953 31.7451C62.7096 31.2008 63.9056 30.8571 66.2832 30.7139C66.3262 30.5778 66.3262 30.4095 66.2832 30.209C64.4069 30.2663 62.9424 30.2949 61.8896 30.2949C61.0088 30.2949 59.7591 30.2663 58.1406 30.209C58.0833 30.3379 58.0833 30.5062 58.1406 30.7139C59.7878 30.8714 60.6185 31.2152 60.6328 31.7451C60.7044 33.4281 60.7402 35.4297 60.7402 37.75C60.7402 40.0202 60.6973 42.2796 60.6113 44.5283C60.597 45.0583 59.7663 45.402 58.1191 45.5596C58.0618 45.6742 58.0618 45.8424 58.1191 46.0645C59.3366 46.0215 60.5863 46 61.8682 46C63.3936 46 64.8581 46.0215 66.2617 46.0645C66.319 45.9499 66.319 45.7816 66.2617 45.5596C63.8841 45.4163 62.6882 45.0726 62.6738 44.5283ZM57.7969 31.1328C57.6751 30.6602 57.6895 30.1982 57.8398 29.7471C58.4701 29.7471 59.3223 29.765 60.3965 29.8008C61.4779 29.8366 62.2298 29.8545 62.6523 29.8545C62.9603 29.8545 63.5547 29.8473 64.4355 29.833C65.3164 29.8187 66.0791 29.8115 66.7236 29.8115C66.8597 30.2197 66.8669 30.6602 66.7451 31.1328C65.1624 31.2904 64.3639 31.5016 64.3496 31.7666C64.2637 33.557 64.2207 35.8164 64.2207 38.5449C64.2207 41.1803 64.2565 43.1676 64.3281 44.5068C64.3281 44.5498 64.346 44.5928 64.3818 44.6357C64.4176 44.6787 64.4678 44.7145 64.5322 44.7432C64.6038 44.7718 64.6755 44.804 64.7471 44.8398C64.8187 44.8685 64.9154 44.8971 65.0371 44.9258C65.166 44.9544 65.2734 44.9795 65.3594 45.001C65.4453 45.0225 65.5599 45.0439 65.7031 45.0654C65.8535 45.0869 65.9717 45.1048 66.0576 45.1191C66.1507 45.1335 66.2725 45.1478 66.4229 45.1621C66.5804 45.1764 66.6878 45.1908 66.7451 45.2051C66.8669 45.6061 66.8454 46.0465 66.6807 46.5264C64.0381 46.4691 62.4339 46.4404 61.8682 46.4404C61.4814 46.4404 60.1315 46.4691 57.8184 46.5264C57.6393 46.0322 57.6393 45.5703 57.8184 45.1406C59.3724 44.9831 60.1566 44.7718 60.1709 44.5068C60.2568 42.7165 60.2998 40.4642 60.2998 37.75C60.2998 35.444 60.264 33.4495 60.1924 31.7666C60.1781 31.5016 59.3796 31.2904 57.7969 31.1328ZM77.2832 29.8545C76.5957 29.8545 75.8975 29.9297 75.1885 30.0801C74.4867 30.2233 73.749 30.4919 72.9756 30.8857C72.2093 31.2796 71.5326 31.7773 70.9453 32.3789C70.3581 32.9805 69.8747 33.7826 69.4951 34.7852C69.1156 35.7806 68.9258 36.9085 68.9258 38.1689C68.9258 39.4294 69.1156 40.5609 69.4951 41.5635C69.8747 42.5589 70.3581 43.3538 70.9453 43.9482C71.5326 44.5355 72.2093 45.026 72.9756 45.4199C73.749 45.8066 74.4867 46.0716 75.1885 46.2148C75.8975 46.3652 76.5957 46.4404 77.2832 46.4404C78.3646 46.4404 79.335 46.3366 80.1943 46.1289C81.0537 45.9284 82.0277 45.6133 83.1162 45.1836C82.7939 44.3027 82.6328 43.1891 82.6328 41.8428V40.2529C82.6328 39.7301 83.8252 39.3864 86.21 39.2217C86.2887 39.0498 86.2887 38.8815 86.21 38.7168C84.3337 38.7741 82.8691 38.8027 81.8164 38.8027C80.9355 38.8027 79.6895 38.7741 78.0781 38.7168C78.028 38.8815 78.028 39.0498 78.0781 39.2217C79.7324 39.3864 80.5596 39.7301 80.5596 40.2529V44.6143C79.9437 45.3161 78.8516 45.667 77.2832 45.667C76.4453 45.667 75.6826 45.513 74.9951 45.2051C74.3076 44.8971 73.7383 44.4925 73.2871 43.9912C72.8431 43.4827 72.4707 42.8955 72.1699 42.2295C71.8691 41.5635 71.6507 40.8939 71.5146 40.2207C71.3857 39.5404 71.3213 38.8564 71.3213 38.1689C71.3213 37.2881 71.4287 36.4287 71.6436 35.5908C71.8656 34.7458 72.1986 33.9437 72.6426 33.1846C73.0938 32.4183 73.7168 31.7988 74.5117 31.3262C75.3138 30.8535 76.2376 30.6172 77.2832 30.6172C77.985 30.6172 78.6367 30.7282 79.2383 30.9502C79.8398 31.1722 80.334 31.4336 80.7207 31.7344C81.1146 32.0352 81.4941 32.4398 81.8594 32.9482C82.2246 33.4495 82.5003 33.8864 82.6865 34.2588C82.8799 34.624 83.109 35.0895 83.374 35.6553C83.596 35.6266 83.7285 35.5479 83.7715 35.4189C83.2415 33.292 82.4395 31.8346 81.3652 31.0469C80.2982 30.252 78.9375 29.8545 77.2832 29.8545ZM83.1162 36.1387C82.8083 35.4512 82.5254 34.8854 82.2676 34.4414C82.0098 33.9902 81.6624 33.4889 81.2256 32.9375C80.7959 32.3789 80.2839 31.9456 79.6895 31.6377C79.0951 31.3298 78.4326 31.1436 77.7021 31.0791C76.8643 31.1292 76.1266 31.3835 75.4893 31.8418C74.8519 32.293 74.3577 32.873 74.0068 33.582C73.6559 34.291 73.3945 35.0322 73.2227 35.8057C73.0508 36.5719 72.9648 37.3597 72.9648 38.1689C72.9648 39.2861 73.1152 40.3532 73.416 41.3701C73.7168 42.387 74.2432 43.2858 74.9951 44.0664C75.7542 44.8398 76.6852 45.2266 77.7881 45.2266C78.8122 45.2266 79.5892 44.9652 80.1191 44.4424V40.2529C80.1191 40.0094 79.3206 39.8053 77.7236 39.6406C77.5303 39.1393 77.5446 38.6774 77.7666 38.2549C79.9079 38.3551 82.8691 38.3766 86.6504 38.3193C86.8151 38.749 86.8223 39.1895 86.6719 39.6406C85.0749 39.8053 84.2764 40.0094 84.2764 40.2529V41.8428C84.2764 43.1462 84.4805 44.3493 84.8887 45.4521C83.8789 45.8317 83.127 46.0931 82.6328 46.2363C82.1458 46.3867 81.4368 46.5299 80.5059 46.666C79.5749 46.8092 78.5007 46.8809 77.2832 46.8809C76.5456 46.8809 75.8079 46.8021 75.0703 46.6445C74.3327 46.4941 73.5592 46.2148 72.75 45.8066C71.9408 45.3913 71.2282 44.8721 70.6123 44.249C69.9964 43.626 69.488 42.7917 69.0869 41.7461C68.6859 40.6934 68.4854 39.501 68.4854 38.1689C68.4854 36.8369 68.6823 35.6481 69.0762 34.6025C69.4701 33.5498 69.9714 32.7083 70.5801 32.0781C71.1888 31.4479 71.8906 30.9251 72.6855 30.5098C73.4876 30.0872 74.2539 29.8008 74.9844 29.6504C75.722 29.4928 76.4596 29.4141 77.1973 29.4141C78.3861 29.4141 79.7038 29.5645 81.1504 29.8652C82.6042 30.166 83.528 30.3379 83.9219 30.3809C83.6927 31.3047 83.6032 32.1175 83.6533 32.8193C83.7035 33.514 83.904 34.3662 84.2549 35.376C84.0472 35.7985 83.6676 36.0527 83.1162 36.1387ZM100.98 39.1357V37.7285C100.98 36.0742 100.945 34.1299 100.873 31.8955C100.859 31.516 100.075 31.2617 98.5205 31.1328C98.4202 30.8822 98.3701 30.653 98.3701 30.4453C98.3701 30.3164 98.4202 30.098 98.5205 29.79C99.609 29.833 100.701 29.8545 101.797 29.8545C102.9 29.8545 104.031 29.833 105.191 29.79C105.292 30.098 105.342 30.3164 105.342 30.4453C105.342 30.653 105.292 30.8822 105.191 31.1328C103.709 31.276 102.961 31.5303 102.946 31.8955C102.853 33.4066 102.807 35.6159 102.807 38.5234C102.807 41.8034 102.853 44.4567 102.946 46.4834L102.065 46.5049L91.8711 34.0332C91.8711 34.1621 91.8675 34.3984 91.8604 34.7422C91.8532 35.0788 91.8496 35.3402 91.8496 35.5264C91.8496 38.9854 91.8962 41.9323 91.9893 44.3672C92.0036 44.7539 92.7878 45.0117 94.3418 45.1406C94.4421 45.3913 94.4922 45.6204 94.4922 45.8281C94.4922 45.9857 94.4421 46.2184 94.3418 46.5264C93.2389 46.4834 92.1468 46.4619 91.0654 46.4619C89.9626 46.4619 88.8311 46.4834 87.6709 46.5264C87.5706 46.2184 87.5205 45.9857 87.5205 45.8281C87.5205 45.6204 87.5706 45.3913 87.6709 45.1406C89.1533 44.9974 89.9017 44.7396 89.916 44.3672C90.002 42.8633 90.0449 40.6576 90.0449 37.75C90.0449 35.5228 90.0163 33.5355 89.959 31.7881C89.4935 31.4229 88.7845 31.2044 87.832 31.1328C87.7246 30.9395 87.6709 30.7174 87.6709 30.4668C87.6709 30.2018 87.7389 29.9619 87.875 29.7471C89.3717 29.8187 91.2624 29.8545 93.5469 29.8545L100.98 39.1357ZM102.366 38.5234C102.366 36.3535 102.413 34.1442 102.506 31.8955C102.535 31.251 103.326 30.8571 104.88 30.7139C104.937 30.5921 104.937 30.4238 104.88 30.209C103.526 30.252 102.567 30.2734 102.001 30.2734C101.106 30.2734 100.085 30.252 98.9395 30.209C98.8822 30.4238 98.8822 30.5921 98.9395 30.7139C100.508 30.8571 101.299 31.251 101.313 31.8955C101.385 34.1299 101.421 36.0742 101.421 37.7285C101.421 38.6953 101.407 39.9987 101.378 41.6387L92.1182 30.2949C90.5068 30.2949 89.1712 30.2663 88.1113 30.209C88.054 30.3809 88.054 30.5492 88.1113 30.7139C89.0352 30.7712 89.7979 31.0648 90.3994 31.5947C90.4567 33.335 90.4854 35.3867 90.4854 37.75C90.4854 39.9199 90.4424 42.1257 90.3564 44.3672C90.3278 45.0189 89.5365 45.4163 87.9824 45.5596C87.9251 45.6742 87.9251 45.8424 87.9824 46.0645C89.3288 46.0215 90.2884 46 90.8613 46C91.7565 46 92.777 46.0215 93.9229 46.0645C93.9801 45.8424 93.9801 45.6742 93.9229 45.5596C92.3545 45.4163 91.5632 45.0189 91.5488 44.3672C91.4772 42.14 91.4414 40.1992 91.4414 38.5449C91.4414 36.6543 91.4629 34.7816 91.5059 32.9268H91.6133L102.28 46.0645L102.484 46.043C102.406 44.36 102.366 41.8535 102.366 38.5234Z" fill="#0134FF"/>
</g>
<defs>
<filter id="filter0_d_2047_542" x="0.547852" y="0.285156" width="108.794" height="54.5957" filterUnits="userSpaceOnUse" color-interpolation-filters="sRGB">
<feFlood flood-opacity="0" result="BackgroundImageFix"/>
<feColorMatrix in="SourceAlpha" type="matrix" values="0 0 0 0 0 0 0 0 0 0 0 0 0 0 0 0 0 0 127 0" result="hardAlpha"/>
<feOffset dy="4"/>
<feGaussianBlur stdDeviation="2"/>
<feComposite in2="hardAlpha" operator="out"/>
<feColorMatrix type="matrix" values="0 0 0 0 0.00392157 0 0 0 0 0.203922 0 0 0 0 1 0 0 0 0.33 0"/>
<feBlend mode="normal" in2="BackgroundImageFix" result="effect1_dropShadow_2047_542"/>
<feBlend mode="normal" in="SourceGraphic" in2="effect1_dropShadow_2047_542" result="shape"/>
</filter>
</defs>
</svg>
