<svg width="69" height="59" viewBox="0 0 69 59" fill="none" xmlns="http://www.w3.org/2000/svg">
<path d="M4.71334 48.4293L4.59515 47.6028L4.57903 46.8057L4.89516 45.1878L5.81568 43.3473L8.61117 38.8756L14.2539 29.6749L21.481 18.0446L25.2991 11.7618L27.0493 8.92138L27.8838 7.84868L28.4405 7.30284L29.0222 6.90042L29.9248 6.36732L30.4271 6.11545L31.0266 5.9658L31.6909 5.88431L34.0228 5.76227L37.1559 5.58576L41.7626 5.38772L9.29693 58.204L6.45391 52.4834L5.45522 50.3018L4.99842 49.3532L4.71334 48.4293Z" fill="#21BF73"/>
<path d="M40.284 24.4326L46.0589 12.9784L51.2783 21.9897L58.1963 34.2331L61.9758 40.7734L63.6728 43.7509L64.228 45.0239L64.4455 45.7846L64.5213 46.492L64.5568 47.5421L64.5361 48.1031L64.3754 48.6941L64.1213 49.305L63.0817 51.364L61.6961 54.1369L59.6034 58.182L40.284 24.4326Z" fill="#BA5CF7"/>
<g clip-path="url(#clip0_2047_543)">
<path d="M42.2932 45.1973L43.8663 42.9077L49.8587 51.6295C49.9511 51.7641 50.1029 51.8368 50.2575 51.8368C50.3492 51.8368 50.4418 51.8112 50.5236 51.7579C50.7436 51.6145 50.8026 51.3247 50.6554 51.1104L44.2646 41.8087C44.1756 41.6792 44.0263 41.6015 43.8663 41.6015C43.7063 41.6015 43.5568 41.6793 43.4679 41.8087L41.7165 44.3579L36.1165 36.2072C36.0275 36.0776 35.8781 36 35.7181 36C35.5582 36 35.4087 36.0778 35.3198 36.2072L29.7197 44.3579L27.9682 41.8087C27.8793 41.6792 27.7298 41.6015 27.5699 41.6015C27.4099 41.6015 27.2605 41.6793 27.1715 41.8087L20.7808 51.1104C20.6336 51.3247 20.6926 51.6146 20.9126 51.7579C20.9945 51.8113 21.0871 51.8368 21.1787 51.8368C21.3333 51.8368 21.4851 51.7641 21.5775 51.6295L27.5699 42.9077L29.143 45.1973L20.7807 57.3685C20.6335 57.5828 20.6925 57.8727 20.9125 58.016C21.1326 58.1594 21.4302 58.1019 21.5774 57.8876L35.7181 37.3061L41.3147 45.452C41.3156 45.4534 41.3166 45.4546 41.3174 45.4559L49.8587 57.8876C49.9511 58.0222 50.1028 58.0949 50.2575 58.0949C50.3491 58.0949 50.4417 58.0693 50.5236 58.016C50.7436 57.8726 50.8026 57.5828 50.6554 57.3685L42.2932 45.1973Z" fill="#0134FF"/>
<path d="M25.9407 54.4873C25.676 54.4873 25.4614 54.6963 25.4614 54.9541V55.5765C25.4614 55.8343 25.676 56.0433 25.9407 56.0433C26.2054 56.0433 26.42 55.8343 26.42 55.5765V54.9541C26.42 54.6963 26.2054 54.4873 25.9407 54.4873Z" fill="#0134FF"/>
<path d="M43.1956 54.4873C42.9308 54.4873 42.7163 54.6963 42.7163 54.9541V55.5765C42.7163 55.8343 42.9308 56.0433 43.1956 56.0433C43.4604 56.0433 43.6749 55.8343 43.6749 55.5765V54.9541C43.675 54.6963 43.4604 54.4873 43.1956 54.4873Z" fill="#0134FF"/>
<path d="M30.0945 53.2422C29.8298 53.2422 29.6152 53.4512 29.6152 53.709V54.3314C29.6152 54.5892 29.8298 54.7982 30.0945 54.7982C30.3592 54.7982 30.5738 54.5892 30.5738 54.3314V53.709C30.5738 53.4512 30.3592 53.2422 30.0945 53.2422Z" fill="#0134FF"/>
<path d="M43.1868 48.4229L42.6675 48.9136L40.7817 47.1318C40.5957 46.9561 40.2942 46.9561 40.1082 47.1318L38.2225 48.9136L36.3368 47.1318C36.1507 46.9561 35.8492 46.9561 35.6632 47.1318L33.7774 48.9136L31.8916 47.1318C31.7056 46.9561 31.4041 46.9561 31.2182 47.1318L29.3324 48.9136L28.813 48.4229C28.627 48.2471 28.3255 48.2471 28.1395 48.4229C27.9535 48.5986 27.9535 48.8836 28.1395 49.0593L28.9956 49.8682C29.1816 50.0439 29.4832 50.0439 29.6691 49.8682L31.5549 48.0864L33.4407 49.8682C33.6267 50.0439 33.9282 50.0439 34.1142 49.8682L36.0001 48.0864L37.8858 49.8682C37.9788 49.956 38.1007 50 38.2226 50C38.3445 50 38.4664 49.9561 38.5594 49.8682L40.4451 48.0864L42.3308 49.8682C42.4202 49.9526 42.5413 50 42.6676 50C42.794 50 42.915 49.9526 43.0044 49.8682L43.8605 49.0593C44.0465 48.8835 44.0465 48.5986 43.8604 48.4229C43.6744 48.2471 43.3728 48.2471 43.1868 48.4229Z" fill="#0134FF"/>
</g>
<g filter="url(#filter0_b_2047_543)">
<path d="M32.5749 32.4739C31.9186 31.8175 31.5498 30.9273 31.5498 29.999C31.5498 29.0708 31.9186 28.1805 32.5749 27.5242C33.2313 26.8678 34.1215 26.499 35.0498 26.499C35.9781 26.499 36.8683 26.8678 37.5247 27.5242C38.1811 28.1805 38.5498 29.0708 38.5498 29.999C38.5498 30.9273 38.1811 31.8175 37.5247 32.4739C36.8683 33.1303 35.9781 33.499 35.0498 33.499C34.1215 33.499 33.2313 33.1303 32.5749 32.4739Z" stroke="#0134FF" stroke-linejoin="round"/>
</g>
<defs>
<filter id="filter0_b_2047_543" x="27.0498" y="21.999" width="16" height="16" filterUnits="userSpaceOnUse" color-interpolation-filters="sRGB">
<feFlood flood-opacity="0" result="BackgroundImageFix"/>
<feGaussianBlur in="BackgroundImageFix" stdDeviation="2"/>
<feComposite in2="SourceAlpha" operator="in" result="effect1_backgroundBlur_2047_543"/>
<feBlend mode="normal" in="SourceGraphic" in2="effect1_backgroundBlur_2047_543" result="shape"/>
</filter>
<clipPath id="clip0_2047_543">
<rect width="30.0366" height="29.2525" fill="white" transform="translate(19.5498 29)"/>
</clipPath>
</defs>
</svg>
