<svg width="443" height="120" viewBox="0 0 443 120" fill="none" xmlns="http://www.w3.org/2000/svg">
<path d="M0.882812 3.72266H24.3438V95.8145H79.9492V116H0.882812V3.72266ZM145.914 119.123C129.867 119.123 117.604 114.756 109.123 106.021C97.748 95.3066 92.0605 79.8691 92.0605 59.709C92.0605 39.1426 97.748 23.7051 109.123 13.3965C117.604 4.66211 129.867 0.294922 145.914 0.294922C161.961 0.294922 174.225 4.66211 182.705 13.3965C194.029 23.7051 199.691 39.1426 199.691 59.709C199.691 79.8691 194.029 95.3066 182.705 106.021C174.225 114.756 161.961 119.123 145.914 119.123ZM168.08 88.959C173.514 82.1035 176.23 72.3535 176.23 59.709C176.23 47.1152 173.488 37.3906 168.004 30.5352C162.57 23.6289 155.207 20.1758 145.914 20.1758C136.621 20.1758 129.207 23.6035 123.672 30.459C118.137 37.3145 115.369 47.0645 115.369 59.709C115.369 72.3535 118.137 82.1035 123.672 88.959C129.207 95.8145 136.621 99.2422 145.914 99.2422C155.207 99.2422 162.596 95.8145 168.08 88.959ZM286.527 113.258C280.332 117.066 272.715 118.971 263.676 118.971C248.797 118.971 236.609 113.816 227.113 103.508C217.211 93.1484 212.26 78.9805 212.26 61.0039C212.26 42.8242 217.262 28.25 227.266 17.2812C237.27 6.3125 250.498 0.828125 266.951 0.828125C281.221 0.828125 292.672 4.45898 301.305 11.7207C309.988 18.9316 314.965 27.9453 316.234 38.7617H293.154C291.377 31.0937 287.035 25.7363 280.129 22.6895C276.27 21.0137 271.979 20.1758 267.256 20.1758C258.217 20.1758 250.777 23.6035 244.938 30.459C239.148 37.2637 236.254 47.5215 236.254 61.2324C236.254 75.0449 239.402 84.8203 245.699 90.5586C251.996 96.2969 259.156 99.166 267.18 99.166C275.051 99.166 281.5 96.9062 286.527 92.3867C291.555 87.8164 294.652 81.8496 295.82 74.4863H269.846V55.748H316.615V116H301.076L298.715 101.984C294.195 107.316 290.133 111.074 286.527 113.258ZM388.75 119.123C372.703 119.123 360.439 114.756 351.959 106.021C340.584 95.3066 334.896 79.8691 334.896 59.709C334.896 39.1426 340.584 23.7051 351.959 13.3965C360.439 4.66211 372.703 0.294922 388.75 0.294922C404.797 0.294922 417.061 4.66211 425.541 13.3965C436.865 23.7051 442.527 39.1426 442.527 59.709C442.527 79.8691 436.865 95.3066 425.541 106.021C417.061 114.756 404.797 119.123 388.75 119.123ZM410.916 88.959C416.35 82.1035 419.066 72.3535 419.066 59.709C419.066 47.1152 416.324 37.3906 410.84 30.5352C405.406 23.6289 398.043 20.1758 388.75 20.1758C379.457 20.1758 372.043 23.6035 366.508 30.459C360.973 37.3145 358.205 47.0645 358.205 59.709C358.205 72.3535 360.973 82.1035 366.508 88.959C372.043 95.8145 379.457 99.2422 388.75 99.2422C398.043 99.2422 405.432 95.8145 410.916 88.959Z" fill="black"/>
</svg>
