<svg xmlns="http://www.w3.org/2000/svg" viewBox="0 0 100 100" preserveAspectRatio="xMidYMid" width="208" height="208" style="shape-rendering: auto; display: block; background: rgb(255, 255, 255);" xmlns:xlink="http://www.w3.org/1999/xlink"><g><g transform="rotate(0 50 50)">
  <rect fill="#fe718d" height="10" width="7" ry="5" rx="3.5" y="26" x="46.5">
    <animate repeatCount="indefinite" begin="-1.5536723163841808s" dur="1.6949152542372883s" keyTimes="0;1" values="1;0" attributeName="opacity"></animate>
  </rect>
</g><g transform="rotate(30 50 50)">
  <rect fill="#f47e60" height="10" width="7" ry="5" rx="3.5" y="26" x="46.5">
    <animate repeatCount="indefinite" begin="-1.4124293785310735s" dur="1.6949152542372883s" keyTimes="0;1" values="1;0" attributeName="opacity"></animate>
  </rect>
</g><g transform="rotate(60 50 50)">
  <rect fill="#f8b26a" height="10" width="7" ry="5" rx="3.5" y="26" x="46.5">
    <animate repeatCount="indefinite" begin="-1.271186440677966s" dur="1.6949152542372883s" keyTimes="0;1" values="1;0" attributeName="opacity"></animate>
  </rect>
</g><g transform="rotate(90 50 50)">
  <rect fill="#abbd81" height="10" width="7" ry="5" rx="3.5" y="26" x="46.5">
    <animate repeatCount="indefinite" begin="-1.1299435028248588s" dur="1.6949152542372883s" keyTimes="0;1" values="1;0" attributeName="opacity"></animate>
  </rect>
</g><g transform="rotate(120 50 50)">
  <rect fill="#849b87" height="10" width="7" ry="5" rx="3.5" y="26" x="46.5">
    <animate repeatCount="indefinite" begin="-0.9887005649717514s" dur="1.6949152542372883s" keyTimes="0;1" values="1;0" attributeName="opacity"></animate>
  </rect>
</g><g transform="rotate(150 50 50)">
  <rect fill="#6492ac" height="10" width="7" ry="5" rx="3.5" y="26" x="46.5">
    <animate repeatCount="indefinite" begin="-0.847457627118644s" dur="1.6949152542372883s" keyTimes="0;1" values="1;0" attributeName="opacity"></animate>
  </rect>
</g><g transform="rotate(180 50 50)">
  <rect fill="#637cb5" height="10" width="7" ry="5" rx="3.5" y="26" x="46.5">
    <animate repeatCount="indefinite" begin="-0.7062146892655368s" dur="1.6949152542372883s" keyTimes="0;1" values="1;0" attributeName="opacity"></animate>
  </rect>
</g><g transform="rotate(210 50 50)">
  <rect fill="#6a63b6" height="10" width="7" ry="5" rx="3.5" y="26" x="46.5">
    <animate repeatCount="indefinite" begin="-0.5649717514124294s" dur="1.6949152542372883s" keyTimes="0;1" values="1;0" attributeName="opacity"></animate>
  </rect>
</g><g transform="rotate(240 50 50)">
  <rect fill="#fe718d" height="10" width="7" ry="5" rx="3.5" y="26" x="46.5">
    <animate repeatCount="indefinite" begin="-0.423728813559322s" dur="1.6949152542372883s" keyTimes="0;1" values="1;0" attributeName="opacity"></animate>
  </rect>
</g><g transform="rotate(270 50 50)">
  <rect fill="#f47e60" height="10" width="7" ry="5" rx="3.5" y="26" x="46.5">
    <animate repeatCount="indefinite" begin="-0.2824858757062147s" dur="1.6949152542372883s" keyTimes="0;1" values="1;0" attributeName="opacity"></animate>
  </rect>
</g><g transform="rotate(300 50 50)">
  <rect fill="#f8b26a" height="10" width="7" ry="5" rx="3.5" y="26" x="46.5">
    <animate repeatCount="indefinite" begin="-0.14124293785310735s" dur="1.6949152542372883s" keyTimes="0;1" values="1;0" attributeName="opacity"></animate>
  </rect>
</g><g transform="rotate(330 50 50)">
  <rect fill="#abbd81" height="10" width="7" ry="5" rx="3.5" y="26" x="46.5">
    <animate repeatCount="indefinite" begin="0s" dur="1.6949152542372883s" keyTimes="0;1" values="1;0" attributeName="opacity"></animate>
  </rect>
</g><g></g></g><!-- [ldio] generated by https://loading.io --></svg>