<svg width="60" height="60" viewBox="0 0 60 60" fill="none" xmlns="http://www.w3.org/2000/svg">
<path d="M52.5 21.25V15C52.5 12.2386 50.2615 10 47.5 10H12.5C9.73857 10 7.5 12.2386 7.5 15V27.5C7.5 30.2615 9.73857 32.5 12.5 32.5H27.1875M47.5 35V30C47.5 27.2385 45.2615 25 42.5 25C39.7385 25 37.5 27.2385 37.5 30V35M35 50H50C51.3807 50 52.5 48.8807 52.5 47.5V37.5C52.5 36.1193 51.3807 35 50 35H35C33.6193 35 32.5 36.1193 32.5 37.5V47.5C32.5 48.8807 33.6193 50 35 50Z" stroke="black" stroke-width="2" stroke-linecap="round" stroke-linejoin="round"/>
<path d="M18.75 25C20.8211 25 22.5 23.3211 22.5 21.25C22.5 19.1789 20.8211 17.5 18.75 17.5C16.6789 17.5 15 19.1789 15 21.25C15 23.3211 16.6789 25 18.75 25Z" fill="black"/>
<path d="M30 25C32.0711 25 33.75 23.3211 33.75 21.25C33.75 19.1789 32.0711 17.5 30 17.5C27.9289 17.5 26.25 19.1789 26.25 21.25C26.25 23.3211 27.9289 25 30 25Z" fill="black"/>
</svg>
