<svg width="60" height="60" viewBox="0 0 60 60" fill="none" xmlns="http://www.w3.org/2000/svg">
<path d="M44.7496 6.5C42.2496 3.75 37.9996 2.5 32.2496 2.5H15.7496C14.4996 2.5 13.4996 3.25 13.4996 4.5L6.49963 47.5C6.24963 48.25 6.99963 49.25 7.99963 49.25H18.2496L20.7496 33.5C20.9996 32.25 21.9996 31.5 22.9996 31.5H27.7496C37.2496 31.5 44.4996 27.75 46.7496 16.5C46.7496 16.25 46.9996 15.75 46.9996 15.5C47.4996 11.75 46.9996 9 44.7496 6.5ZM49.2496 18C49.2496 18.25 48.9996 18.5 48.9996 19C46.7496 30 39.4996 34 29.9996 34H25.2496C23.9996 34 23.2496 34.75 22.9996 36L20.4996 51.75L19.7496 56.25C19.7496 57 20.2496 57.75 20.9996 57.75H29.4996C30.4996 57.75 31.2496 57 31.4996 56V55.5L32.9996 45.25V44.75C33.2496 43.75 33.9996 43 34.9996 43H36.4996C44.7496 43 51.2496 39.75 53.2496 30C53.9996 26 53.7496 22.5 51.4996 20.25C50.7496 19.25 49.9996 18.5 49.2496 18Z" fill="black"/>
</svg>
