<svg width="60" height="60" viewBox="0 0 60 60" fill="none" xmlns="http://www.w3.org/2000/svg">
<g clip-path="url(#clip0_2572_2587)">
<path d="M52.941 54.6143C52.8931 54.6229 52.6689 54.663 52.3046 54.7283C37.9362 57.3036 35.2931 57.7458 34.9965 57.7802C34.2889 57.8623 33.7602 57.8207 33.3798 57.6531C33.1422 57.5484 33.0135 57.4213 32.9792 57.3654C32.9959 57.266 33.1223 57.029 33.1994 56.8843C33.2745 56.7434 33.3596 56.5839 33.4342 56.4139C33.9286 55.2856 33.5827 54.141 32.5311 53.4266C31.747 52.8941 30.7074 52.6779 29.4401 52.784C28.6836 52.8475 15.4234 55.0705 8.13961 56.2965L4.56445 59.108C12.9021 57.7007 28.7863 55.0357 29.6221 54.9547C30.3687 54.892 30.9511 54.9868 31.3071 55.2285C31.5138 55.369 31.4934 55.4154 31.439 55.5395C31.3982 55.6327 31.3395 55.7426 31.2774 55.8591C31.0388 56.3065 30.7119 56.9192 30.8201 57.6782C30.9388 58.5105 31.5516 59.2279 32.5014 59.6464C33.0354 59.8817 33.6482 59.9983 34.3589 59.9983C34.6394 59.9983 34.9353 59.9802 35.2474 59.9439C35.8189 59.8777 41.687 58.8442 52.6887 56.8723C53.0509 56.8074 53.2739 56.7674 53.3216 56.759C53.9138 56.654 54.3087 56.0886 54.2036 55.4963C54.0984 54.904 53.5335 54.5092 52.941 54.6143Z" fill="black"/>
<path d="M14.3847 44.0321L5.1326 53.7101C4.11361 54.776 3.39584 56.0934 3.05273 57.5275L16.19 47.1963C20.3026 49.02 23.5877 49.6009 26.1054 49.6009C30.5287 49.6009 32.582 47.8069 32.582 47.8069C28.4642 45.6641 27.8775 41.665 27.8775 41.665C31.0313 42.9984 37.601 44.5701 37.601 44.5701C46.3256 38.7471 50.8853 26.1396 50.8853 26.1396C49.9819 26.3879 49.1181 26.4914 48.304 26.4914C44.2092 26.4914 41.3958 23.8694 41.3958 23.8694L52.794 21.3871C56.5837 13.6117 56.9461 0 56.9461 0L22.2909 30.8229C18.3663 34.3135 15.6068 38.924 14.3847 44.0321Z" fill="black"/>
</g>
<defs>
<clipPath id="clip0_2572_2587">
<rect width="60" height="60" fill="white"/>
</clipPath>
</defs>
</svg>
